<?xml version="1.0" encoding="UTF-8" standalone="no"?><svg xmlns="http://www.w3.org/2000/svg" xmlns:xlink="http://www.w3.org/1999/xlink" clip-rule="evenodd" stroke-miterlimit="4.00" viewBox="0 0 404 38"><desc>SVG generated by Keynote</desc><defs></defs><g transform="matrix(1.00, 0.00, -0.00, -1.00, 0.0, 38.0)"><text xml:space="preserve" font-family="Helvetica-Bold" font-weight="bold" font-size="45.0" fill="#FF2600" transform="matrix(1.00, 0.00, -0.00, -1.00, 0.0, 2.0)">S</text><text xml:space="preserve" font-family="Helvetica-Bold" font-weight="bold" font-size="45.0" fill="#FF2600" transform="matrix(1.00, 0.00, -0.00, -1.00, 30.0, 2.0)">t</text><text xml:space="preserve" font-family="Helvetica-Bold" font-weight="bold" font-size="45.0" fill="#FF2600" transform="matrix(1.00, 0.00, -0.00, -1.00, 45.0, 2.0)">a</text><text xml:space="preserve" font-family="Helvetica-Bold" font-weight="bold" font-size="45.0" fill="#FF2600" transform="matrix(1.00, 0.00, -0.00, -1.00, 70.0, 2.0)">n</text><text xml:space="preserve" font-family="Helvetica-Bold" font-weight="bold" font-size="45.0" fill="#FF2600" transform="matrix(1.00, 0.00, -0.00, -1.00, 97.5, 2.0)">d</text><text xml:space="preserve" font-family="Helvetica-Bold" font-weight="bold" font-size="45.0" fill="#FF2600" transform="matrix(1.00, 0.00, -0.00, -1.00, 125.0, 2.0)">a</text><text xml:space="preserve" font-family="Helvetica-Bold" font-weight="bold" font-size="45.0" fill="#FF2600" transform="matrix(1.00, 0.00, -0.00, -1.00, 150.0, 2.0)">r</text><text xml:space="preserve" font-family="Helvetica-Bold" font-weight="bold" font-size="45.0" fill="#FF2600" transform="matrix(1.00, 0.00, -0.00, -1.00, 167.6, 2.0)">d</text><text xml:space="preserve" font-family="Helvetica-Bold" font-weight="bold" font-size="45.0" fill="#FF2600" transform="matrix(1.00, 0.00, -0.00, -1.00, 195.0, 2.0)"> </text><text xml:space="preserve" font-family="Helvetica-Bold" font-weight="bold" font-size="45.0" fill="#FF2600" transform="matrix(1.00, 0.00, -0.00, -1.00, 207.5, 2.0)">s</text><text xml:space="preserve" font-family="Helvetica-Bold" font-weight="bold" font-size="45.0" fill="#FF2600" transform="matrix(1.00, 0.00, -0.00, -1.00, 232.6, 2.0)">t</text><text xml:space="preserve" font-family="Helvetica-Bold" font-weight="bold" font-size="45.0" fill="#FF2600" transform="matrix(1.00, 0.00, -0.00, -1.00, 247.5, 2.0)">r</text><text xml:space="preserve" font-family="Helvetica-Bold" font-weight="bold" font-size="45.0" fill="#FF2600" transform="matrix(1.00, 0.00, -0.00, -1.00, 265.1, 2.0)">u</text><text xml:space="preserve" font-family="Helvetica-Bold" font-weight="bold" font-size="45.0" fill="#FF2600" transform="matrix(1.00, 0.00, -0.00, -1.00, 292.5, 2.0)">c</text><text xml:space="preserve" font-family="Helvetica-Bold" font-weight="bold" font-size="45.0" fill="#FF2600" transform="matrix(1.00, 0.00, -0.00, -1.00, 317.6, 2.0)">t</text><text xml:space="preserve" font-family="Helvetica-Bold" font-weight="bold" font-size="45.0" fill="#FF2600" transform="matrix(1.00, 0.00, -0.00, -1.00, 332.6, 2.0)">u</text><text xml:space="preserve" font-family="Helvetica-Bold" font-weight="bold" font-size="45.0" fill="#FF2600" transform="matrix(1.00, 0.00, -0.00, -1.00, 360.0, 2.0)">r</text><text xml:space="preserve" font-family="Helvetica-Bold" font-weight="bold" font-size="45.0" fill="#FF2600" transform="matrix(1.00, 0.00, -0.00, -1.00, 377.6, 2.0)">e</text></g></svg>