<?xml version="1.0" encoding="UTF-8" standalone="no"?><svg xmlns="http://www.w3.org/2000/svg" xmlns:xlink="http://www.w3.org/1999/xlink" clip-rule="evenodd" stroke-miterlimit="4.00" viewBox="0 0 1920 1080"><desc>SVG generated by Keynote</desc><defs></defs><g transform="matrix(1.00, 0.00, -0.00, -1.00, 0.0, 1080.0)"><path d="M 0.0 1080.0 L 1920.0 1080.0 L 1920.0 0.0 L 0.0 0.0 Z M 0.0 1080.0 " fill="#FEFFFF"></path><text xml:space="preserve" font-family="Helvetica-Bold" font-weight="bold" font-size="98.6" fill="#000000" transform="matrix(1.00, 0.00, -0.00, -1.00, 775.0, 623.0)">D</text><text xml:space="preserve" font-family="Helvetica-Light" font-size="98.6" fill="#000000" transform="matrix(1.00, 0.00, -0.00, -1.00, 846.2, 623.0)">o</text><text xml:space="preserve" font-family="Helvetica-Light" font-size="98.6" fill="#000000" transform="matrix(1.00, 0.00, -0.00, -1.00, 901.0, 623.0)">n</text><text xml:space="preserve" font-family="Helvetica-Light" font-size="98.6" fill="#000000" transform="matrix(1.00, 0.00, -0.00, -1.00, 955.8, 623.0)">’</text><text xml:space="preserve" font-family="Helvetica-Light" font-size="98.6" fill="#000000" transform="matrix(1.00, 0.00, -0.00, -1.00, 975.9, 623.0)">t</text><text xml:space="preserve" font-family="Helvetica-Light" font-size="98.6" fill="#000000" transform="matrix(1.00, 0.00, -0.00, -1.00, 1003.3, 623.0)"> </text><text xml:space="preserve" font-family="Helvetica-Bold" font-weight="bold" font-size="98.6" fill="#000000" transform="matrix(1.00, 0.00, -0.00, -1.00, 775.0, 504.0)">R</text><text xml:space="preserve" font-family="Helvetica-Light" font-size="98.6" fill="#000000" transform="matrix(1.00, 0.00, -0.00, -1.00, 846.2, 504.0)">e</text><text xml:space="preserve" font-family="Helvetica-Light" font-size="98.6" fill="#000000" transform="matrix(1.00, 0.00, -0.00, -1.00, 901.0, 504.0)">p</text><text xml:space="preserve" font-family="Helvetica-Light" font-size="98.6" fill="#000000" transform="matrix(1.00, 0.00, -0.00, -1.00, 961.2, 504.0)">e</text><text xml:space="preserve" font-family="Helvetica-Light" font-size="98.6" fill="#000000" transform="matrix(1.00, 0.00, -0.00, -1.00, 1016.0, 504.0)">a</text><text xml:space="preserve" font-family="Helvetica-Light" font-size="98.6" fill="#000000" transform="matrix(1.00, 0.00, -0.00, -1.00, 1070.8, 504.0)">t</text><text xml:space="preserve" font-family="Helvetica-Light" font-size="98.6" fill="#000000" transform="matrix(1.00, 0.00, -0.00, -1.00, 1098.2, 504.0)"> </text><text xml:space="preserve" font-family="Helvetica-Bold" font-weight="bold" font-size="98.6" fill="#000000" transform="matrix(1.00, 0.00, -0.00, -1.00, 775.0, 385.0)">Y</text><text xml:space="preserve" font-family="Helvetica-Light" font-size="98.6" fill="#000000" transform="matrix(1.00, 0.00, -0.00, -1.00, 840.7, 385.0)">o</text><text xml:space="preserve" font-family="Helvetica-Light" font-size="98.6" fill="#000000" transform="matrix(1.00, 0.00, -0.00, -1.00, 895.5, 385.0)">u</text><text xml:space="preserve" font-family="Helvetica-Light" font-size="98.6" fill="#000000" transform="matrix(1.00, 0.00, -0.00, -1.00, 950.3, 385.0)">r</text><text xml:space="preserve" font-family="Helvetica-Light" font-size="98.6" fill="#000000" transform="matrix(1.00, 0.00, -0.00, -1.00, 983.2, 385.0)">s</text><text xml:space="preserve" font-family="Helvetica-Light" font-size="98.6" fill="#000000" transform="matrix(1.00, 0.00, -0.00, -1.00, 1032.4, 385.0)">e</text><text xml:space="preserve" font-family="Helvetica-Light" font-size="98.6" fill="#000000" transform="matrix(1.00, 0.00, -0.00, -1.00, 1087.2, 385.0)">l</text><text xml:space="preserve" font-family="Helvetica-Light" font-size="98.6" fill="#000000" transform="matrix(1.00, 0.00, -0.00, -1.00, 1109.1, 385.0)">f</text></g></svg>