<?xml version="1.0" encoding="UTF-8" standalone="no"?><svg xmlns="http://www.w3.org/2000/svg" xmlns:xlink="http://www.w3.org/1999/xlink" clip-rule="evenodd" stroke-miterlimit="4.00" viewBox="0 0 292 39"><desc>SVG generated by Keynote</desc><defs></defs><g transform="matrix(1.00, 0.00, -0.00, -1.00, 0.0, 39.0)"><text xml:space="preserve" font-family="Helvetica-Light" font-size="33.8" fill="#000000" transform="matrix(1.00, 0.00, -0.00, -1.00, 0.0, 8.7)">•</text><text xml:space="preserve" font-family="Helvetica-Light" font-size="45.0" fill="#000000" transform="matrix(1.00, 0.00, -0.00, -1.00, 44.0, 5.0)">V</text><text xml:space="preserve" font-family="Helvetica-Light" font-size="45.0" fill="#000000" transform="matrix(1.00, 0.00, -0.00, -1.00, 70.7, 5.0)">i</text><text xml:space="preserve" font-family="Helvetica-Light" font-size="45.0" fill="#000000" transform="matrix(1.00, 0.00, -0.00, -1.00, 80.7, 5.0)">s</text><text xml:space="preserve" font-family="Helvetica-Light" font-size="45.0" fill="#000000" transform="matrix(1.00, 0.00, -0.00, -1.00, 103.2, 5.0)">u</text><text xml:space="preserve" font-family="Helvetica-Light" font-size="45.0" fill="#000000" transform="matrix(1.00, 0.00, -0.00, -1.00, 128.2, 5.0)">a</text><text xml:space="preserve" font-family="Helvetica-Light" font-size="45.0" fill="#000000" transform="matrix(1.00, 0.00, -0.00, -1.00, 153.2, 5.0)">l</text><text xml:space="preserve" font-family="Helvetica-Light" font-size="45.0" fill="#000000" transform="matrix(1.00, 0.00, -0.00, -1.00, 163.2, 5.0)">i</text><text xml:space="preserve" font-family="Helvetica-Light" font-size="45.0" fill="#000000" transform="matrix(1.00, 0.00, -0.00, -1.00, 173.2, 5.0)">z</text><text xml:space="preserve" font-family="Helvetica-Light" font-size="45.0" fill="#000000" transform="matrix(1.00, 0.00, -0.00, -1.00, 195.7, 5.0)">a</text><text xml:space="preserve" font-family="Helvetica-Light" font-size="45.0" fill="#000000" transform="matrix(1.00, 0.00, -0.00, -1.00, 220.7, 5.0)">t</text><text xml:space="preserve" font-family="Helvetica-Light" font-size="45.0" fill="#000000" transform="matrix(1.00, 0.00, -0.00, -1.00, 233.2, 5.0)">i</text><text xml:space="preserve" font-family="Helvetica-Light" font-size="45.0" fill="#000000" transform="matrix(1.00, 0.00, -0.00, -1.00, 243.2, 5.0)">o</text><text xml:space="preserve" font-family="Helvetica-Light" font-size="45.0" fill="#000000" transform="matrix(1.00, 0.00, -0.00, -1.00, 268.2, 5.0)">n</text></g></svg>