<?xml version="1.0" encoding="UTF-8" standalone="no"?><svg xmlns="http://www.w3.org/2000/svg" xmlns:xlink="http://www.w3.org/1999/xlink" clip-rule="evenodd" stroke-miterlimit="4.00" viewBox="0 0 1920 1080"><desc>SVG generated by Keynote</desc><defs></defs><g transform="matrix(1.00, 0.00, -0.00, -1.00, 0.0, 1080.0)"><path d="M 0.0 1080.0 L 1920.0 1080.0 L 1920.0 0.0 L 0.0 0.0 Z M 0.0 1080.0 " fill="#FEFFFF"></path><text xml:space="preserve" font-family="Helvetica-Light" font-size="112.0" fill="#000000" transform="matrix(1.00, 0.00, -0.00, -1.00, 338.0, 874.0)">A</text><text xml:space="preserve" font-family="Helvetica-Light" font-size="112.0" fill="#000000" transform="matrix(1.00, 0.00, -0.00, -1.00, 412.7, 874.0)"> </text><text xml:space="preserve" font-family="Helvetica-Light" font-size="112.0" fill="#000000" transform="matrix(1.00, 0.00, -0.00, -1.00, 443.8, 874.0)">M</text><text xml:space="preserve" font-family="Helvetica-Light" font-size="112.0" fill="#000000" transform="matrix(1.00, 0.00, -0.00, -1.00, 537.1, 874.0)">i</text><text xml:space="preserve" font-family="Helvetica-Light" font-size="112.0" fill="#000000" transform="matrix(1.00, 0.00, -0.00, -1.00, 562.0, 874.0)">n</text><text xml:space="preserve" font-family="Helvetica-Light" font-size="112.0" fill="#000000" transform="matrix(1.00, 0.00, -0.00, -1.00, 624.3, 874.0)">i</text><text xml:space="preserve" font-family="Helvetica-Light" font-size="112.0" fill="#000000" transform="matrix(1.00, 0.00, -0.00, -1.00, 649.1, 874.0)">m</text><text xml:space="preserve" font-family="Helvetica-Light" font-size="112.0" fill="#000000" transform="matrix(1.00, 0.00, -0.00, -1.00, 742.4, 874.0)">a</text><text xml:space="preserve" font-family="Helvetica-Light" font-size="112.0" fill="#000000" transform="matrix(1.00, 0.00, -0.00, -1.00, 804.7, 874.0)">l</text><text xml:space="preserve" font-family="Helvetica-Light" font-size="112.0" fill="#000000" transform="matrix(1.00, 0.00, -0.00, -1.00, 829.6, 874.0)"> </text><text xml:space="preserve" font-family="Helvetica-Light" font-size="112.0" fill="#000000" transform="matrix(1.00, 0.00, -0.00, -1.00, 860.7, 874.0)">P</text><text xml:space="preserve" font-family="Helvetica-Light" font-size="112.0" fill="#000000" transform="matrix(1.00, 0.00, -0.00, -1.00, 929.1, 874.0)">i</text><text xml:space="preserve" font-family="Helvetica-Light" font-size="112.0" fill="#000000" transform="matrix(1.00, 0.00, -0.00, -1.00, 954.0, 874.0)">p</text><text xml:space="preserve" font-family="Helvetica-Light" font-size="112.0" fill="#000000" transform="matrix(1.00, 0.00, -0.00, -1.00, 1022.4, 874.0)">e</text><text xml:space="preserve" font-family="Helvetica-Light" font-size="112.0" fill="#000000" transform="matrix(1.00, 0.00, -0.00, -1.00, 1084.7, 874.0)">l</text><text xml:space="preserve" font-family="Helvetica-Light" font-size="112.0" fill="#000000" transform="matrix(1.00, 0.00, -0.00, -1.00, 1109.6, 874.0)">i</text><text xml:space="preserve" font-family="Helvetica-Light" font-size="112.0" fill="#000000" transform="matrix(1.00, 0.00, -0.00, -1.00, 1134.4, 874.0)">n</text><text xml:space="preserve" font-family="Helvetica-Light" font-size="112.0" fill="#000000" transform="matrix(1.00, 0.00, -0.00, -1.00, 1196.7, 874.0)">e</text><text xml:space="preserve" font-family="Helvetica-Light" font-size="112.0" fill="#000000" transform="matrix(1.00, 0.00, -0.00, -1.00, 1259.0, 874.0)"> </text><text xml:space="preserve" font-family="Helvetica-Light" font-size="112.0" fill="#000000" transform="matrix(1.00, 0.00, -0.00, -1.00, 1290.1, 874.0)">S</text><text xml:space="preserve" font-family="Helvetica-Light" font-size="112.0" fill="#000000" transform="matrix(1.00, 0.00, -0.00, -1.00, 1358.5, 874.0)">c</text><text xml:space="preserve" font-family="Helvetica-Light" font-size="112.0" fill="#000000" transform="matrix(1.00, 0.00, -0.00, -1.00, 1420.8, 874.0)">r</text><text xml:space="preserve" font-family="Helvetica-Light" font-size="112.0" fill="#000000" transform="matrix(1.00, 0.00, -0.00, -1.00, 1458.1, 874.0)">i</text><text xml:space="preserve" font-family="Helvetica-Light" font-size="112.0" fill="#000000" transform="matrix(1.00, 0.00, -0.00, -1.00, 1483.0, 874.0)">p</text><text xml:space="preserve" font-family="Helvetica-Light" font-size="112.0" fill="#000000" transform="matrix(1.00, 0.00, -0.00, -1.00, 1551.4, 874.0)">t</text><text xml:space="preserve" font-family="CourierNewPSMT" font-size="45.0" fill="#000000" transform="matrix(1.00, 0.00, -0.00, -1.00, 608.0, 771.0)">p</text><text xml:space="preserve" font-family="CourierNewPSMT" font-size="45.0" fill="#000000" transform="matrix(1.00, 0.00, -0.00, -1.00, 635.0, 771.0)">i</text><text xml:space="preserve" font-family="CourierNewPSMT" font-size="45.0" fill="#000000" transform="matrix(1.00, 0.00, -0.00, -1.00, 662.0, 771.0)">p</text><text xml:space="preserve" font-family="CourierNewPSMT" font-size="45.0" fill="#000000" transform="matrix(1.00, 0.00, -0.00, -1.00, 689.0, 771.0)">e</text><text xml:space="preserve" font-family="CourierNewPSMT" font-size="45.0" fill="#000000" transform="matrix(1.00, 0.00, -0.00, -1.00, 716.0, 771.0)">l</text><text xml:space="preserve" font-family="CourierNewPSMT" font-size="45.0" fill="#000000" transform="matrix(1.00, 0.00, -0.00, -1.00, 743.0, 771.0)">i</text><text xml:space="preserve" font-family="CourierNewPSMT" font-size="45.0" fill="#000000" transform="matrix(1.00, 0.00, -0.00, -1.00, 770.1, 771.0)">n</text><text xml:space="preserve" font-family="CourierNewPSMT" font-size="45.0" fill="#000000" transform="matrix(1.00, 0.00, -0.00, -1.00, 797.1, 771.0)">e</text><text xml:space="preserve" font-family="CourierNewPSMT" font-size="45.0" fill="#000000" transform="matrix(1.00, 0.00, -0.00, -1.00, 824.1, 771.0)"> </text><text xml:space="preserve" font-family="CourierNewPSMT" font-size="45.0" fill="#000000" transform="matrix(1.00, 0.00, -0.00, -1.00, 608.0, 720.0)">{</text><text xml:space="preserve" font-family="CourierNewPSMT" font-size="45.0" fill="#000000" transform="matrix(1.00, 0.00, -0.00, -1.00, 635.0, 720.0)"> </text><text xml:space="preserve" font-family="CourierNewPSMT" font-size="45.0" fill="#000000" transform="matrix(1.00, 0.00, -0.00, -1.00, 608.0, 669.0)"> </text><text xml:space="preserve" font-family="CourierNewPSMT" font-size="45.0" fill="#000000" transform="matrix(1.00, 0.00, -0.00, -1.00, 673.0, 669.0)">a</text><text xml:space="preserve" font-family="CourierNewPSMT" font-size="45.0" fill="#000000" transform="matrix(1.00, 0.00, -0.00, -1.00, 700.0, 669.0)">g</text><text xml:space="preserve" font-family="CourierNewPSMT" font-size="45.0" fill="#000000" transform="matrix(1.00, 0.00, -0.00, -1.00, 727.0, 669.0)">e</text><text xml:space="preserve" font-family="CourierNewPSMT" font-size="45.0" fill="#000000" transform="matrix(1.00, 0.00, -0.00, -1.00, 754.1, 669.0)">n</text><text xml:space="preserve" font-family="CourierNewPSMT" font-size="45.0" fill="#000000" transform="matrix(1.00, 0.00, -0.00, -1.00, 781.1, 669.0)">t</text><text xml:space="preserve" font-family="CourierNewPSMT" font-size="45.0" fill="#000000" transform="matrix(1.00, 0.00, -0.00, -1.00, 808.1, 669.0)"> </text><text xml:space="preserve" font-family="CourierNewPSMT" font-size="45.0" fill="#000000" transform="matrix(1.00, 0.00, -0.00, -1.00, 835.1, 669.0)">a</text><text xml:space="preserve" font-family="CourierNewPSMT" font-size="45.0" fill="#000000" transform="matrix(1.00, 0.00, -0.00, -1.00, 862.2, 669.0)">n</text><text xml:space="preserve" font-family="CourierNewPSMT" font-size="45.0" fill="#000000" transform="matrix(1.00, 0.00, -0.00, -1.00, 889.2, 669.0)">y</text><text xml:space="preserve" font-family="CourierNewPSMT" font-size="45.0" fill="#000000" transform="matrix(1.00, 0.00, -0.00, -1.00, 916.2, 669.0)"> </text><text xml:space="preserve" font-family="CourierNewPSMT" font-size="45.0" fill="#000000" transform="matrix(1.00, 0.00, -0.00, -1.00, 608.0, 618.0)"> </text><text xml:space="preserve" font-family="CourierNewPSMT" font-size="45.0" fill="#000000" transform="matrix(1.00, 0.00, -0.00, -1.00, 673.0, 618.0)"> </text><text xml:space="preserve" font-family="CourierNewPSMT" font-size="45.0" fill="#000000" transform="matrix(1.00, 0.00, -0.00, -1.00, 608.0, 567.0)"> </text><text xml:space="preserve" font-family="CourierNewPSMT" font-size="45.0" fill="#000000" transform="matrix(1.00, 0.00, -0.00, -1.00, 673.0, 567.0)">s</text><text xml:space="preserve" font-family="CourierNewPSMT" font-size="45.0" fill="#000000" transform="matrix(1.00, 0.00, -0.00, -1.00, 700.0, 567.0)">t</text><text xml:space="preserve" font-family="CourierNewPSMT" font-size="45.0" fill="#000000" transform="matrix(1.00, 0.00, -0.00, -1.00, 727.0, 567.0)">a</text><text xml:space="preserve" font-family="CourierNewPSMT" font-size="45.0" fill="#000000" transform="matrix(1.00, 0.00, -0.00, -1.00, 754.1, 567.0)">g</text><text xml:space="preserve" font-family="CourierNewPSMT" font-size="45.0" fill="#000000" transform="matrix(1.00, 0.00, -0.00, -1.00, 781.1, 567.0)">e</text><text xml:space="preserve" font-family="CourierNewPSMT" font-size="45.0" fill="#000000" transform="matrix(1.00, 0.00, -0.00, -1.00, 808.1, 567.0)">s</text><text xml:space="preserve" font-family="CourierNewPSMT" font-size="45.0" fill="#000000" transform="matrix(1.00, 0.00, -0.00, -1.00, 835.1, 567.0)"> </text><text xml:space="preserve" font-family="CourierNewPSMT" font-size="45.0" fill="#000000" transform="matrix(1.00, 0.00, -0.00, -1.00, 608.0, 516.0)"> </text><text xml:space="preserve" font-family="CourierNewPSMT" font-size="45.0" fill="#000000" transform="matrix(1.00, 0.00, -0.00, -1.00, 673.0, 516.0)">{</text><text xml:space="preserve" font-family="CourierNewPSMT" font-size="45.0" fill="#000000" transform="matrix(1.00, 0.00, -0.00, -1.00, 700.0, 516.0)"> </text><text xml:space="preserve" font-family="CourierNewPSMT" font-size="45.0" fill="#000000" transform="matrix(1.00, 0.00, -0.00, -1.00, 608.0, 465.0)"> </text><text xml:space="preserve" font-family="CourierNewPSMT" font-size="45.0" fill="#000000" transform="matrix(1.00, 0.00, -0.00, -1.00, 673.0, 465.0)"> </text><text xml:space="preserve" font-family="CourierNewPSMT" font-size="45.0" fill="#000000" transform="matrix(1.00, 0.00, -0.00, -1.00, 738.0, 465.0)">s</text><text xml:space="preserve" font-family="CourierNewPSMT" font-size="45.0" fill="#000000" transform="matrix(1.00, 0.00, -0.00, -1.00, 765.0, 465.0)">t</text><text xml:space="preserve" font-family="CourierNewPSMT" font-size="45.0" fill="#000000" transform="matrix(1.00, 0.00, -0.00, -1.00, 792.0, 465.0)">a</text><text xml:space="preserve" font-family="CourierNewPSMT" font-size="45.0" fill="#000000" transform="matrix(1.00, 0.00, -0.00, -1.00, 819.1, 465.0)">g</text><text xml:space="preserve" font-family="CourierNewPSMT" font-size="45.0" fill="#000000" transform="matrix(1.00, 0.00, -0.00, -1.00, 846.1, 465.0)">e</text><text xml:space="preserve" font-family="CourierNewPSMT" font-size="45.0" fill="#000000" transform="matrix(1.00, 0.00, -0.00, -1.00, 873.1, 465.0)">(</text><text xml:space="preserve" font-family="CourierNewPSMT" font-size="45.0" fill="#000000" transform="matrix(1.00, 0.00, -0.00, -1.00, 900.1, 465.0)">'</text><text xml:space="preserve" font-family="CourierNewPSMT" font-size="45.0" fill="#000000" transform="matrix(1.00, 0.00, -0.00, -1.00, 927.2, 465.0)">G</text><text xml:space="preserve" font-family="CourierNewPSMT" font-size="45.0" fill="#000000" transform="matrix(1.00, 0.00, -0.00, -1.00, 954.2, 465.0)">r</text><text xml:space="preserve" font-family="CourierNewPSMT" font-size="45.0" fill="#000000" transform="matrix(1.00, 0.00, -0.00, -1.00, 981.2, 465.0)">e</text><text xml:space="preserve" font-family="CourierNewPSMT" font-size="45.0" fill="#000000" transform="matrix(1.00, 0.00, -0.00, -1.00, 1008.2, 465.0)">e</text><text xml:space="preserve" font-family="CourierNewPSMT" font-size="45.0" fill="#000000" transform="matrix(1.00, 0.00, -0.00, -1.00, 1035.3, 465.0)">t</text><text xml:space="preserve" font-family="CourierNewPSMT" font-size="45.0" fill="#000000" transform="matrix(1.00, 0.00, -0.00, -1.00, 1062.3, 465.0)">i</text><text xml:space="preserve" font-family="CourierNewPSMT" font-size="45.0" fill="#000000" transform="matrix(1.00, 0.00, -0.00, -1.00, 1089.3, 465.0)">n</text><text xml:space="preserve" font-family="CourierNewPSMT" font-size="45.0" fill="#000000" transform="matrix(1.00, 0.00, -0.00, -1.00, 1116.3, 465.0)">g</text><text xml:space="preserve" font-family="CourierNewPSMT" font-size="45.0" fill="#000000" transform="matrix(1.00, 0.00, -0.00, -1.00, 1143.3, 465.0)">'</text><text xml:space="preserve" font-family="CourierNewPSMT" font-size="45.0" fill="#000000" transform="matrix(1.00, 0.00, -0.00, -1.00, 1170.4, 465.0)">)</text><text xml:space="preserve" font-family="CourierNewPSMT" font-size="45.0" fill="#000000" transform="matrix(1.00, 0.00, -0.00, -1.00, 1197.4, 465.0)"> </text><text xml:space="preserve" font-family="CourierNewPSMT" font-size="45.0" fill="#000000" transform="matrix(1.00, 0.00, -0.00, -1.00, 608.0, 414.0)"> </text><text xml:space="preserve" font-family="CourierNewPSMT" font-size="45.0" fill="#000000" transform="matrix(1.00, 0.00, -0.00, -1.00, 673.0, 414.0)"> </text><text xml:space="preserve" font-family="CourierNewPSMT" font-size="45.0" fill="#000000" transform="matrix(1.00, 0.00, -0.00, -1.00, 738.0, 414.0)">{</text><text xml:space="preserve" font-family="CourierNewPSMT" font-size="45.0" fill="#000000" transform="matrix(1.00, 0.00, -0.00, -1.00, 765.0, 414.0)"> </text><text xml:space="preserve" font-family="CourierNewPSMT" font-size="45.0" fill="#000000" transform="matrix(1.00, 0.00, -0.00, -1.00, 608.0, 363.0)"> </text><text xml:space="preserve" font-family="CourierNewPSMT" font-size="45.0" fill="#000000" transform="matrix(1.00, 0.00, -0.00, -1.00, 673.0, 363.0)"> </text><text xml:space="preserve" font-family="CourierNewPSMT" font-size="45.0" fill="#000000" transform="matrix(1.00, 0.00, -0.00, -1.00, 738.0, 363.0)"> </text><text xml:space="preserve" font-family="CourierNewPSMT" font-size="45.0" fill="#000000" transform="matrix(1.00, 0.00, -0.00, -1.00, 803.0, 363.0)">s</text><text xml:space="preserve" font-family="CourierNewPSMT" font-size="45.0" fill="#000000" transform="matrix(1.00, 0.00, -0.00, -1.00, 830.0, 363.0)">t</text><text xml:space="preserve" font-family="CourierNewPSMT" font-size="45.0" fill="#000000" transform="matrix(1.00, 0.00, -0.00, -1.00, 857.1, 363.0)">e</text><text xml:space="preserve" font-family="CourierNewPSMT" font-size="45.0" fill="#000000" transform="matrix(1.00, 0.00, -0.00, -1.00, 884.1, 363.0)">p</text><text xml:space="preserve" font-family="CourierNewPSMT" font-size="45.0" fill="#000000" transform="matrix(1.00, 0.00, -0.00, -1.00, 911.1, 363.0)">s</text><text xml:space="preserve" font-family="CourierNewPSMT" font-size="45.0" fill="#000000" transform="matrix(1.00, 0.00, -0.00, -1.00, 938.1, 363.0)"> </text><text xml:space="preserve" font-family="CourierNewPSMT" font-size="45.0" fill="#000000" transform="matrix(1.00, 0.00, -0.00, -1.00, 608.0, 312.0)"> </text><text xml:space="preserve" font-family="CourierNewPSMT" font-size="45.0" fill="#000000" transform="matrix(1.00, 0.00, -0.00, -1.00, 673.0, 312.0)"> </text><text xml:space="preserve" font-family="CourierNewPSMT" font-size="45.0" fill="#000000" transform="matrix(1.00, 0.00, -0.00, -1.00, 738.0, 312.0)"> </text><text xml:space="preserve" font-family="CourierNewPSMT" font-size="45.0" fill="#000000" transform="matrix(1.00, 0.00, -0.00, -1.00, 803.0, 312.0)">{</text><text xml:space="preserve" font-family="CourierNewPSMT" font-size="45.0" fill="#000000" transform="matrix(1.00, 0.00, -0.00, -1.00, 830.0, 312.0)"> </text><text xml:space="preserve" font-family="CourierNewPSMT" font-size="45.0" fill="#000000" transform="matrix(1.00, 0.00, -0.00, -1.00, 608.0, 261.0)"> </text><text xml:space="preserve" font-family="CourierNewPSMT" font-size="45.0" fill="#000000" transform="matrix(1.00, 0.00, -0.00, -1.00, 673.0, 261.0)"> </text><text xml:space="preserve" font-family="CourierNewPSMT" font-size="45.0" fill="#000000" transform="matrix(1.00, 0.00, -0.00, -1.00, 738.0, 261.0)"> </text><text xml:space="preserve" font-family="CourierNewPSMT" font-size="45.0" fill="#000000" transform="matrix(1.00, 0.00, -0.00, -1.00, 803.0, 261.0)"> </text><text xml:space="preserve" font-family="CourierNewPSMT" font-size="45.0" fill="#000000" transform="matrix(1.00, 0.00, -0.00, -1.00, 868.0, 261.0)">e</text><text xml:space="preserve" font-family="CourierNewPSMT" font-size="45.0" fill="#000000" transform="matrix(1.00, 0.00, -0.00, -1.00, 895.0, 261.0)">c</text><text xml:space="preserve" font-family="CourierNewPSMT" font-size="45.0" fill="#000000" transform="matrix(1.00, 0.00, -0.00, -1.00, 922.1, 261.0)">h</text><text xml:space="preserve" font-family="CourierNewPSMT" font-size="45.0" fill="#000000" transform="matrix(1.00, 0.00, -0.00, -1.00, 949.1, 261.0)">o</text><text xml:space="preserve" font-family="CourierNewPSMT" font-size="45.0" fill="#000000" transform="matrix(1.00, 0.00, -0.00, -1.00, 976.1, 261.0)"> </text><text xml:space="preserve" font-family="CourierNewPSMT" font-size="45.0" fill="#000000" transform="matrix(1.00, 0.00, -0.00, -1.00, 1003.1, 261.0)">'</text><text xml:space="preserve" font-family="CourierNewPSMT" font-size="45.0" fill="#000000" transform="matrix(1.00, 0.00, -0.00, -1.00, 1030.1, 261.0)">H</text><text xml:space="preserve" font-family="CourierNewPSMT" font-size="45.0" fill="#000000" transform="matrix(1.00, 0.00, -0.00, -1.00, 1057.2, 261.0)">e</text><text xml:space="preserve" font-family="CourierNewPSMT" font-size="45.0" fill="#000000" transform="matrix(1.00, 0.00, -0.00, -1.00, 1084.2, 261.0)">l</text><text xml:space="preserve" font-family="CourierNewPSMT" font-size="45.0" fill="#000000" transform="matrix(1.00, 0.00, -0.00, -1.00, 1111.2, 261.0)">l</text><text xml:space="preserve" font-family="CourierNewPSMT" font-size="45.0" fill="#000000" transform="matrix(1.00, 0.00, -0.00, -1.00, 1138.2, 261.0)">o</text><text xml:space="preserve" font-family="CourierNewPSMT" font-size="45.0" fill="#000000" transform="matrix(1.00, 0.00, -0.00, -1.00, 1165.3, 261.0)"> </text><text xml:space="preserve" font-family="CourierNewPSMT" font-size="45.0" fill="#000000" transform="matrix(1.00, 0.00, -0.00, -1.00, 1192.3, 261.0)">W</text><text xml:space="preserve" font-family="CourierNewPSMT" font-size="45.0" fill="#000000" transform="matrix(1.00, 0.00, -0.00, -1.00, 1219.3, 261.0)">o</text><text xml:space="preserve" font-family="CourierNewPSMT" font-size="45.0" fill="#000000" transform="matrix(1.00, 0.00, -0.00, -1.00, 1246.3, 261.0)">r</text><text xml:space="preserve" font-family="CourierNewPSMT" font-size="45.0" fill="#000000" transform="matrix(1.00, 0.00, -0.00, -1.00, 1273.3, 261.0)">l</text><text xml:space="preserve" font-family="CourierNewPSMT" font-size="45.0" fill="#000000" transform="matrix(1.00, 0.00, -0.00, -1.00, 1300.4, 261.0)">d</text><text xml:space="preserve" font-family="CourierNewPSMT" font-size="45.0" fill="#000000" transform="matrix(1.00, 0.00, -0.00, -1.00, 1327.4, 261.0)">!</text><text xml:space="preserve" font-family="CourierNewPSMT" font-size="45.0" fill="#000000" transform="matrix(1.00, 0.00, -0.00, -1.00, 1354.4, 261.0)">'</text><text xml:space="preserve" font-family="CourierNewPSMT" font-size="45.0" fill="#000000" transform="matrix(1.00, 0.00, -0.00, -1.00, 1381.4, 261.0)"> </text><text xml:space="preserve" font-family="CourierNewPSMT" font-size="45.0" fill="#000000" transform="matrix(1.00, 0.00, -0.00, -1.00, 608.0, 210.0)"> </text><text xml:space="preserve" font-family="CourierNewPSMT" font-size="45.0" fill="#000000" transform="matrix(1.00, 0.00, -0.00, -1.00, 673.0, 210.0)"> </text><text xml:space="preserve" font-family="CourierNewPSMT" font-size="45.0" fill="#000000" transform="matrix(1.00, 0.00, -0.00, -1.00, 738.0, 210.0)"> </text><text xml:space="preserve" font-family="CourierNewPSMT" font-size="45.0" fill="#000000" transform="matrix(1.00, 0.00, -0.00, -1.00, 803.0, 210.0)">}</text><text xml:space="preserve" font-family="CourierNewPSMT" font-size="45.0" fill="#000000" transform="matrix(1.00, 0.00, -0.00, -1.00, 830.0, 210.0)"> </text><text xml:space="preserve" font-family="CourierNewPSMT" font-size="45.0" fill="#000000" transform="matrix(1.00, 0.00, -0.00, -1.00, 608.0, 159.0)"> </text><text xml:space="preserve" font-family="CourierNewPSMT" font-size="45.0" fill="#000000" transform="matrix(1.00, 0.00, -0.00, -1.00, 673.0, 159.0)"> </text><text xml:space="preserve" font-family="CourierNewPSMT" font-size="45.0" fill="#000000" transform="matrix(1.00, 0.00, -0.00, -1.00, 738.0, 159.0)">}</text><text xml:space="preserve" font-family="CourierNewPSMT" font-size="45.0" fill="#000000" transform="matrix(1.00, 0.00, -0.00, -1.00, 765.0, 159.0)"> </text><text xml:space="preserve" font-family="CourierNewPSMT" font-size="45.0" fill="#000000" transform="matrix(1.00, 0.00, -0.00, -1.00, 608.0, 108.0)"> </text><text xml:space="preserve" font-family="CourierNewPSMT" font-size="45.0" fill="#000000" transform="matrix(1.00, 0.00, -0.00, -1.00, 673.0, 108.0)">}</text><text xml:space="preserve" font-family="CourierNewPSMT" font-size="45.0" fill="#000000" transform="matrix(1.00, 0.00, -0.00, -1.00, 700.0, 108.0)"> </text><text xml:space="preserve" font-family="CourierNewPSMT" font-size="45.0" fill="#000000" transform="matrix(1.00, 0.00, -0.00, -1.00, 608.0, 57.0)">}</text></g></svg>