<?xml version="1.0" encoding="UTF-8" standalone="no"?><svg xmlns="http://www.w3.org/2000/svg" xmlns:xlink="http://www.w3.org/1999/xlink" clip-rule="evenodd" stroke-miterlimit="4.00" viewBox="0 0 531 59"><desc>SVG generated by Keynote</desc><defs></defs><g transform="matrix(1.00, 0.00, -0.00, -1.00, 0.0, 59.0)"><text xml:space="preserve" font-family="Helvetica-Light" font-size="60.0" fill="#000000" transform="matrix(1.00, 0.00, -0.00, -1.00, -3.0, 14.0)">D</text><text xml:space="preserve" font-family="Helvetica-Light" font-size="60.0" fill="#000000" transform="matrix(1.00, 0.00, -0.00, -1.00, 40.3, 14.0)">e</text><text xml:space="preserve" font-family="Helvetica-Light" font-size="60.0" fill="#000000" transform="matrix(1.00, 0.00, -0.00, -1.00, 73.7, 14.0)">c</text><text xml:space="preserve" font-family="Helvetica-Light" font-size="60.0" fill="#000000" transform="matrix(1.00, 0.00, -0.00, -1.00, 107.0, 14.0)">l</text><text xml:space="preserve" font-family="Helvetica-Light" font-size="60.0" fill="#000000" transform="matrix(1.00, 0.00, -0.00, -1.00, 120.4, 14.0)">a</text><text xml:space="preserve" font-family="Helvetica-Light" font-size="60.0" fill="#000000" transform="matrix(1.00, 0.00, -0.00, -1.00, 153.7, 14.0)">r</text><text xml:space="preserve" font-family="Helvetica-Light" font-size="60.0" fill="#000000" transform="matrix(1.00, 0.00, -0.00, -1.00, 173.7, 14.0)">a</text><text xml:space="preserve" font-family="Helvetica-Light" font-size="60.0" fill="#000000" transform="matrix(1.00, 0.00, -0.00, -1.00, 207.1, 14.0)">t</text><text xml:space="preserve" font-family="Helvetica-Light" font-size="60.0" fill="#000000" transform="matrix(1.00, 0.00, -0.00, -1.00, 223.7, 14.0)">i</text><text xml:space="preserve" font-family="Helvetica-Light" font-size="60.0" fill="#000000" transform="matrix(1.00, 0.00, -0.00, -1.00, 237.1, 14.0)">v</text><text xml:space="preserve" font-family="Helvetica-Light" font-size="60.0" fill="#000000" transform="matrix(1.00, 0.00, -0.00, -1.00, 267.1, 14.0)">e</text><text xml:space="preserve" font-family="Helvetica-Light" font-size="60.0" fill="#000000" transform="matrix(1.00, 0.00, -0.00, -1.00, 300.4, 14.0)"> </text><text xml:space="preserve" font-family="Helvetica-Light" font-size="60.0" fill="#000000" transform="matrix(1.00, 0.00, -0.00, -1.00, 317.1, 14.0)">P</text><text xml:space="preserve" font-family="Helvetica-Light" font-size="60.0" fill="#000000" transform="matrix(1.00, 0.00, -0.00, -1.00, 353.8, 14.0)">i</text><text xml:space="preserve" font-family="Helvetica-Light" font-size="60.0" fill="#000000" transform="matrix(1.00, 0.00, -0.00, -1.00, 367.1, 14.0)">p</text><text xml:space="preserve" font-family="Helvetica-Light" font-size="60.0" fill="#000000" transform="matrix(1.00, 0.00, -0.00, -1.00, 403.7, 14.0)">e</text><text xml:space="preserve" font-family="Helvetica-Light" font-size="60.0" fill="#000000" transform="matrix(1.00, 0.00, -0.00, -1.00, 437.1, 14.0)">l</text><text xml:space="preserve" font-family="Helvetica-Light" font-size="60.0" fill="#000000" transform="matrix(1.00, 0.00, -0.00, -1.00, 450.4, 14.0)">i</text><text xml:space="preserve" font-family="Helvetica-Light" font-size="60.0" fill="#000000" transform="matrix(1.00, 0.00, -0.00, -1.00, 463.7, 14.0)">n</text><text xml:space="preserve" font-family="Helvetica-Light" font-size="60.0" fill="#000000" transform="matrix(1.00, 0.00, -0.00, -1.00, 497.1, 14.0)">e</text></g></svg>