<?xml version="1.0" encoding="UTF-8" standalone="no"?><svg xmlns="http://www.w3.org/2000/svg" xmlns:xlink="http://www.w3.org/1999/xlink" clip-rule="evenodd" stroke-miterlimit="4.00" viewBox="0 0 427 52"><desc>SVG generated by Keynote</desc><defs></defs><g transform="matrix(1.00, 0.00, -0.00, -1.00, 0.0, 52.0)"><text xml:space="preserve" font-family="Helvetica-Bold" font-weight="bold" font-size="50.0" fill="#FF2600" transform="matrix(1.00, 0.00, -0.00, -1.00, 0.0, 13.0)">O</text><text xml:space="preserve" font-family="Helvetica-Bold" font-weight="bold" font-size="50.0" fill="#FF2600" transform="matrix(1.00, 0.00, -0.00, -1.00, 38.9, 13.0)">r</text><text xml:space="preserve" font-family="Helvetica-Bold" font-weight="bold" font-size="50.0" fill="#FF2600" transform="matrix(1.00, 0.00, -0.00, -1.00, 58.3, 13.0)">i</text><text xml:space="preserve" font-family="Helvetica-Bold" font-weight="bold" font-size="50.0" fill="#FF2600" transform="matrix(1.00, 0.00, -0.00, -1.00, 72.2, 13.0)">g</text><text xml:space="preserve" font-family="Helvetica-Bold" font-weight="bold" font-size="50.0" fill="#FF2600" transform="matrix(1.00, 0.00, -0.00, -1.00, 102.7, 13.0)">i</text><text xml:space="preserve" font-family="Helvetica-Bold" font-weight="bold" font-size="50.0" fill="#FF2600" transform="matrix(1.00, 0.00, -0.00, -1.00, 116.6, 13.0)">n</text><text xml:space="preserve" font-family="Helvetica-Bold" font-weight="bold" font-size="50.0" fill="#FF2600" transform="matrix(1.00, 0.00, -0.00, -1.00, 147.2, 13.0)">a</text><text xml:space="preserve" font-family="Helvetica-Bold" font-weight="bold" font-size="50.0" fill="#FF2600" transform="matrix(1.00, 0.00, -0.00, -1.00, 175.0, 13.0)">l</text><text xml:space="preserve" font-family="Helvetica-Bold" font-weight="bold" font-size="50.0" fill="#FF2600" transform="matrix(1.00, 0.00, -0.00, -1.00, 188.8, 13.0)"> </text><text xml:space="preserve" font-family="Helvetica-Bold" font-weight="bold" font-size="50.0" fill="#FF2600" transform="matrix(1.00, 0.00, -0.00, -1.00, 202.7, 13.0)">a</text><text xml:space="preserve" font-family="Helvetica-Bold" font-weight="bold" font-size="50.0" fill="#FF2600" transform="matrix(1.00, 0.00, -0.00, -1.00, 230.5, 13.0)">p</text><text xml:space="preserve" font-family="Helvetica-Bold" font-weight="bold" font-size="50.0" fill="#FF2600" transform="matrix(1.00, 0.00, -0.00, -1.00, 261.0, 13.0)">p</text><text xml:space="preserve" font-family="Helvetica-Bold" font-weight="bold" font-size="50.0" fill="#FF2600" transform="matrix(1.00, 0.00, -0.00, -1.00, 291.6, 13.0)">r</text><text xml:space="preserve" font-family="Helvetica-Bold" font-weight="bold" font-size="50.0" fill="#FF2600" transform="matrix(1.00, 0.00, -0.00, -1.00, 311.0, 13.0)">o</text><text xml:space="preserve" font-family="Helvetica-Bold" font-weight="bold" font-size="50.0" fill="#FF2600" transform="matrix(1.00, 0.00, -0.00, -1.00, 341.6, 13.0)">a</text><text xml:space="preserve" font-family="Helvetica-Bold" font-weight="bold" font-size="50.0" fill="#FF2600" transform="matrix(1.00, 0.00, -0.00, -1.00, 369.4, 13.0)">c</text><text xml:space="preserve" font-family="Helvetica-Bold" font-weight="bold" font-size="50.0" fill="#FF2600" transform="matrix(1.00, 0.00, -0.00, -1.00, 397.2, 13.0)">h</text></g></svg>