<?xml version="1.0" encoding="UTF-8" standalone="no"?><svg xmlns="http://www.w3.org/2000/svg" xmlns:xlink="http://www.w3.org/1999/xlink" clip-rule="evenodd" stroke-miterlimit="4.00" viewBox="0 0 1920 1080"><desc>SVG generated by Keynote</desc><defs></defs><g transform="matrix(1.00, 0.00, -0.00, -1.00, 0.0, 1080.0)"><path d="M 0.0 1080.0 L 1920.0 1080.0 L 1920.0 0.0 L 0.0 0.0 Z M 0.0 1080.0 " fill="#FEFFFF"></path><text xml:space="preserve" font-family="Helvetica-Light" font-size="50.0" fill="#000000" transform="matrix(1.00, 0.00, -0.00, -1.00, 907.0, -56.0)">A</text><text xml:space="preserve" font-family="Helvetica-Light" font-size="50.0" fill="#000000" transform="matrix(1.00, 0.00, -0.00, -1.00, 938.5, -56.0)">W</text><text xml:space="preserve" font-family="Helvetica-Light" font-size="50.0" fill="#000000" transform="matrix(1.00, 0.00, -0.00, -1.00, 983.0, -56.0)">S</text><text xml:space="preserve" font-family="Helvetica-Light" font-size="50.0" fill="#000000" transform="matrix(1.00, 0.00, -0.00, -1.00, 1013.5, -56.0)"> </text><text xml:space="preserve" font-family="Helvetica-Light" font-size="106.4" fill="#000000" transform="matrix(1.00, 0.00, -0.00, -1.00, 140.0, 875.0)">W</text><text xml:space="preserve" font-family="Helvetica-Light" font-size="106.4" fill="#000000" transform="matrix(1.00, 0.00, -0.00, -1.00, 234.6, 875.0)">h</text><text xml:space="preserve" font-family="Helvetica-Light" font-size="106.4" fill="#000000" transform="matrix(1.00, 0.00, -0.00, -1.00, 293.7, 875.0)">a</text><text xml:space="preserve" font-family="Helvetica-Light" font-size="106.4" fill="#000000" transform="matrix(1.00, 0.00, -0.00, -1.00, 352.9, 875.0)">t</text><text xml:space="preserve" font-family="Helvetica-Light" font-size="106.4" fill="#000000" transform="matrix(1.00, 0.00, -0.00, -1.00, 382.5, 875.0)"> </text><text xml:space="preserve" font-family="Helvetica-Light" font-size="106.4" fill="#000000" transform="matrix(1.00, 0.00, -0.00, -1.00, 412.1, 875.0)">K</text><text xml:space="preserve" font-family="Helvetica-Light" font-size="106.4" fill="#000000" transform="matrix(1.00, 0.00, -0.00, -1.00, 483.0, 875.0)">i</text><text xml:space="preserve" font-family="Helvetica-Light" font-size="106.4" fill="#000000" transform="matrix(1.00, 0.00, -0.00, -1.00, 506.7, 875.0)">n</text><text xml:space="preserve" font-family="Helvetica-Light" font-size="106.4" fill="#000000" transform="matrix(1.00, 0.00, -0.00, -1.00, 565.8, 875.0)">d</text><text xml:space="preserve" font-family="Helvetica-Light" font-size="106.4" fill="#000000" transform="matrix(1.00, 0.00, -0.00, -1.00, 630.8, 875.0)"> </text><text xml:space="preserve" font-family="Helvetica-Light" font-size="106.4" fill="#000000" transform="matrix(1.00, 0.00, -0.00, -1.00, 660.4, 875.0)">o</text><text xml:space="preserve" font-family="Helvetica-Light" font-size="106.4" fill="#000000" transform="matrix(1.00, 0.00, -0.00, -1.00, 719.6, 875.0)">f</text><text xml:space="preserve" font-family="Helvetica-Light" font-size="106.4" fill="#000000" transform="matrix(1.00, 0.00, -0.00, -1.00, 749.1, 875.0)"> </text><text xml:space="preserve" font-family="Helvetica-Light" font-size="106.4" fill="#000000" transform="matrix(1.00, 0.00, -0.00, -1.00, 778.7, 875.0)">S</text><text xml:space="preserve" font-family="Helvetica-Light" font-size="106.4" fill="#000000" transform="matrix(1.00, 0.00, -0.00, -1.00, 843.7, 875.0)">t</text><text xml:space="preserve" font-family="Helvetica-Light" font-size="106.4" fill="#000000" transform="matrix(1.00, 0.00, -0.00, -1.00, 873.3, 875.0)">e</text><text xml:space="preserve" font-family="Helvetica-Light" font-size="106.4" fill="#000000" transform="matrix(1.00, 0.00, -0.00, -1.00, 932.5, 875.0)">p</text><text xml:space="preserve" font-family="Helvetica-Light" font-size="106.4" fill="#000000" transform="matrix(1.00, 0.00, -0.00, -1.00, 997.5, 875.0)">s</text><text xml:space="preserve" font-family="Helvetica-Light" font-size="106.4" fill="#000000" transform="matrix(1.00, 0.00, -0.00, -1.00, 1050.7, 875.0)"> </text><text xml:space="preserve" font-family="Helvetica-Light" font-size="106.4" fill="#000000" transform="matrix(1.00, 0.00, -0.00, -1.00, 1080.3, 875.0)">C</text><text xml:space="preserve" font-family="Helvetica-Light" font-size="106.4" fill="#000000" transform="matrix(1.00, 0.00, -0.00, -1.00, 1157.1, 875.0)">a</text><text xml:space="preserve" font-family="Helvetica-Light" font-size="106.4" fill="#000000" transform="matrix(1.00, 0.00, -0.00, -1.00, 1216.2, 875.0)">n</text><text xml:space="preserve" font-family="Helvetica-Light" font-size="106.4" fill="#000000" transform="matrix(1.00, 0.00, -0.00, -1.00, 1275.4, 875.0)"> </text><text xml:space="preserve" font-family="Helvetica-Light" font-size="106.4" fill="#000000" transform="matrix(1.00, 0.00, -0.00, -1.00, 1305.0, 875.0)">Y</text><text xml:space="preserve" font-family="Helvetica-Light" font-size="106.4" fill="#000000" transform="matrix(1.00, 0.00, -0.00, -1.00, 1360.2, 875.0)">o</text><text xml:space="preserve" font-family="Helvetica-Light" font-size="106.4" fill="#000000" transform="matrix(1.00, 0.00, -0.00, -1.00, 1419.4, 875.0)">u</text><text xml:space="preserve" font-family="Helvetica-Light" font-size="106.4" fill="#000000" transform="matrix(1.00, 0.00, -0.00, -1.00, 1478.5, 875.0)"> </text><text xml:space="preserve" font-family="Helvetica-Light" font-size="106.4" fill="#000000" transform="matrix(1.00, 0.00, -0.00, -1.00, 1508.1, 875.0)">T</text><text xml:space="preserve" font-family="Helvetica-Light" font-size="106.4" fill="#000000" transform="matrix(1.00, 0.00, -0.00, -1.00, 1555.4, 875.0)">a</text><text xml:space="preserve" font-family="Helvetica-Light" font-size="106.4" fill="#000000" transform="matrix(1.00, 0.00, -0.00, -1.00, 1614.6, 875.0)">k</text><text xml:space="preserve" font-family="Helvetica-Light" font-size="106.4" fill="#000000" transform="matrix(1.00, 0.00, -0.00, -1.00, 1667.8, 875.0)">e</text><text xml:space="preserve" font-family="Helvetica-Light" font-size="106.4" fill="#000000" transform="matrix(1.00, 0.00, -0.00, -1.00, 1727.0, 875.0)">?</text></g></svg>