<?xml version="1.0" encoding="UTF-8" standalone="no"?><svg xmlns="http://www.w3.org/2000/svg" xmlns:xlink="http://www.w3.org/1999/xlink" clip-rule="evenodd" stroke-miterlimit="4.00" viewBox="0 0 608 191"><desc>SVG generated by Keynote</desc><defs><pattern id="DCB91090-F2D2-48AF-8892-78160471F105" patternUnits="userSpaceOnUse" width="314" height="314" viewBox="0 0 314 314" patternTransform="matrix(0.955414, 0.000000, 0.000000, -0.955414, 6.563746, 185.129400)"><image xlink:href="../../161B0B54-7FD3-4E94-A586-B260162458D2/assets/D57DAEBAD5B9C4DEC467607E5B2312B7.jpeg" width="314.00" height="314.00"></image></pattern></defs><g transform="matrix(1.00, 0.00, -0.00, -1.00, 0.0, 191.0)"><image xlink:href="29C292DB62CB7D4986A49935501DD290.png" width="603.00" height="188.00" transform="matrix(1.00, 0.00, -0.00, -1.00, 3.6, 189.1)" opacity="0.50"></image><g><clipPath id="clip-366"><path d="M 194.6 185.1 C 190.5 185.1 187.2 181.8 187.2 177.8 L 187.2 93.5 L 6.6 78.8 L 187.2 64.2 L 187.2 12.5 C 187.2 8.4 190.5 5.1 194.6 5.1 L 594.0 5.1 C 598.1 5.1 601.3 8.4 601.3 12.5 L 601.3 177.8 C 601.3 181.8 598.1 185.1 594.0 185.1 L 194.6 185.1 Z M 194.6 185.1 "></path></clipPath><g clip-path="url(#clip-366)"><path d="M 6.6 5.1 L 601.3 5.1 L 601.3 185.1 L 6.6 185.1 Z M 6.6 5.1 " fill="url(#DCB91090-F2D2-48AF-8892-78160471F105)"></path><path d="M 6.6 185.1 L 601.3 185.1 L 601.3 5.1 L 6.6 5.1 Z M 6.6 185.1 " fill="#00D026" fill-opacity="0.50"></path></g></g><g><clipPath id="clip-367"><path d="M 183.2 5.1 L 605.3 5.1 L 605.3 185.1 L 183.2 185.1 Z M 183.2 5.1 "></path></clipPath><g clip-path="url(#clip-367)"><text xml:space="preserve" font-family="Helvetica-Bold" font-weight="bold" font-size="32.0" fill="#FEFFFE" transform="matrix(1.00, 0.00, -0.00, -1.00, 239.0, 122.0)">S</text><text xml:space="preserve" font-family="Helvetica-Bold" font-weight="bold" font-size="32.0" fill="#FEFFFE" transform="matrix(1.00, 0.00, -0.00, -1.00, 260.3, 122.0)">t</text><text xml:space="preserve" font-family="Helvetica-Bold" font-weight="bold" font-size="32.0" fill="#FEFFFE" transform="matrix(1.00, 0.00, -0.00, -1.00, 271.0, 122.0)">a</text><text xml:space="preserve" font-family="Helvetica-Bold" font-weight="bold" font-size="32.0" fill="#FEFFFE" transform="matrix(1.00, 0.00, -0.00, -1.00, 288.8, 122.0)">g</text><text xml:space="preserve" font-family="Helvetica-Bold" font-weight="bold" font-size="32.0" fill="#FEFFFE" transform="matrix(1.00, 0.00, -0.00, -1.00, 308.3, 122.0)">e</text><text xml:space="preserve" font-family="Helvetica-Bold" font-weight="bold" font-size="32.0" fill="#FEFFFE" transform="matrix(1.00, 0.00, -0.00, -1.00, 326.1, 122.0)">-</text><text xml:space="preserve" font-family="Helvetica-Bold" font-weight="bold" font-size="32.0" fill="#FEFFFE" transform="matrix(1.00, 0.00, -0.00, -1.00, 336.8, 122.0)">s</text><text xml:space="preserve" font-family="Helvetica-Bold" font-weight="bold" font-size="32.0" fill="#FEFFFE" transform="matrix(1.00, 0.00, -0.00, -1.00, 354.6, 122.0)">p</text><text xml:space="preserve" font-family="Helvetica-Bold" font-weight="bold" font-size="32.0" fill="#FEFFFE" transform="matrix(1.00, 0.00, -0.00, -1.00, 374.1, 122.0)">e</text><text xml:space="preserve" font-family="Helvetica-Bold" font-weight="bold" font-size="32.0" fill="#FEFFFE" transform="matrix(1.00, 0.00, -0.00, -1.00, 392.0, 122.0)">c</text><text xml:space="preserve" font-family="Helvetica-Bold" font-weight="bold" font-size="32.0" fill="#FEFFFE" transform="matrix(1.00, 0.00, -0.00, -1.00, 409.8, 122.0)">i</text><text xml:space="preserve" font-family="Helvetica-Bold" font-weight="bold" font-size="32.0" fill="#FEFFFE" transform="matrix(1.00, 0.00, -0.00, -1.00, 418.6, 122.0)">ﬁ</text><text xml:space="preserve" font-family="Helvetica-Bold" font-weight="bold" font-size="32.0" fill="#FEFFFE" transform="matrix(1.00, 0.00, -0.00, -1.00, 438.2, 122.0)">c</text><text xml:space="preserve" font-family="Helvetica-Bold" font-weight="bold" font-size="32.0" fill="#FEFFFE" transform="matrix(1.00, 0.00, -0.00, -1.00, 456.0, 122.0)"> </text><text xml:space="preserve" font-family="Helvetica-Bold" font-weight="bold" font-size="32.0" fill="#FEFFFE" transform="matrix(1.00, 0.00, -0.00, -1.00, 464.9, 122.0)">a</text><text xml:space="preserve" font-family="Helvetica-Bold" font-weight="bold" font-size="32.0" fill="#FEFFFE" transform="matrix(1.00, 0.00, -0.00, -1.00, 482.7, 122.0)">g</text><text xml:space="preserve" font-family="Helvetica-Bold" font-weight="bold" font-size="32.0" fill="#FEFFFE" transform="matrix(1.00, 0.00, -0.00, -1.00, 502.2, 122.0)">e</text><text xml:space="preserve" font-family="Helvetica-Bold" font-weight="bold" font-size="32.0" fill="#FEFFFE" transform="matrix(1.00, 0.00, -0.00, -1.00, 520.0, 122.0)">n</text><text xml:space="preserve" font-family="Helvetica-Bold" font-weight="bold" font-size="32.0" fill="#FEFFFE" transform="matrix(1.00, 0.00, -0.00, -1.00, 539.6, 122.0)">t</text><text xml:space="preserve" font-family="Helvetica-Bold" font-weight="bold" font-size="32.0" fill="#FEFFFE" transform="matrix(1.00, 0.00, -0.00, -1.00, 550.2, 122.0)"> </text><text xml:space="preserve" font-family="Helvetica-Bold" font-weight="bold" font-size="32.0" fill="#FEFFFE" transform="matrix(1.00, 0.00, -0.00, -1.00, 216.0, 84.0)">c</text><text xml:space="preserve" font-family="Helvetica-Bold" font-weight="bold" font-size="32.0" fill="#FEFFFE" transform="matrix(1.00, 0.00, -0.00, -1.00, 233.8, 84.0)">o</text><text xml:space="preserve" font-family="Helvetica-Bold" font-weight="bold" font-size="32.0" fill="#FEFFFE" transform="matrix(1.00, 0.00, -0.00, -1.00, 253.3, 84.0)">n</text><text xml:space="preserve" font-family="Helvetica-Bold" font-weight="bold" font-size="32.0" fill="#FEFFFE" transform="matrix(1.00, 0.00, -0.00, -1.00, 272.9, 84.0)">ﬁ</text><text xml:space="preserve" font-family="Helvetica-Bold" font-weight="bold" font-size="32.0" fill="#FEFFFE" transform="matrix(1.00, 0.00, -0.00, -1.00, 292.4, 84.0)">g</text><text xml:space="preserve" font-family="Helvetica-Bold" font-weight="bold" font-size="32.0" fill="#FEFFFE" transform="matrix(1.00, 0.00, -0.00, -1.00, 312.0, 84.0)">u</text><text xml:space="preserve" font-family="Helvetica-Bold" font-weight="bold" font-size="32.0" fill="#FEFFFE" transform="matrix(1.00, 0.00, -0.00, -1.00, 331.5, 84.0)">r</text><text xml:space="preserve" font-family="Helvetica-Bold" font-weight="bold" font-size="32.0" fill="#FEFFFE" transform="matrix(1.00, 0.00, -0.00, -1.00, 344.0, 84.0)">a</text><text xml:space="preserve" font-family="Helvetica-Bold" font-weight="bold" font-size="32.0" fill="#FEFFFE" transform="matrix(1.00, 0.00, -0.00, -1.00, 361.8, 84.0)">t</text><text xml:space="preserve" font-family="Helvetica-Bold" font-weight="bold" font-size="32.0" fill="#FEFFFE" transform="matrix(1.00, 0.00, -0.00, -1.00, 372.4, 84.0)">i</text><text xml:space="preserve" font-family="Helvetica-Bold" font-weight="bold" font-size="32.0" fill="#FEFFFE" transform="matrix(1.00, 0.00, -0.00, -1.00, 381.3, 84.0)">o</text><text xml:space="preserve" font-family="Helvetica-Bold" font-weight="bold" font-size="32.0" fill="#FEFFFE" transform="matrix(1.00, 0.00, -0.00, -1.00, 400.8, 84.0)">n</text><text xml:space="preserve" font-family="Helvetica-Bold" font-weight="bold" font-size="32.0" fill="#FEFFFE" transform="matrix(1.00, 0.00, -0.00, -1.00, 420.4, 84.0)"> </text><text xml:space="preserve" font-family="Helvetica-Bold" font-weight="bold" font-size="32.0" fill="#FEFFFE" transform="matrix(1.00, 0.00, -0.00, -1.00, 429.3, 84.0)">o</text><text xml:space="preserve" font-family="Helvetica-Bold" font-weight="bold" font-size="32.0" fill="#FEFFFE" transform="matrix(1.00, 0.00, -0.00, -1.00, 448.8, 84.0)">v</text><text xml:space="preserve" font-family="Helvetica-Bold" font-weight="bold" font-size="32.0" fill="#FEFFFE" transform="matrix(1.00, 0.00, -0.00, -1.00, 466.6, 84.0)">e</text><text xml:space="preserve" font-family="Helvetica-Bold" font-weight="bold" font-size="32.0" fill="#FEFFFE" transform="matrix(1.00, 0.00, -0.00, -1.00, 484.4, 84.0)">r</text><text xml:space="preserve" font-family="Helvetica-Bold" font-weight="bold" font-size="32.0" fill="#FEFFFE" transform="matrix(1.00, 0.00, -0.00, -1.00, 496.9, 84.0)">r</text><text xml:space="preserve" font-family="Helvetica-Bold" font-weight="bold" font-size="32.0" fill="#FEFFFE" transform="matrix(1.00, 0.00, -0.00, -1.00, 509.3, 84.0)">i</text><text xml:space="preserve" font-family="Helvetica-Bold" font-weight="bold" font-size="32.0" fill="#FEFFFE" transform="matrix(1.00, 0.00, -0.00, -1.00, 518.2, 84.0)">d</text><text xml:space="preserve" font-family="Helvetica-Bold" font-weight="bold" font-size="32.0" fill="#FEFFFE" transform="matrix(1.00, 0.00, -0.00, -1.00, 537.8, 84.0)">e</text><text xml:space="preserve" font-family="Helvetica-Bold" font-weight="bold" font-size="32.0" fill="#FEFFFE" transform="matrix(1.00, 0.00, -0.00, -1.00, 555.6, 84.0)">s</text><text xml:space="preserve" font-family="Helvetica-Bold" font-weight="bold" font-size="32.0" fill="#FEFFFE" transform="matrix(1.00, 0.00, -0.00, -1.00, 573.4, 84.0)"> </text><text xml:space="preserve" font-family="Helvetica-Bold" font-weight="bold" font-size="32.0" fill="#FEFFFE" transform="matrix(1.00, 0.00, -0.00, -1.00, 342.0, 46.0)">d</text><text xml:space="preserve" font-family="Helvetica-Bold" font-weight="bold" font-size="32.0" fill="#FEFFFE" transform="matrix(1.00, 0.00, -0.00, -1.00, 361.5, 46.0)">e</text><text xml:space="preserve" font-family="Helvetica-Bold" font-weight="bold" font-size="32.0" fill="#FEFFFE" transform="matrix(1.00, 0.00, -0.00, -1.00, 379.3, 46.0)">f</text><text xml:space="preserve" font-family="Helvetica-Bold" font-weight="bold" font-size="32.0" fill="#FEFFFE" transform="matrix(1.00, 0.00, -0.00, -1.00, 390.0, 46.0)">a</text><text xml:space="preserve" font-family="Helvetica-Bold" font-weight="bold" font-size="32.0" fill="#FEFFFE" transform="matrix(1.00, 0.00, -0.00, -1.00, 407.8, 46.0)">u</text><text xml:space="preserve" font-family="Helvetica-Bold" font-weight="bold" font-size="32.0" fill="#FEFFFE" transform="matrix(1.00, 0.00, -0.00, -1.00, 427.3, 46.0)">l</text><text xml:space="preserve" font-family="Helvetica-Bold" font-weight="bold" font-size="32.0" fill="#FEFFFE" transform="matrix(1.00, 0.00, -0.00, -1.00, 436.2, 46.0)">t</text></g></g></g></svg>