<?xml version="1.0" encoding="UTF-8" standalone="no"?><svg xmlns="http://www.w3.org/2000/svg" xmlns:xlink="http://www.w3.org/1999/xlink" clip-rule="evenodd" stroke-miterlimit="4.00" viewBox="0 0 1920 1080"><desc>SVG generated by Keynote</desc><defs></defs><g transform="matrix(1.00, 0.00, -0.00, -1.00, 0.0, 1080.0)"><path d="M 0.0 1080.0 L 1920.0 1080.0 L 1920.0 0.0 L 0.0 0.0 Z M 0.0 1080.0 " fill="#FEFFFF"></path><text xml:space="preserve" font-family="Helvetica-Bold" font-weight="bold" font-size="105.3" fill="#000000" transform="matrix(1.00, 0.00, -0.00, -1.00, 802.0, 564.0)">R</text><text xml:space="preserve" font-family="Helvetica-Bold" font-weight="bold" font-size="105.3" fill="#000000" transform="matrix(1.00, 0.00, -0.00, -1.00, 878.1, 564.0)">u</text><text xml:space="preserve" font-family="Helvetica-Bold" font-weight="bold" font-size="105.3" fill="#000000" transform="matrix(1.00, 0.00, -0.00, -1.00, 942.4, 564.0)">l</text><text xml:space="preserve" font-family="Helvetica-Bold" font-weight="bold" font-size="105.3" fill="#000000" transform="matrix(1.00, 0.00, -0.00, -1.00, 971.7, 564.0)">e</text><text xml:space="preserve" font-family="Helvetica-Bold" font-weight="bold" font-size="105.3" fill="#000000" transform="matrix(1.00, 0.00, -0.00, -1.00, 1030.2, 564.0)"> </text><text xml:space="preserve" font-family="Helvetica-Bold" font-weight="bold" font-size="105.3" fill="#000000" transform="matrix(1.00, 0.00, -0.00, -1.00, 1059.5, 564.0)">2</text><text xml:space="preserve" font-family="Helvetica-Light" font-size="105.3" fill="#000000" transform="matrix(1.00, 0.00, -0.00, -1.00, 151.0, 438.0)">E</text><text xml:space="preserve" font-family="Helvetica-Light" font-size="105.3" fill="#000000" transform="matrix(1.00, 0.00, -0.00, -1.00, 215.3, 438.0)">v</text><text xml:space="preserve" font-family="Helvetica-Light" font-size="105.3" fill="#000000" transform="matrix(1.00, 0.00, -0.00, -1.00, 268.0, 438.0)">e</text><text xml:space="preserve" font-family="Helvetica-Light" font-size="105.3" fill="#000000" transform="matrix(1.00, 0.00, -0.00, -1.00, 326.5, 438.0)">r</text><text xml:space="preserve" font-family="Helvetica-Light" font-size="105.3" fill="#000000" transform="matrix(1.00, 0.00, -0.00, -1.00, 363.5, 438.0)">y</text><text xml:space="preserve" font-family="Helvetica-Light" font-size="105.3" fill="#000000" transform="matrix(1.00, 0.00, -0.00, -1.00, 416.1, 438.0)">t</text><text xml:space="preserve" font-family="Helvetica-Light" font-size="105.3" fill="#000000" transform="matrix(1.00, 0.00, -0.00, -1.00, 445.4, 438.0)">h</text><text xml:space="preserve" font-family="Helvetica-Light" font-size="105.3" fill="#000000" transform="matrix(1.00, 0.00, -0.00, -1.00, 503.9, 438.0)">i</text><text xml:space="preserve" font-family="Helvetica-Light" font-size="105.3" fill="#000000" transform="matrix(1.00, 0.00, -0.00, -1.00, 527.3, 438.0)">n</text><text xml:space="preserve" font-family="Helvetica-Light" font-size="105.3" fill="#000000" transform="matrix(1.00, 0.00, -0.00, -1.00, 585.8, 438.0)">g</text><text xml:space="preserve" font-family="Helvetica-Light" font-size="105.3" fill="#000000" transform="matrix(1.00, 0.00, -0.00, -1.00, 650.1, 438.0)"> </text><text xml:space="preserve" font-family="Helvetica-Light" font-size="105.3" fill="#000000" transform="matrix(1.00, 0.00, -0.00, -1.00, 679.4, 438.0)">G</text><text xml:space="preserve" font-family="Helvetica-Light" font-size="105.3" fill="#000000" transform="matrix(1.00, 0.00, -0.00, -1.00, 761.3, 438.0)">o</text><text xml:space="preserve" font-family="Helvetica-Light" font-size="105.3" fill="#000000" transform="matrix(1.00, 0.00, -0.00, -1.00, 819.8, 438.0)">e</text><text xml:space="preserve" font-family="Helvetica-Light" font-size="105.3" fill="#000000" transform="matrix(1.00, 0.00, -0.00, -1.00, 878.4, 438.0)">s</text><text xml:space="preserve" font-family="Helvetica-Light" font-size="105.3" fill="#000000" transform="matrix(1.00, 0.00, -0.00, -1.00, 931.0, 438.0)"> </text><text xml:space="preserve" font-family="Helvetica-Light" font-size="105.3" fill="#000000" transform="matrix(1.00, 0.00, -0.00, -1.00, 960.3, 438.0)">i</text><text xml:space="preserve" font-family="Helvetica-Light" font-size="105.3" fill="#000000" transform="matrix(1.00, 0.00, -0.00, -1.00, 983.7, 438.0)">n</text><text xml:space="preserve" font-family="Helvetica-Light" font-size="105.3" fill="#000000" transform="matrix(1.00, 0.00, -0.00, -1.00, 1042.2, 438.0)"> </text><text xml:space="preserve" font-family="Helvetica-Light" font-size="105.3" fill="#000000" transform="matrix(1.00, 0.00, -0.00, -1.00, 1071.5, 438.0)">S</text><text xml:space="preserve" font-family="Helvetica-Light" font-size="105.3" fill="#000000" transform="matrix(1.00, 0.00, -0.00, -1.00, 1135.8, 438.0)">o</text><text xml:space="preserve" font-family="Helvetica-Light" font-size="105.3" fill="#000000" transform="matrix(1.00, 0.00, -0.00, -1.00, 1194.3, 438.0)">u</text><text xml:space="preserve" font-family="Helvetica-Light" font-size="105.3" fill="#000000" transform="matrix(1.00, 0.00, -0.00, -1.00, 1252.9, 438.0)">r</text><text xml:space="preserve" font-family="Helvetica-Light" font-size="105.3" fill="#000000" transform="matrix(1.00, 0.00, -0.00, -1.00, 1286.0, 438.0)">c</text><text xml:space="preserve" font-family="Helvetica-Light" font-size="105.3" fill="#000000" transform="matrix(1.00, 0.00, -0.00, -1.00, 1344.6, 438.0)">e</text><text xml:space="preserve" font-family="Helvetica-Light" font-size="105.3" fill="#000000" transform="matrix(1.00, 0.00, -0.00, -1.00, 1403.1, 438.0)"> </text><text xml:space="preserve" font-family="Helvetica-Light" font-size="105.3" fill="#000000" transform="matrix(1.00, 0.00, -0.00, -1.00, 1432.4, 438.0)">C</text><text xml:space="preserve" font-family="Helvetica-Light" font-size="105.3" fill="#000000" transform="matrix(1.00, 0.00, -0.00, -1.00, 1508.4, 438.0)">o</text><text xml:space="preserve" font-family="Helvetica-Light" font-size="105.3" fill="#000000" transform="matrix(1.00, 0.00, -0.00, -1.00, 1566.9, 438.0)">n</text><text xml:space="preserve" font-family="Helvetica-Light" font-size="105.3" fill="#000000" transform="matrix(1.00, 0.00, -0.00, -1.00, 1625.4, 438.0)">t</text><text xml:space="preserve" font-family="Helvetica-Light" font-size="105.3" fill="#000000" transform="matrix(1.00, 0.00, -0.00, -1.00, 1654.7, 438.0)">r</text><text xml:space="preserve" font-family="Helvetica-Light" font-size="105.3" fill="#000000" transform="matrix(1.00, 0.00, -0.00, -1.00, 1687.9, 438.0)">o</text><text xml:space="preserve" font-family="Helvetica-Light" font-size="105.3" fill="#000000" transform="matrix(1.00, 0.00, -0.00, -1.00, 1746.4, 438.0)">l</text></g></svg>