<?xml version="1.0" encoding="UTF-8" standalone="no"?><svg xmlns="http://www.w3.org/2000/svg" xmlns:xlink="http://www.w3.org/1999/xlink" clip-rule="evenodd" stroke-miterlimit="4.00" viewBox="0 0 1604 104"><desc>SVG generated by Keynote</desc><defs></defs><g transform="matrix(1.00, 0.00, -0.00, -1.00, 0.0, 104.0)"><text xml:space="preserve" font-family="Helvetica-Light" font-size="105.3" fill="#000000" transform="matrix(1.00, 0.00, -0.00, -1.00, -7.0, 24.0)">E</text><text xml:space="preserve" font-family="Helvetica-Light" font-size="105.3" fill="#000000" transform="matrix(1.00, 0.00, -0.00, -1.00, 57.3, 24.0)">v</text><text xml:space="preserve" font-family="Helvetica-Light" font-size="105.3" fill="#000000" transform="matrix(1.00, 0.00, -0.00, -1.00, 110.0, 24.0)">e</text><text xml:space="preserve" font-family="Helvetica-Light" font-size="105.3" fill="#000000" transform="matrix(1.00, 0.00, -0.00, -1.00, 168.5, 24.0)">r</text><text xml:space="preserve" font-family="Helvetica-Light" font-size="105.3" fill="#000000" transform="matrix(1.00, 0.00, -0.00, -1.00, 205.5, 24.0)">y</text><text xml:space="preserve" font-family="Helvetica-Light" font-size="105.3" fill="#000000" transform="matrix(1.00, 0.00, -0.00, -1.00, 258.1, 24.0)">t</text><text xml:space="preserve" font-family="Helvetica-Light" font-size="105.3" fill="#000000" transform="matrix(1.00, 0.00, -0.00, -1.00, 287.4, 24.0)">h</text><text xml:space="preserve" font-family="Helvetica-Light" font-size="105.3" fill="#000000" transform="matrix(1.00, 0.00, -0.00, -1.00, 345.9, 24.0)">i</text><text xml:space="preserve" font-family="Helvetica-Light" font-size="105.3" fill="#000000" transform="matrix(1.00, 0.00, -0.00, -1.00, 369.3, 24.0)">n</text><text xml:space="preserve" font-family="Helvetica-Light" font-size="105.3" fill="#000000" transform="matrix(1.00, 0.00, -0.00, -1.00, 427.8, 24.0)">g</text><text xml:space="preserve" font-family="Helvetica-Light" font-size="105.3" fill="#000000" transform="matrix(1.00, 0.00, -0.00, -1.00, 492.1, 24.0)"> </text><text xml:space="preserve" font-family="Helvetica-Light" font-size="105.3" fill="#000000" transform="matrix(1.00, 0.00, -0.00, -1.00, 521.4, 24.0)">G</text><text xml:space="preserve" font-family="Helvetica-Light" font-size="105.3" fill="#000000" transform="matrix(1.00, 0.00, -0.00, -1.00, 603.3, 24.0)">o</text><text xml:space="preserve" font-family="Helvetica-Light" font-size="105.3" fill="#000000" transform="matrix(1.00, 0.00, -0.00, -1.00, 661.8, 24.0)">e</text><text xml:space="preserve" font-family="Helvetica-Light" font-size="105.3" fill="#000000" transform="matrix(1.00, 0.00, -0.00, -1.00, 720.4, 24.0)">s</text><text xml:space="preserve" font-family="Helvetica-Light" font-size="105.3" fill="#000000" transform="matrix(1.00, 0.00, -0.00, -1.00, 773.0, 24.0)"> </text><text xml:space="preserve" font-family="Helvetica-Light" font-size="105.3" fill="#000000" transform="matrix(1.00, 0.00, -0.00, -1.00, 802.3, 24.0)">i</text><text xml:space="preserve" font-family="Helvetica-Light" font-size="105.3" fill="#000000" transform="matrix(1.00, 0.00, -0.00, -1.00, 825.7, 24.0)">n</text><text xml:space="preserve" font-family="Helvetica-Light" font-size="105.3" fill="#000000" transform="matrix(1.00, 0.00, -0.00, -1.00, 884.2, 24.0)"> </text><text xml:space="preserve" font-family="Helvetica-Light" font-size="105.3" fill="#000000" transform="matrix(1.00, 0.00, -0.00, -1.00, 913.5, 24.0)">S</text><text xml:space="preserve" font-family="Helvetica-Light" font-size="105.3" fill="#000000" transform="matrix(1.00, 0.00, -0.00, -1.00, 977.8, 24.0)">o</text><text xml:space="preserve" font-family="Helvetica-Light" font-size="105.3" fill="#000000" transform="matrix(1.00, 0.00, -0.00, -1.00, 1036.3, 24.0)">u</text><text xml:space="preserve" font-family="Helvetica-Light" font-size="105.3" fill="#000000" transform="matrix(1.00, 0.00, -0.00, -1.00, 1094.9, 24.0)">r</text><text xml:space="preserve" font-family="Helvetica-Light" font-size="105.3" fill="#000000" transform="matrix(1.00, 0.00, -0.00, -1.00, 1128.0, 24.0)">c</text><text xml:space="preserve" font-family="Helvetica-Light" font-size="105.3" fill="#000000" transform="matrix(1.00, 0.00, -0.00, -1.00, 1186.6, 24.0)">e</text><text xml:space="preserve" font-family="Helvetica-Light" font-size="105.3" fill="#000000" transform="matrix(1.00, 0.00, -0.00, -1.00, 1245.1, 24.0)"> </text><text xml:space="preserve" font-family="Helvetica-Light" font-size="105.3" fill="#000000" transform="matrix(1.00, 0.00, -0.00, -1.00, 1274.4, 24.0)">C</text><text xml:space="preserve" font-family="Helvetica-Light" font-size="105.3" fill="#000000" transform="matrix(1.00, 0.00, -0.00, -1.00, 1350.4, 24.0)">o</text><text xml:space="preserve" font-family="Helvetica-Light" font-size="105.3" fill="#000000" transform="matrix(1.00, 0.00, -0.00, -1.00, 1408.9, 24.0)">n</text><text xml:space="preserve" font-family="Helvetica-Light" font-size="105.3" fill="#000000" transform="matrix(1.00, 0.00, -0.00, -1.00, 1467.4, 24.0)">t</text><text xml:space="preserve" font-family="Helvetica-Light" font-size="105.3" fill="#000000" transform="matrix(1.00, 0.00, -0.00, -1.00, 1496.7, 24.0)">r</text><text xml:space="preserve" font-family="Helvetica-Light" font-size="105.3" fill="#000000" transform="matrix(1.00, 0.00, -0.00, -1.00, 1529.9, 24.0)">o</text><text xml:space="preserve" font-family="Helvetica-Light" font-size="105.3" fill="#000000" transform="matrix(1.00, 0.00, -0.00, -1.00, 1588.4, 24.0)">l</text></g></svg>