<?xml version="1.0" encoding="UTF-8" standalone="no"?><svg xmlns="http://www.w3.org/2000/svg" xmlns:xlink="http://www.w3.org/1999/xlink" clip-rule="evenodd" stroke-miterlimit="4.00" viewBox="0 0 1920 1080"><desc>SVG generated by Keynote</desc><defs></defs><g transform="matrix(1.00, 0.00, -0.00, -1.00, 0.0, 1080.0)"><path d="M 0.0 1080.0 L 1920.0 1080.0 L 1920.0 0.0 L 0.0 0.0 Z M 0.0 1080.0 " fill="#FEFFFF"></path><text xml:space="preserve" font-family="Helvetica-Light" font-size="50.0" fill="#000000" transform="matrix(1.00, 0.00, -0.00, -1.00, 707.0, 1093.0)">X</text><text xml:space="preserve" font-family="Helvetica-Light" font-size="50.0" fill="#000000" transform="matrix(1.00, 0.00, -0.00, -1.00, 737.5, 1093.0)">e</text><text xml:space="preserve" font-family="Helvetica-Light" font-size="50.0" fill="#000000" transform="matrix(1.00, 0.00, -0.00, -1.00, 765.4, 1093.0)">b</text><text xml:space="preserve" font-family="Helvetica-Light" font-size="50.0" fill="#000000" transform="matrix(1.00, 0.00, -0.00, -1.00, 795.9, 1093.0)">i</text><text xml:space="preserve" font-family="Helvetica-Light" font-size="50.0" fill="#000000" transform="matrix(1.00, 0.00, -0.00, -1.00, 807.0, 1093.0)">a</text><text xml:space="preserve" font-family="Helvetica-Light" font-size="50.0" fill="#000000" transform="matrix(1.00, 0.00, -0.00, -1.00, 834.8, 1093.0)">L</text><text xml:space="preserve" font-family="Helvetica-Light" font-size="50.0" fill="#000000" transform="matrix(1.00, 0.00, -0.00, -1.00, 862.6, 1093.0)">a</text><text xml:space="preserve" font-family="Helvetica-Light" font-size="50.0" fill="#000000" transform="matrix(1.00, 0.00, -0.00, -1.00, 890.4, 1093.0)">b</text><text xml:space="preserve" font-family="Helvetica-Light" font-size="50.0" fill="#000000" transform="matrix(1.00, 0.00, -0.00, -1.00, 921.0, 1093.0)">s</text><text xml:space="preserve" font-family="Helvetica-Light" font-size="50.0" fill="#000000" transform="matrix(1.00, 0.00, -0.00, -1.00, 946.0, 1093.0)"> </text><text xml:space="preserve" font-family="Helvetica-Light" font-size="50.0" fill="#000000" transform="matrix(1.00, 0.00, -0.00, -1.00, 959.9, 1093.0)">X</text><text xml:space="preserve" font-family="Helvetica-Light" font-size="50.0" fill="#000000" transform="matrix(1.00, 0.00, -0.00, -1.00, 990.4, 1093.0)">L</text><text xml:space="preserve" font-family="Helvetica-Light" font-size="50.0" fill="#000000" transform="matrix(1.00, 0.00, -0.00, -1.00, 1018.2, 1093.0)"> </text><text xml:space="preserve" font-family="Helvetica-Light" font-size="50.0" fill="#000000" transform="matrix(1.00, 0.00, -0.00, -1.00, 1032.1, 1093.0)">R</text><text xml:space="preserve" font-family="Helvetica-Light" font-size="50.0" fill="#000000" transform="matrix(1.00, 0.00, -0.00, -1.00, 1065.5, 1093.0)">e</text><text xml:space="preserve" font-family="Helvetica-Light" font-size="50.0" fill="#000000" transform="matrix(1.00, 0.00, -0.00, -1.00, 1093.2, 1093.0)">l</text><text xml:space="preserve" font-family="Helvetica-Light" font-size="50.0" fill="#000000" transform="matrix(1.00, 0.00, -0.00, -1.00, 1104.4, 1093.0)">e</text><text xml:space="preserve" font-family="Helvetica-Light" font-size="50.0" fill="#000000" transform="matrix(1.00, 0.00, -0.00, -1.00, 1132.2, 1093.0)">a</text><text xml:space="preserve" font-family="Helvetica-Light" font-size="50.0" fill="#000000" transform="matrix(1.00, 0.00, -0.00, -1.00, 1160.0, 1093.0)">s</text><text xml:space="preserve" font-family="Helvetica-Light" font-size="50.0" fill="#000000" transform="matrix(1.00, 0.00, -0.00, -1.00, 1185.0, 1093.0)">e</text><text xml:space="preserve" font-family="Helvetica-Light" font-size="50.0" fill="#000000" transform="matrix(1.00, 0.00, -0.00, -1.00, 1212.8, 1093.0)"> </text><text xml:space="preserve" font-family="Helvetica-Light" font-size="106.4" fill="#000000" transform="matrix(1.00, 0.00, -0.00, -1.00, 140.0, 875.0)">W</text><text xml:space="preserve" font-family="Helvetica-Light" font-size="106.4" fill="#000000" transform="matrix(1.00, 0.00, -0.00, -1.00, 234.6, 875.0)">h</text><text xml:space="preserve" font-family="Helvetica-Light" font-size="106.4" fill="#000000" transform="matrix(1.00, 0.00, -0.00, -1.00, 293.7, 875.0)">a</text><text xml:space="preserve" font-family="Helvetica-Light" font-size="106.4" fill="#000000" transform="matrix(1.00, 0.00, -0.00, -1.00, 352.9, 875.0)">t</text><text xml:space="preserve" font-family="Helvetica-Light" font-size="106.4" fill="#000000" transform="matrix(1.00, 0.00, -0.00, -1.00, 382.5, 875.0)"> </text><text xml:space="preserve" font-family="Helvetica-Light" font-size="106.4" fill="#000000" transform="matrix(1.00, 0.00, -0.00, -1.00, 412.1, 875.0)">K</text><text xml:space="preserve" font-family="Helvetica-Light" font-size="106.4" fill="#000000" transform="matrix(1.00, 0.00, -0.00, -1.00, 483.0, 875.0)">i</text><text xml:space="preserve" font-family="Helvetica-Light" font-size="106.4" fill="#000000" transform="matrix(1.00, 0.00, -0.00, -1.00, 506.7, 875.0)">n</text><text xml:space="preserve" font-family="Helvetica-Light" font-size="106.4" fill="#000000" transform="matrix(1.00, 0.00, -0.00, -1.00, 565.8, 875.0)">d</text><text xml:space="preserve" font-family="Helvetica-Light" font-size="106.4" fill="#000000" transform="matrix(1.00, 0.00, -0.00, -1.00, 630.8, 875.0)"> </text><text xml:space="preserve" font-family="Helvetica-Light" font-size="106.4" fill="#000000" transform="matrix(1.00, 0.00, -0.00, -1.00, 660.4, 875.0)">o</text><text xml:space="preserve" font-family="Helvetica-Light" font-size="106.4" fill="#000000" transform="matrix(1.00, 0.00, -0.00, -1.00, 719.6, 875.0)">f</text><text xml:space="preserve" font-family="Helvetica-Light" font-size="106.4" fill="#000000" transform="matrix(1.00, 0.00, -0.00, -1.00, 749.1, 875.0)"> </text><text xml:space="preserve" font-family="Helvetica-Light" font-size="106.4" fill="#000000" transform="matrix(1.00, 0.00, -0.00, -1.00, 778.7, 875.0)">S</text><text xml:space="preserve" font-family="Helvetica-Light" font-size="106.4" fill="#000000" transform="matrix(1.00, 0.00, -0.00, -1.00, 843.7, 875.0)">t</text><text xml:space="preserve" font-family="Helvetica-Light" font-size="106.4" fill="#000000" transform="matrix(1.00, 0.00, -0.00, -1.00, 873.3, 875.0)">e</text><text xml:space="preserve" font-family="Helvetica-Light" font-size="106.4" fill="#000000" transform="matrix(1.00, 0.00, -0.00, -1.00, 932.5, 875.0)">p</text><text xml:space="preserve" font-family="Helvetica-Light" font-size="106.4" fill="#000000" transform="matrix(1.00, 0.00, -0.00, -1.00, 997.5, 875.0)">s</text><text xml:space="preserve" font-family="Helvetica-Light" font-size="106.4" fill="#000000" transform="matrix(1.00, 0.00, -0.00, -1.00, 1050.7, 875.0)"> </text><text xml:space="preserve" font-family="Helvetica-Light" font-size="106.4" fill="#000000" transform="matrix(1.00, 0.00, -0.00, -1.00, 1080.3, 875.0)">C</text><text xml:space="preserve" font-family="Helvetica-Light" font-size="106.4" fill="#000000" transform="matrix(1.00, 0.00, -0.00, -1.00, 1157.1, 875.0)">a</text><text xml:space="preserve" font-family="Helvetica-Light" font-size="106.4" fill="#000000" transform="matrix(1.00, 0.00, -0.00, -1.00, 1216.2, 875.0)">n</text><text xml:space="preserve" font-family="Helvetica-Light" font-size="106.4" fill="#000000" transform="matrix(1.00, 0.00, -0.00, -1.00, 1275.4, 875.0)"> </text><text xml:space="preserve" font-family="Helvetica-Light" font-size="106.4" fill="#000000" transform="matrix(1.00, 0.00, -0.00, -1.00, 1305.0, 875.0)">Y</text><text xml:space="preserve" font-family="Helvetica-Light" font-size="106.4" fill="#000000" transform="matrix(1.00, 0.00, -0.00, -1.00, 1360.2, 875.0)">o</text><text xml:space="preserve" font-family="Helvetica-Light" font-size="106.4" fill="#000000" transform="matrix(1.00, 0.00, -0.00, -1.00, 1419.4, 875.0)">u</text><text xml:space="preserve" font-family="Helvetica-Light" font-size="106.4" fill="#000000" transform="matrix(1.00, 0.00, -0.00, -1.00, 1478.5, 875.0)"> </text><text xml:space="preserve" font-family="Helvetica-Light" font-size="106.4" fill="#000000" transform="matrix(1.00, 0.00, -0.00, -1.00, 1508.1, 875.0)">T</text><text xml:space="preserve" font-family="Helvetica-Light" font-size="106.4" fill="#000000" transform="matrix(1.00, 0.00, -0.00, -1.00, 1555.4, 875.0)">a</text><text xml:space="preserve" font-family="Helvetica-Light" font-size="106.4" fill="#000000" transform="matrix(1.00, 0.00, -0.00, -1.00, 1614.6, 875.0)">k</text><text xml:space="preserve" font-family="Helvetica-Light" font-size="106.4" fill="#000000" transform="matrix(1.00, 0.00, -0.00, -1.00, 1667.8, 875.0)">e</text><text xml:space="preserve" font-family="Helvetica-Light" font-size="106.4" fill="#000000" transform="matrix(1.00, 0.00, -0.00, -1.00, 1727.0, 875.0)">?</text><text xml:space="preserve" font-family="Helvetica-Bold" font-weight="bold" font-size="50.0" fill="#000000" transform="matrix(1.00, 0.00, -0.00, -1.00, 161.0, 581.0)">P</text><text xml:space="preserve" font-family="Helvetica-Bold" font-weight="bold" font-size="50.0" fill="#000000" transform="matrix(1.00, 0.00, -0.00, -1.00, 194.3, 581.0)">l</text><text xml:space="preserve" font-family="Helvetica-Bold" font-weight="bold" font-size="50.0" fill="#000000" transform="matrix(1.00, 0.00, -0.00, -1.00, 208.2, 581.0)">u</text><text xml:space="preserve" font-family="Helvetica-Bold" font-weight="bold" font-size="50.0" fill="#000000" transform="matrix(1.00, 0.00, -0.00, -1.00, 238.8, 581.0)">g</text><text xml:space="preserve" font-family="Helvetica-Bold" font-weight="bold" font-size="50.0" fill="#000000" transform="matrix(1.00, 0.00, -0.00, -1.00, 269.3, 581.0)">i</text><text xml:space="preserve" font-family="Helvetica-Bold" font-weight="bold" font-size="50.0" fill="#000000" transform="matrix(1.00, 0.00, -0.00, -1.00, 283.2, 581.0)">n</text><text xml:space="preserve" font-family="Helvetica-Bold" font-weight="bold" font-size="50.0" fill="#000000" transform="matrix(1.00, 0.00, -0.00, -1.00, 313.7, 581.0)">s</text><text xml:space="preserve" font-family="Helvetica-Bold" font-weight="bold" font-size="50.0" fill="#000000" transform="matrix(1.00, 0.00, -0.00, -1.00, 341.5, 581.0)"> </text><text xml:space="preserve" font-family="Helvetica-Bold" font-weight="bold" font-size="50.0" fill="#000000" transform="matrix(1.00, 0.00, -0.00, -1.00, 109.0, 521.0)">t</text><text xml:space="preserve" font-family="Helvetica-Bold" font-weight="bold" font-size="50.0" fill="#000000" transform="matrix(1.00, 0.00, -0.00, -1.00, 125.7, 521.0)">h</text><text xml:space="preserve" font-family="Helvetica-Bold" font-weight="bold" font-size="50.0" fill="#000000" transform="matrix(1.00, 0.00, -0.00, -1.00, 156.2, 521.0)">a</text><text xml:space="preserve" font-family="Helvetica-Bold" font-weight="bold" font-size="50.0" fill="#000000" transform="matrix(1.00, 0.00, -0.00, -1.00, 184.0, 521.0)">t</text><text xml:space="preserve" font-family="Helvetica-Bold" font-weight="bold" font-size="50.0" fill="#000000" transform="matrix(1.00, 0.00, -0.00, -1.00, 200.7, 521.0)"> </text><text xml:space="preserve" font-family="Helvetica-Bold" font-weight="bold" font-size="50.0" fill="#000000" transform="matrix(1.00, 0.00, -0.00, -1.00, 214.5, 521.0)">p</text><text xml:space="preserve" font-family="Helvetica-Bold" font-weight="bold" font-size="50.0" fill="#000000" transform="matrix(1.00, 0.00, -0.00, -1.00, 245.1, 521.0)">r</text><text xml:space="preserve" font-family="Helvetica-Bold" font-weight="bold" font-size="50.0" fill="#000000" transform="matrix(1.00, 0.00, -0.00, -1.00, 264.5, 521.0)">o</text><text xml:space="preserve" font-family="Helvetica-Bold" font-weight="bold" font-size="50.0" fill="#000000" transform="matrix(1.00, 0.00, -0.00, -1.00, 295.1, 521.0)">v</text><text xml:space="preserve" font-family="Helvetica-Bold" font-weight="bold" font-size="50.0" fill="#000000" transform="matrix(1.00, 0.00, -0.00, -1.00, 322.9, 521.0)">i</text><text xml:space="preserve" font-family="Helvetica-Bold" font-weight="bold" font-size="50.0" fill="#000000" transform="matrix(1.00, 0.00, -0.00, -1.00, 336.8, 521.0)">d</text><text xml:space="preserve" font-family="Helvetica-Bold" font-weight="bold" font-size="50.0" fill="#000000" transform="matrix(1.00, 0.00, -0.00, -1.00, 367.3, 521.0)">e</text><text xml:space="preserve" font-family="Helvetica-Bold" font-weight="bold" font-size="50.0" fill="#000000" transform="matrix(1.00, 0.00, -0.00, -1.00, 85.0, 461.0)">p</text><text xml:space="preserve" font-family="Helvetica-Bold" font-weight="bold" font-size="50.0" fill="#000000" transform="matrix(1.00, 0.00, -0.00, -1.00, 115.5, 461.0)">i</text><text xml:space="preserve" font-family="Helvetica-Bold" font-weight="bold" font-size="50.0" fill="#000000" transform="matrix(1.00, 0.00, -0.00, -1.00, 129.4, 461.0)">p</text><text xml:space="preserve" font-family="Helvetica-Bold" font-weight="bold" font-size="50.0" fill="#000000" transform="matrix(1.00, 0.00, -0.00, -1.00, 159.9, 461.0)">e</text><text xml:space="preserve" font-family="Helvetica-Bold" font-weight="bold" font-size="50.0" fill="#000000" transform="matrix(1.00, 0.00, -0.00, -1.00, 187.8, 461.0)">l</text><text xml:space="preserve" font-family="Helvetica-Bold" font-weight="bold" font-size="50.0" fill="#000000" transform="matrix(1.00, 0.00, -0.00, -1.00, 201.6, 461.0)">i</text><text xml:space="preserve" font-family="Helvetica-Bold" font-weight="bold" font-size="50.0" fill="#000000" transform="matrix(1.00, 0.00, -0.00, -1.00, 215.5, 461.0)">n</text><text xml:space="preserve" font-family="Helvetica-Bold" font-weight="bold" font-size="50.0" fill="#000000" transform="matrix(1.00, 0.00, -0.00, -1.00, 246.1, 461.0)">e</text><text xml:space="preserve" font-family="Helvetica-Bold" font-weight="bold" font-size="50.0" fill="#000000" transform="matrix(1.00, 0.00, -0.00, -1.00, 273.9, 461.0)"> </text><text xml:space="preserve" font-family="Helvetica-Bold" font-weight="bold" font-size="50.0" fill="#000000" transform="matrix(1.00, 0.00, -0.00, -1.00, 287.8, 461.0)">s</text><text xml:space="preserve" font-family="Helvetica-Bold" font-weight="bold" font-size="50.0" fill="#000000" transform="matrix(1.00, 0.00, -0.00, -1.00, 315.6, 461.0)">t</text><text xml:space="preserve" font-family="Helvetica-Bold" font-weight="bold" font-size="50.0" fill="#000000" transform="matrix(1.00, 0.00, -0.00, -1.00, 332.2, 461.0)">e</text><text xml:space="preserve" font-family="Helvetica-Bold" font-weight="bold" font-size="50.0" fill="#000000" transform="matrix(1.00, 0.00, -0.00, -1.00, 360.0, 461.0)">p</text><text xml:space="preserve" font-family="Helvetica-Bold" font-weight="bold" font-size="50.0" fill="#000000" transform="matrix(1.00, 0.00, -0.00, -1.00, 390.6, 461.0)">s</text></g></svg>