<?xml version="1.0" encoding="UTF-8" standalone="no"?><svg xmlns="http://www.w3.org/2000/svg" xmlns:xlink="http://www.w3.org/1999/xlink" clip-rule="evenodd" stroke-miterlimit="4.00" viewBox="0 0 809 342"><desc>SVG generated by Keynote</desc><defs></defs><g transform="matrix(1.00, 0.00, -0.00, -1.00, 0.0, 342.0)"><text xml:space="preserve" font-family="CourierNewPSMT" font-size="45.0" fill="#000000" transform="matrix(1.00, 0.00, -0.00, -1.00, 1.0, 314.0)">p</text><text xml:space="preserve" font-family="CourierNewPSMT" font-size="45.0" fill="#000000" transform="matrix(1.00, 0.00, -0.00, -1.00, 28.0, 314.0)">o</text><text xml:space="preserve" font-family="CourierNewPSMT" font-size="45.0" fill="#000000" transform="matrix(1.00, 0.00, -0.00, -1.00, 55.0, 314.0)">s</text><text xml:space="preserve" font-family="CourierNewPSMT" font-size="45.0" fill="#000000" transform="matrix(1.00, 0.00, -0.00, -1.00, 82.0, 314.0)">t</text><text xml:space="preserve" font-family="CourierNewPSMT" font-size="45.0" fill="#000000" transform="matrix(1.00, 0.00, -0.00, -1.00, 109.0, 314.0)"> </text><text xml:space="preserve" font-family="CourierNewPSMT" font-size="45.0" fill="#000000" transform="matrix(1.00, 0.00, -0.00, -1.00, 1.0, 263.0)">{</text><text xml:space="preserve" font-family="CourierNewPSMT" font-size="45.0" fill="#000000" transform="matrix(1.00, 0.00, -0.00, -1.00, 28.0, 263.0)"> </text><text xml:space="preserve" font-family="CourierNewPSMT" font-size="45.0" fill="#000000" transform="matrix(1.00, 0.00, -0.00, -1.00, 1.0, 212.0)"> </text><text xml:space="preserve" font-family="CourierNewPSMT" font-size="45.0" fill="#000000" transform="matrix(1.00, 0.00, -0.00, -1.00, 28.0, 212.0)"> </text><text xml:space="preserve" font-family="CourierNewPSMT" font-size="45.0" fill="#000000" transform="matrix(1.00, 0.00, -0.00, -1.00, 55.0, 212.0)"> </text><text xml:space="preserve" font-family="CourierNewPSMT" font-size="45.0" fill="#000000" transform="matrix(1.00, 0.00, -0.00, -1.00, 66.0, 212.0)">u</text><text xml:space="preserve" font-family="CourierNewPSMT" font-size="45.0" fill="#000000" transform="matrix(1.00, 0.00, -0.00, -1.00, 93.0, 212.0)">n</text><text xml:space="preserve" font-family="CourierNewPSMT" font-size="45.0" fill="#000000" transform="matrix(1.00, 0.00, -0.00, -1.00, 120.0, 212.0)">s</text><text xml:space="preserve" font-family="CourierNewPSMT" font-size="45.0" fill="#000000" transform="matrix(1.00, 0.00, -0.00, -1.00, 147.0, 212.0)">t</text><text xml:space="preserve" font-family="CourierNewPSMT" font-size="45.0" fill="#000000" transform="matrix(1.00, 0.00, -0.00, -1.00, 174.0, 212.0)">a</text><text xml:space="preserve" font-family="CourierNewPSMT" font-size="45.0" fill="#000000" transform="matrix(1.00, 0.00, -0.00, -1.00, 201.1, 212.0)">b</text><text xml:space="preserve" font-family="CourierNewPSMT" font-size="45.0" fill="#000000" transform="matrix(1.00, 0.00, -0.00, -1.00, 228.1, 212.0)">l</text><text xml:space="preserve" font-family="CourierNewPSMT" font-size="45.0" fill="#000000" transform="matrix(1.00, 0.00, -0.00, -1.00, 255.1, 212.0)">e</text><text xml:space="preserve" font-family="CourierNewPSMT" font-size="45.0" fill="#000000" transform="matrix(1.00, 0.00, -0.00, -1.00, 282.1, 212.0)"> </text><text xml:space="preserve" font-family="CourierNewPSMT" font-size="45.0" fill="#000000" transform="matrix(1.00, 0.00, -0.00, -1.00, 1.0, 161.0)"> </text><text xml:space="preserve" font-family="CourierNewPSMT" font-size="45.0" fill="#000000" transform="matrix(1.00, 0.00, -0.00, -1.00, 28.0, 161.0)"> </text><text xml:space="preserve" font-family="CourierNewPSMT" font-size="45.0" fill="#000000" transform="matrix(1.00, 0.00, -0.00, -1.00, 55.0, 161.0)"> </text><text xml:space="preserve" font-family="CourierNewPSMT" font-size="45.0" fill="#000000" transform="matrix(1.00, 0.00, -0.00, -1.00, 66.0, 161.0)">{</text><text xml:space="preserve" font-family="CourierNewPSMT" font-size="45.0" fill="#000000" transform="matrix(1.00, 0.00, -0.00, -1.00, 93.0, 161.0)"> </text><text xml:space="preserve" font-family="CourierNewPSMT" font-size="45.0" fill="#000000" transform="matrix(1.00, 0.00, -0.00, -1.00, 1.0, 110.0)"> </text><text xml:space="preserve" font-family="CourierNewPSMT" font-size="45.0" fill="#000000" transform="matrix(1.00, 0.00, -0.00, -1.00, 28.0, 110.0)"> </text><text xml:space="preserve" font-family="CourierNewPSMT" font-size="45.0" fill="#000000" transform="matrix(1.00, 0.00, -0.00, -1.00, 55.0, 110.0)"> </text><text xml:space="preserve" font-family="CourierNewPSMT" font-size="45.0" fill="#000000" transform="matrix(1.00, 0.00, -0.00, -1.00, 66.0, 110.0)"> </text><text xml:space="preserve" font-family="CourierNewPSMT" font-size="45.0" fill="#000000" transform="matrix(1.00, 0.00, -0.00, -1.00, 131.0, 110.0)">e</text><text xml:space="preserve" font-family="CourierNewPSMT" font-size="45.0" fill="#000000" transform="matrix(1.00, 0.00, -0.00, -1.00, 158.0, 110.0)">c</text><text xml:space="preserve" font-family="CourierNewPSMT" font-size="45.0" fill="#000000" transform="matrix(1.00, 0.00, -0.00, -1.00, 185.0, 110.0)">h</text><text xml:space="preserve" font-family="CourierNewPSMT" font-size="45.0" fill="#000000" transform="matrix(1.00, 0.00, -0.00, -1.00, 212.0, 110.0)">o</text><text xml:space="preserve" font-family="CourierNewPSMT" font-size="45.0" fill="#000000" transform="matrix(1.00, 0.00, -0.00, -1.00, 239.0, 110.0)"> </text><text xml:space="preserve" font-family="CourierNewPSMT" font-size="45.0" fill="#000000" transform="matrix(1.00, 0.00, -0.00, -1.00, 266.0, 110.0)">'</text><text xml:space="preserve" font-family="CourierNewPSMT" font-size="45.0" fill="#000000" transform="matrix(1.00, 0.00, -0.00, -1.00, 293.0, 110.0)">U</text><text xml:space="preserve" font-family="CourierNewPSMT" font-size="45.0" fill="#000000" transform="matrix(1.00, 0.00, -0.00, -1.00, 320.1, 110.0)">n</text><text xml:space="preserve" font-family="CourierNewPSMT" font-size="45.0" fill="#000000" transform="matrix(1.00, 0.00, -0.00, -1.00, 347.1, 110.0)">i</text><text xml:space="preserve" font-family="CourierNewPSMT" font-size="45.0" fill="#000000" transform="matrix(1.00, 0.00, -0.00, -1.00, 374.1, 110.0)">t</text><text xml:space="preserve" font-family="CourierNewPSMT" font-size="45.0" fill="#000000" transform="matrix(1.00, 0.00, -0.00, -1.00, 401.1, 110.0)"> </text><text xml:space="preserve" font-family="CourierNewPSMT" font-size="45.0" fill="#000000" transform="matrix(1.00, 0.00, -0.00, -1.00, 428.1, 110.0)">t</text><text xml:space="preserve" font-family="CourierNewPSMT" font-size="45.0" fill="#000000" transform="matrix(1.00, 0.00, -0.00, -1.00, 455.1, 110.0)">e</text><text xml:space="preserve" font-family="CourierNewPSMT" font-size="45.0" fill="#000000" transform="matrix(1.00, 0.00, -0.00, -1.00, 482.1, 110.0)">s</text><text xml:space="preserve" font-family="CourierNewPSMT" font-size="45.0" fill="#000000" transform="matrix(1.00, 0.00, -0.00, -1.00, 509.1, 110.0)">t</text><text xml:space="preserve" font-family="CourierNewPSMT" font-size="45.0" fill="#000000" transform="matrix(1.00, 0.00, -0.00, -1.00, 536.1, 110.0)">s</text><text xml:space="preserve" font-family="CourierNewPSMT" font-size="45.0" fill="#000000" transform="matrix(1.00, 0.00, -0.00, -1.00, 563.1, 110.0)"> </text><text xml:space="preserve" font-family="CourierNewPSMT" font-size="45.0" fill="#000000" transform="matrix(1.00, 0.00, -0.00, -1.00, 590.1, 110.0)">f</text><text xml:space="preserve" font-family="CourierNewPSMT" font-size="45.0" fill="#000000" transform="matrix(1.00, 0.00, -0.00, -1.00, 617.2, 110.0)">a</text><text xml:space="preserve" font-family="CourierNewPSMT" font-size="45.0" fill="#000000" transform="matrix(1.00, 0.00, -0.00, -1.00, 644.2, 110.0)">i</text><text xml:space="preserve" font-family="CourierNewPSMT" font-size="45.0" fill="#000000" transform="matrix(1.00, 0.00, -0.00, -1.00, 671.2, 110.0)">l</text><text xml:space="preserve" font-family="CourierNewPSMT" font-size="45.0" fill="#000000" transform="matrix(1.00, 0.00, -0.00, -1.00, 698.2, 110.0)">e</text><text xml:space="preserve" font-family="CourierNewPSMT" font-size="45.0" fill="#000000" transform="matrix(1.00, 0.00, -0.00, -1.00, 725.2, 110.0)">d</text><text xml:space="preserve" font-family="CourierNewPSMT" font-size="45.0" fill="#000000" transform="matrix(1.00, 0.00, -0.00, -1.00, 752.2, 110.0)">.</text><text xml:space="preserve" font-family="CourierNewPSMT" font-size="45.0" fill="#000000" transform="matrix(1.00, 0.00, -0.00, -1.00, 779.2, 110.0)">'</text><text xml:space="preserve" font-family="CourierNewPSMT" font-size="45.0" fill="#000000" transform="matrix(1.00, 0.00, -0.00, -1.00, 806.2, 110.0)"> </text><text xml:space="preserve" font-family="CourierNewPSMT" font-size="45.0" fill="#000000" transform="matrix(1.00, 0.00, -0.00, -1.00, 1.0, 59.0)"> </text><text xml:space="preserve" font-family="CourierNewPSMT" font-size="45.0" fill="#000000" transform="matrix(1.00, 0.00, -0.00, -1.00, 28.0, 59.0)"> </text><text xml:space="preserve" font-family="CourierNewPSMT" font-size="45.0" fill="#000000" transform="matrix(1.00, 0.00, -0.00, -1.00, 55.0, 59.0)"> </text><text xml:space="preserve" font-family="CourierNewPSMT" font-size="45.0" fill="#000000" transform="matrix(1.00, 0.00, -0.00, -1.00, 66.0, 59.0)">}</text><text xml:space="preserve" font-family="CourierNewPSMT" font-size="45.0" fill="#000000" transform="matrix(1.00, 0.00, -0.00, -1.00, 93.0, 59.0)"> </text><text xml:space="preserve" font-family="CourierNewPSMT" font-size="45.0" fill="#000000" transform="matrix(1.00, 0.00, -0.00, -1.00, 1.0, 8.0)">}</text></g></svg>