<?xml version="1.0" encoding="UTF-8" standalone="no"?><svg xmlns="http://www.w3.org/2000/svg" xmlns:xlink="http://www.w3.org/1999/xlink" clip-rule="evenodd" stroke-miterlimit="4.00" viewBox="0 0 1920 1080"><desc>SVG generated by Keynote</desc><defs></defs><g transform="matrix(1.00, 0.00, -0.00, -1.00, 0.0, 1080.0)"><path d="M 0.0 1080.0 L 1920.0 1080.0 L 1920.0 0.0 L 0.0 0.0 Z M 0.0 1080.0 " fill="#FEFFFF"></path><text xml:space="preserve" font-family="Helvetica-Light" font-size="99.7" fill="#000000" transform="matrix(1.00, 0.00, -0.00, -1.00, 144.0, 878.0)">I</text><text xml:space="preserve" font-family="Helvetica-Light" font-size="99.7" fill="#000000" transform="matrix(1.00, 0.00, -0.00, -1.00, 171.7, 878.0)">n</text><text xml:space="preserve" font-family="Helvetica-Light" font-size="99.7" fill="#000000" transform="matrix(1.00, 0.00, -0.00, -1.00, 227.1, 878.0)">t</text><text xml:space="preserve" font-family="Helvetica-Light" font-size="99.7" fill="#000000" transform="matrix(1.00, 0.00, -0.00, -1.00, 254.8, 878.0)">e</text><text xml:space="preserve" font-family="Helvetica-Light" font-size="99.7" fill="#000000" transform="matrix(1.00, 0.00, -0.00, -1.00, 310.3, 878.0)">r</text><text xml:space="preserve" font-family="Helvetica-Light" font-size="99.7" fill="#000000" transform="matrix(1.00, 0.00, -0.00, -1.00, 341.7, 878.0)">e</text><text xml:space="preserve" font-family="Helvetica-Light" font-size="99.7" fill="#000000" transform="matrix(1.00, 0.00, -0.00, -1.00, 397.1, 878.0)">s</text><text xml:space="preserve" font-family="Helvetica-Light" font-size="99.7" fill="#000000" transform="matrix(1.00, 0.00, -0.00, -1.00, 446.9, 878.0)">t</text><text xml:space="preserve" font-family="Helvetica-Light" font-size="99.7" fill="#000000" transform="matrix(1.00, 0.00, -0.00, -1.00, 474.6, 878.0)">i</text><text xml:space="preserve" font-family="Helvetica-Light" font-size="99.7" fill="#000000" transform="matrix(1.00, 0.00, -0.00, -1.00, 496.8, 878.0)">n</text><text xml:space="preserve" font-family="Helvetica-Light" font-size="99.7" fill="#000000" transform="matrix(1.00, 0.00, -0.00, -1.00, 552.2, 878.0)">g</text><text xml:space="preserve" font-family="Helvetica-Light" font-size="99.7" fill="#000000" transform="matrix(1.00, 0.00, -0.00, -1.00, 613.1, 878.0)"> </text><text xml:space="preserve" font-family="Helvetica-Light" font-size="99.7" fill="#000000" transform="matrix(1.00, 0.00, -0.00, -1.00, 640.8, 878.0)">T</text><text xml:space="preserve" font-family="Helvetica-Light" font-size="99.7" fill="#000000" transform="matrix(1.00, 0.00, -0.00, -1.00, 696.2, 878.0)">h</text><text xml:space="preserve" font-family="Helvetica-Light" font-size="99.7" fill="#000000" transform="matrix(1.00, 0.00, -0.00, -1.00, 751.6, 878.0)">i</text><text xml:space="preserve" font-family="Helvetica-Light" font-size="99.7" fill="#000000" transform="matrix(1.00, 0.00, -0.00, -1.00, 773.8, 878.0)">n</text><text xml:space="preserve" font-family="Helvetica-Light" font-size="99.7" fill="#000000" transform="matrix(1.00, 0.00, -0.00, -1.00, 829.2, 878.0)">g</text><text xml:space="preserve" font-family="Helvetica-Light" font-size="99.7" fill="#000000" transform="matrix(1.00, 0.00, -0.00, -1.00, 890.1, 878.0)">s</text><text xml:space="preserve" font-family="Helvetica-Light" font-size="99.7" fill="#000000" transform="matrix(1.00, 0.00, -0.00, -1.00, 939.9, 878.0)"> </text><text xml:space="preserve" font-family="Helvetica-Light" font-size="99.7" fill="#000000" transform="matrix(1.00, 0.00, -0.00, -1.00, 967.7, 878.0)">t</text><text xml:space="preserve" font-family="Helvetica-Light" font-size="99.7" fill="#000000" transform="matrix(1.00, 0.00, -0.00, -1.00, 995.4, 878.0)">o</text><text xml:space="preserve" font-family="Helvetica-Light" font-size="99.7" fill="#000000" transform="matrix(1.00, 0.00, -0.00, -1.00, 1050.8, 878.0)"> </text><text xml:space="preserve" font-family="Helvetica-Light" font-size="99.7" fill="#000000" transform="matrix(1.00, 0.00, -0.00, -1.00, 1078.5, 878.0)">D</text><text xml:space="preserve" font-family="Helvetica-Light" font-size="99.7" fill="#000000" transform="matrix(1.00, 0.00, -0.00, -1.00, 1150.5, 878.0)">o</text><text xml:space="preserve" font-family="Helvetica-Light" font-size="99.7" fill="#000000" transform="matrix(1.00, 0.00, -0.00, -1.00, 1205.9, 878.0)"> </text><text xml:space="preserve" font-family="Helvetica-Light" font-size="99.7" fill="#000000" transform="matrix(1.00, 0.00, -0.00, -1.00, 1233.6, 878.0)">i</text><text xml:space="preserve" font-family="Helvetica-Light" font-size="99.7" fill="#000000" transform="matrix(1.00, 0.00, -0.00, -1.00, 1255.7, 878.0)">n</text><text xml:space="preserve" font-family="Helvetica-Light" font-size="99.7" fill="#000000" transform="matrix(1.00, 0.00, -0.00, -1.00, 1311.2, 878.0)"> </text><text xml:space="preserve" font-family="Helvetica-Light" font-size="99.7" fill="#000000" transform="matrix(1.00, 0.00, -0.00, -1.00, 1338.9, 878.0)">a</text><text xml:space="preserve" font-family="Helvetica-Light" font-size="99.7" fill="#000000" transform="matrix(1.00, 0.00, -0.00, -1.00, 1394.3, 878.0)"> </text><text xml:space="preserve" font-family="Helvetica-Light" font-size="99.7" fill="#000000" transform="matrix(1.00, 0.00, -0.00, -1.00, 1422.0, 878.0)">P</text><text xml:space="preserve" font-family="Helvetica-Light" font-size="99.7" fill="#000000" transform="matrix(1.00, 0.00, -0.00, -1.00, 1482.9, 878.0)">i</text><text xml:space="preserve" font-family="Helvetica-Light" font-size="99.7" fill="#000000" transform="matrix(1.00, 0.00, -0.00, -1.00, 1505.0, 878.0)">p</text><text xml:space="preserve" font-family="Helvetica-Light" font-size="99.7" fill="#000000" transform="matrix(1.00, 0.00, -0.00, -1.00, 1565.9, 878.0)">e</text><text xml:space="preserve" font-family="Helvetica-Light" font-size="99.7" fill="#000000" transform="matrix(1.00, 0.00, -0.00, -1.00, 1621.4, 878.0)">l</text><text xml:space="preserve" font-family="Helvetica-Light" font-size="99.7" fill="#000000" transform="matrix(1.00, 0.00, -0.00, -1.00, 1643.5, 878.0)">i</text><text xml:space="preserve" font-family="Helvetica-Light" font-size="99.7" fill="#000000" transform="matrix(1.00, 0.00, -0.00, -1.00, 1665.6, 878.0)">n</text><text xml:space="preserve" font-family="Helvetica-Light" font-size="99.7" fill="#000000" transform="matrix(1.00, 0.00, -0.00, -1.00, 1721.0, 878.0)">e</text><text xml:space="preserve" font-family="CourierNewPSMT" font-size="45.0" fill="#000000" transform="matrix(1.00, 0.00, -0.00, -1.00, 629.0, 681.0)">p</text><text xml:space="preserve" font-family="CourierNewPSMT" font-size="45.0" fill="#000000" transform="matrix(1.00, 0.00, -0.00, -1.00, 656.0, 681.0)">o</text><text xml:space="preserve" font-family="CourierNewPSMT" font-size="45.0" fill="#000000" transform="matrix(1.00, 0.00, -0.00, -1.00, 683.0, 681.0)">s</text><text xml:space="preserve" font-family="CourierNewPSMT" font-size="45.0" fill="#000000" transform="matrix(1.00, 0.00, -0.00, -1.00, 710.0, 681.0)">t</text><text xml:space="preserve" font-family="CourierNewPSMT" font-size="45.0" fill="#000000" transform="matrix(1.00, 0.00, -0.00, -1.00, 737.0, 681.0)"> </text><text xml:space="preserve" font-family="CourierNewPSMT" font-size="45.0" fill="#000000" transform="matrix(1.00, 0.00, -0.00, -1.00, 629.0, 630.0)">{</text><text xml:space="preserve" font-family="CourierNewPSMT" font-size="45.0" fill="#000000" transform="matrix(1.00, 0.00, -0.00, -1.00, 656.0, 630.0)"> </text><text xml:space="preserve" font-family="CourierNewPSMT" font-size="45.0" fill="#000000" transform="matrix(1.00, 0.00, -0.00, -1.00, 629.0, 579.0)"> </text><text xml:space="preserve" font-family="CourierNewPSMT" font-size="45.0" fill="#000000" transform="matrix(1.00, 0.00, -0.00, -1.00, 656.0, 579.0)"> </text><text xml:space="preserve" font-family="CourierNewPSMT" font-size="45.0" fill="#000000" transform="matrix(1.00, 0.00, -0.00, -1.00, 683.0, 579.0)"> </text><text xml:space="preserve" font-family="CourierNewPSMT" font-size="45.0" fill="#000000" transform="matrix(1.00, 0.00, -0.00, -1.00, 694.0, 579.0)">u</text><text xml:space="preserve" font-family="CourierNewPSMT" font-size="45.0" fill="#000000" transform="matrix(1.00, 0.00, -0.00, -1.00, 721.0, 579.0)">n</text><text xml:space="preserve" font-family="CourierNewPSMT" font-size="45.0" fill="#000000" transform="matrix(1.00, 0.00, -0.00, -1.00, 748.0, 579.0)">s</text><text xml:space="preserve" font-family="CourierNewPSMT" font-size="45.0" fill="#000000" transform="matrix(1.00, 0.00, -0.00, -1.00, 775.0, 579.0)">t</text><text xml:space="preserve" font-family="CourierNewPSMT" font-size="45.0" fill="#000000" transform="matrix(1.00, 0.00, -0.00, -1.00, 802.0, 579.0)">a</text><text xml:space="preserve" font-family="CourierNewPSMT" font-size="45.0" fill="#000000" transform="matrix(1.00, 0.00, -0.00, -1.00, 829.1, 579.0)">b</text><text xml:space="preserve" font-family="CourierNewPSMT" font-size="45.0" fill="#000000" transform="matrix(1.00, 0.00, -0.00, -1.00, 856.1, 579.0)">l</text><text xml:space="preserve" font-family="CourierNewPSMT" font-size="45.0" fill="#000000" transform="matrix(1.00, 0.00, -0.00, -1.00, 883.1, 579.0)">e</text><text xml:space="preserve" font-family="CourierNewPSMT" font-size="45.0" fill="#000000" transform="matrix(1.00, 0.00, -0.00, -1.00, 910.1, 579.0)"> </text><text xml:space="preserve" font-family="CourierNewPSMT" font-size="45.0" fill="#000000" transform="matrix(1.00, 0.00, -0.00, -1.00, 629.0, 528.0)"> </text><text xml:space="preserve" font-family="CourierNewPSMT" font-size="45.0" fill="#000000" transform="matrix(1.00, 0.00, -0.00, -1.00, 656.0, 528.0)"> </text><text xml:space="preserve" font-family="CourierNewPSMT" font-size="45.0" fill="#000000" transform="matrix(1.00, 0.00, -0.00, -1.00, 683.0, 528.0)"> </text><text xml:space="preserve" font-family="CourierNewPSMT" font-size="45.0" fill="#000000" transform="matrix(1.00, 0.00, -0.00, -1.00, 694.0, 528.0)">{</text><text xml:space="preserve" font-family="CourierNewPSMT" font-size="45.0" fill="#000000" transform="matrix(1.00, 0.00, -0.00, -1.00, 721.0, 528.0)"> </text><text xml:space="preserve" font-family="CourierNewPSMT" font-size="45.0" fill="#000000" transform="matrix(1.00, 0.00, -0.00, -1.00, 629.0, 477.0)"> </text><text xml:space="preserve" font-family="CourierNewPSMT" font-size="45.0" fill="#000000" transform="matrix(1.00, 0.00, -0.00, -1.00, 656.0, 477.0)"> </text><text xml:space="preserve" font-family="CourierNewPSMT" font-size="45.0" fill="#000000" transform="matrix(1.00, 0.00, -0.00, -1.00, 683.0, 477.0)"> </text><text xml:space="preserve" font-family="CourierNewPSMT" font-size="45.0" fill="#000000" transform="matrix(1.00, 0.00, -0.00, -1.00, 694.0, 477.0)"> </text><text xml:space="preserve" font-family="CourierNewPSMT" font-size="45.0" fill="#000000" transform="matrix(1.00, 0.00, -0.00, -1.00, 759.0, 477.0)">e</text><text xml:space="preserve" font-family="CourierNewPSMT" font-size="45.0" fill="#000000" transform="matrix(1.00, 0.00, -0.00, -1.00, 786.0, 477.0)">c</text><text xml:space="preserve" font-family="CourierNewPSMT" font-size="45.0" fill="#000000" transform="matrix(1.00, 0.00, -0.00, -1.00, 813.0, 477.0)">h</text><text xml:space="preserve" font-family="CourierNewPSMT" font-size="45.0" fill="#000000" transform="matrix(1.00, 0.00, -0.00, -1.00, 840.0, 477.0)">o</text><text xml:space="preserve" font-family="CourierNewPSMT" font-size="45.0" fill="#000000" transform="matrix(1.00, 0.00, -0.00, -1.00, 867.0, 477.0)"> </text><text xml:space="preserve" font-family="CourierNewPSMT" font-size="45.0" fill="#000000" transform="matrix(1.00, 0.00, -0.00, -1.00, 894.0, 477.0)">'</text><text xml:space="preserve" font-family="CourierNewPSMT" font-size="45.0" fill="#000000" transform="matrix(1.00, 0.00, -0.00, -1.00, 921.0, 477.0)">U</text><text xml:space="preserve" font-family="CourierNewPSMT" font-size="45.0" fill="#000000" transform="matrix(1.00, 0.00, -0.00, -1.00, 948.1, 477.0)">n</text><text xml:space="preserve" font-family="CourierNewPSMT" font-size="45.0" fill="#000000" transform="matrix(1.00, 0.00, -0.00, -1.00, 975.1, 477.0)">i</text><text xml:space="preserve" font-family="CourierNewPSMT" font-size="45.0" fill="#000000" transform="matrix(1.00, 0.00, -0.00, -1.00, 1002.1, 477.0)">t</text><text xml:space="preserve" font-family="CourierNewPSMT" font-size="45.0" fill="#000000" transform="matrix(1.00, 0.00, -0.00, -1.00, 1029.1, 477.0)"> </text><text xml:space="preserve" font-family="CourierNewPSMT" font-size="45.0" fill="#000000" transform="matrix(1.00, 0.00, -0.00, -1.00, 1056.1, 477.0)">t</text><text xml:space="preserve" font-family="CourierNewPSMT" font-size="45.0" fill="#000000" transform="matrix(1.00, 0.00, -0.00, -1.00, 1083.1, 477.0)">e</text><text xml:space="preserve" font-family="CourierNewPSMT" font-size="45.0" fill="#000000" transform="matrix(1.00, 0.00, -0.00, -1.00, 1110.1, 477.0)">s</text><text xml:space="preserve" font-family="CourierNewPSMT" font-size="45.0" fill="#000000" transform="matrix(1.00, 0.00, -0.00, -1.00, 1137.1, 477.0)">t</text><text xml:space="preserve" font-family="CourierNewPSMT" font-size="45.0" fill="#000000" transform="matrix(1.00, 0.00, -0.00, -1.00, 1164.1, 477.0)">s</text><text xml:space="preserve" font-family="CourierNewPSMT" font-size="45.0" fill="#000000" transform="matrix(1.00, 0.00, -0.00, -1.00, 1191.1, 477.0)"> </text><text xml:space="preserve" font-family="CourierNewPSMT" font-size="45.0" fill="#000000" transform="matrix(1.00, 0.00, -0.00, -1.00, 1218.1, 477.0)">f</text><text xml:space="preserve" font-family="CourierNewPSMT" font-size="45.0" fill="#000000" transform="matrix(1.00, 0.00, -0.00, -1.00, 1245.2, 477.0)">a</text><text xml:space="preserve" font-family="CourierNewPSMT" font-size="45.0" fill="#000000" transform="matrix(1.00, 0.00, -0.00, -1.00, 1272.2, 477.0)">i</text><text xml:space="preserve" font-family="CourierNewPSMT" font-size="45.0" fill="#000000" transform="matrix(1.00, 0.00, -0.00, -1.00, 1299.2, 477.0)">l</text><text xml:space="preserve" font-family="CourierNewPSMT" font-size="45.0" fill="#000000" transform="matrix(1.00, 0.00, -0.00, -1.00, 1326.2, 477.0)">e</text><text xml:space="preserve" font-family="CourierNewPSMT" font-size="45.0" fill="#000000" transform="matrix(1.00, 0.00, -0.00, -1.00, 1353.2, 477.0)">d</text><text xml:space="preserve" font-family="CourierNewPSMT" font-size="45.0" fill="#000000" transform="matrix(1.00, 0.00, -0.00, -1.00, 1380.2, 477.0)">.</text><text xml:space="preserve" font-family="CourierNewPSMT" font-size="45.0" fill="#000000" transform="matrix(1.00, 0.00, -0.00, -1.00, 1407.2, 477.0)">'</text><text xml:space="preserve" font-family="CourierNewPSMT" font-size="45.0" fill="#000000" transform="matrix(1.00, 0.00, -0.00, -1.00, 1434.2, 477.0)"> </text><text xml:space="preserve" font-family="CourierNewPSMT" font-size="45.0" fill="#000000" transform="matrix(1.00, 0.00, -0.00, -1.00, 629.0, 426.0)"> </text><text xml:space="preserve" font-family="CourierNewPSMT" font-size="45.0" fill="#000000" transform="matrix(1.00, 0.00, -0.00, -1.00, 656.0, 426.0)"> </text><text xml:space="preserve" font-family="CourierNewPSMT" font-size="45.0" fill="#000000" transform="matrix(1.00, 0.00, -0.00, -1.00, 683.0, 426.0)"> </text><text xml:space="preserve" font-family="CourierNewPSMT" font-size="45.0" fill="#000000" transform="matrix(1.00, 0.00, -0.00, -1.00, 694.0, 426.0)">}</text><text xml:space="preserve" font-family="CourierNewPSMT" font-size="45.0" fill="#000000" transform="matrix(1.00, 0.00, -0.00, -1.00, 721.0, 426.0)"> </text><text xml:space="preserve" font-family="CourierNewPSMT" font-size="45.0" fill="#000000" transform="matrix(1.00, 0.00, -0.00, -1.00, 629.0, 375.0)">}</text></g></svg>