<?xml version="1.0" encoding="UTF-8" standalone="no"?><svg xmlns="http://www.w3.org/2000/svg" xmlns:xlink="http://www.w3.org/1999/xlink" clip-rule="evenodd" stroke-miterlimit="4.00" viewBox="0 0 517 173"><desc>SVG generated by Keynote</desc><defs><pattern id="B0C9C835-116E-4D88-A02A-249124A9B7E4" patternUnits="userSpaceOnUse" width="314" height="314" viewBox="0 0 314 314" patternTransform="matrix(0.955414, 0.000000, 0.000000, -0.955414, 6.809082, 167.002000)"><image xlink:href="../../161B0B54-7FD3-4E94-A586-B260162458D2/assets/D57DAEBAD5B9C4DEC467607E5B2312B7.jpeg" width="314.00" height="314.00"></image></pattern></defs><g transform="matrix(1.00, 0.00, -0.00, -1.00, 0.0, 173.0)"><image xlink:href="2D0A1BEB8CC9F69AEA8DEDBCFFE57C90.png" width="512.00" height="170.00" transform="matrix(1.00, 0.00, -0.00, -1.00, 3.8, 171.0)" opacity="0.50"></image><g><clipPath id="clip-572"><path d="M 207.7 167.0 C 203.2 167.0 199.6 163.4 199.6 158.9 L 199.6 97.7 L 6.8 81.5 L 199.6 65.4 L 199.6 13.6 C 199.6 9.1 203.2 5.5 207.7 5.5 L 502.8 5.5 C 507.2 5.5 510.9 9.1 510.9 13.6 L 510.9 158.9 C 510.9 163.4 507.2 167.0 502.8 167.0 L 207.7 167.0 Z M 207.7 167.0 "></path></clipPath><g clip-path="url(#clip-572)"><path d="M 6.8 5.5 L 510.9 5.5 L 510.9 167.0 L 6.8 167.0 Z M 6.8 5.5 " fill="url(#B0C9C835-116E-4D88-A02A-249124A9B7E4)"></path><path d="M 6.8 167.0 L 510.9 167.0 L 510.9 5.5 L 6.8 5.5 Z M 6.8 167.0 " fill="#00D026" fill-opacity="0.50"></path></g></g><g><clipPath id="clip-573"><path d="M 195.6 5.5 L 514.9 5.5 L 514.9 167.0 L 195.6 167.0 Z M 195.6 5.5 "></path></clipPath><g clip-path="url(#clip-573)"><text xml:space="preserve" font-family="Helvetica-Bold" font-weight="bold" font-size="32.0" fill="#FEFFFE" transform="matrix(1.00, 0.00, -0.00, -1.00, 247.0, 75.0)">S</text><text xml:space="preserve" font-family="Helvetica-Bold" font-weight="bold" font-size="32.0" fill="#FEFFFE" transform="matrix(1.00, 0.00, -0.00, -1.00, 268.3, 75.0)">t</text><text xml:space="preserve" font-family="Helvetica-Bold" font-weight="bold" font-size="32.0" fill="#FEFFFE" transform="matrix(1.00, 0.00, -0.00, -1.00, 279.0, 75.0)">e</text><text xml:space="preserve" font-family="Helvetica-Bold" font-weight="bold" font-size="32.0" fill="#FEFFFE" transform="matrix(1.00, 0.00, -0.00, -1.00, 296.8, 75.0)">p</text><text xml:space="preserve" font-family="Helvetica-Bold" font-weight="bold" font-size="32.0" fill="#FEFFFE" transform="matrix(1.00, 0.00, -0.00, -1.00, 316.3, 75.0)"> </text><text xml:space="preserve" font-family="Helvetica-Bold" font-weight="bold" font-size="32.0" fill="#FEFFFE" transform="matrix(1.00, 0.00, -0.00, -1.00, 325.2, 75.0)">e</text><text xml:space="preserve" font-family="Helvetica-Bold" font-weight="bold" font-size="32.0" fill="#FEFFFE" transform="matrix(1.00, 0.00, -0.00, -1.00, 343.0, 75.0)">x</text><text xml:space="preserve" font-family="Helvetica-Bold" font-weight="bold" font-size="32.0" fill="#FEFFFE" transform="matrix(1.00, 0.00, -0.00, -1.00, 360.8, 75.0)">e</text><text xml:space="preserve" font-family="Helvetica-Bold" font-weight="bold" font-size="32.0" fill="#FEFFFE" transform="matrix(1.00, 0.00, -0.00, -1.00, 378.6, 75.0)">c</text><text xml:space="preserve" font-family="Helvetica-Bold" font-weight="bold" font-size="32.0" fill="#FEFFFE" transform="matrix(1.00, 0.00, -0.00, -1.00, 396.4, 75.0)">u</text><text xml:space="preserve" font-family="Helvetica-Bold" font-weight="bold" font-size="32.0" fill="#FEFFFE" transform="matrix(1.00, 0.00, -0.00, -1.00, 416.0, 75.0)">t</text><text xml:space="preserve" font-family="Helvetica-Bold" font-weight="bold" font-size="32.0" fill="#FEFFFE" transform="matrix(1.00, 0.00, -0.00, -1.00, 426.6, 75.0)">e</text><text xml:space="preserve" font-family="Helvetica-Bold" font-weight="bold" font-size="32.0" fill="#FEFFFE" transform="matrix(1.00, 0.00, -0.00, -1.00, 444.4, 75.0)">d</text></g></g></g></svg>