<?xml version="1.0" encoding="UTF-8" standalone="no"?><svg xmlns="http://www.w3.org/2000/svg" xmlns:xlink="http://www.w3.org/1999/xlink" clip-rule="evenodd" stroke-miterlimit="4.00" viewBox="0 0 265 45"><desc>SVG generated by Keynote</desc><defs></defs><g transform="matrix(1.00, 0.00, -0.00, -1.00, 0.0, 45.0)"><text xml:space="preserve" font-family="Helvetica-Light" font-size="33.8" fill="#000000" transform="matrix(1.00, 0.00, -0.00, -1.00, 0.0, 14.7)">•</text><text xml:space="preserve" font-family="Helvetica-Light" font-size="45.0" fill="#000000" transform="matrix(1.00, 0.00, -0.00, -1.00, 44.0, 11.0)">R</text><text xml:space="preserve" font-family="Helvetica-Light" font-size="45.0" fill="#000000" transform="matrix(1.00, 0.00, -0.00, -1.00, 74.0, 11.0)">e</text><text xml:space="preserve" font-family="Helvetica-Light" font-size="45.0" fill="#000000" transform="matrix(1.00, 0.00, -0.00, -1.00, 99.0, 11.0)">u</text><text xml:space="preserve" font-family="Helvetica-Light" font-size="45.0" fill="#000000" transform="matrix(1.00, 0.00, -0.00, -1.00, 124.1, 11.0)">s</text><text xml:space="preserve" font-family="Helvetica-Light" font-size="45.0" fill="#000000" transform="matrix(1.00, 0.00, -0.00, -1.00, 146.6, 11.0)">a</text><text xml:space="preserve" font-family="Helvetica-Light" font-size="45.0" fill="#000000" transform="matrix(1.00, 0.00, -0.00, -1.00, 171.6, 11.0)">b</text><text xml:space="preserve" font-family="Helvetica-Light" font-size="45.0" fill="#000000" transform="matrix(1.00, 0.00, -0.00, -1.00, 199.1, 11.0)">i</text><text xml:space="preserve" font-family="Helvetica-Light" font-size="45.0" fill="#000000" transform="matrix(1.00, 0.00, -0.00, -1.00, 209.1, 11.0)">l</text><text xml:space="preserve" font-family="Helvetica-Light" font-size="45.0" fill="#000000" transform="matrix(1.00, 0.00, -0.00, -1.00, 219.1, 11.0)">i</text><text xml:space="preserve" font-family="Helvetica-Light" font-size="45.0" fill="#000000" transform="matrix(1.00, 0.00, -0.00, -1.00, 229.0, 11.0)">t</text><text xml:space="preserve" font-family="Helvetica-Light" font-size="45.0" fill="#000000" transform="matrix(1.00, 0.00, -0.00, -1.00, 241.6, 11.0)">y</text></g></svg>