<?xml version="1.0" encoding="UTF-8" standalone="no"?><svg xmlns="http://www.w3.org/2000/svg" xmlns:xlink="http://www.w3.org/1999/xlink" clip-rule="evenodd" stroke-miterlimit="4.00" viewBox="0 0 361 57"><desc>SVG generated by Keynote</desc><defs></defs><g transform="matrix(1.00, 0.00, -0.00, -1.00, 0.0, 57.0)"><text xml:space="preserve" font-family="Helvetica-Light" font-size="72.0" fill="#000000" transform="matrix(1.00, 0.00, -0.00, -1.00, 0.0, 3.0)">J</text><text xml:space="preserve" font-family="Helvetica-Light" font-size="72.0" fill="#000000" transform="matrix(1.00, 0.00, -0.00, -1.00, 36.0, 3.0)">e</text><text xml:space="preserve" font-family="Helvetica-Light" font-size="72.0" fill="#000000" transform="matrix(1.00, 0.00, -0.00, -1.00, 76.0, 3.0)">n</text><text xml:space="preserve" font-family="Helvetica-Light" font-size="72.0" fill="#000000" transform="matrix(1.00, 0.00, -0.00, -1.00, 116.1, 3.0)">k</text><text xml:space="preserve" font-family="Helvetica-Light" font-size="72.0" fill="#000000" transform="matrix(1.00, 0.00, -0.00, -1.00, 152.1, 3.0)">i</text><text xml:space="preserve" font-family="Helvetica-Light" font-size="72.0" fill="#000000" transform="matrix(1.00, 0.00, -0.00, -1.00, 168.0, 3.0)">n</text><text xml:space="preserve" font-family="Helvetica-Light" font-size="72.0" fill="#000000" transform="matrix(1.00, 0.00, -0.00, -1.00, 208.1, 3.0)">s</text><text xml:space="preserve" font-family="Helvetica-Light" font-size="72.0" fill="#000000" transform="matrix(1.00, 0.00, -0.00, -1.00, 244.1, 3.0)"> </text><text xml:space="preserve" font-family="Helvetica-Light" font-size="72.0" fill="#000000" transform="matrix(1.00, 0.00, -0.00, -1.00, 264.1, 3.0)">2</text><text xml:space="preserve" font-family="Helvetica-Light" font-size="72.0" fill="#000000" transform="matrix(1.00, 0.00, -0.00, -1.00, 304.1, 3.0)">.</text><text xml:space="preserve" font-family="Helvetica-Light" font-size="72.0" fill="#000000" transform="matrix(1.00, 0.00, -0.00, -1.00, 324.1, 3.0)">x</text></g></svg>