<?xml version="1.0" encoding="UTF-8" standalone="no"?><svg xmlns="http://www.w3.org/2000/svg" xmlns:xlink="http://www.w3.org/1999/xlink" clip-rule="evenodd" stroke-miterlimit="4.00" viewBox="0 0 325 240"><desc>SVG generated by Keynote</desc><defs><pattern id="3C28AAD8-1B8B-42E1-8065-312B5AFE7C01" patternUnits="userSpaceOnUse" width="314" height="314" viewBox="0 0 314 314" patternTransform="matrix(0.955414, 0.000000, 0.000000, -0.955414, 6.892822, 234.480800)"><image xlink:href="../../161B0B54-7FD3-4E94-A586-B260162458D2/assets/D57DAEBAD5B9C4DEC467607E5B2312B7.jpeg" width="314.00" height="314.00"></image></pattern></defs><g transform="matrix(1.00, 0.00, -0.00, -1.00, 0.0, 240.0)"><image xlink:href="7FE92A378AAD8FADC599518A0928F2E5.png" width="319.00" height="237.00" transform="matrix(1.00, 0.00, -0.00, -1.00, 3.9, 238.5)" opacity="0.50"></image><g><clipPath id="clip-698"><path d="M 95.3 234.5 L 79.1 123.5 L 15.0 123.5 C 10.5 123.5 6.9 119.9 6.9 115.4 L 6.9 13.3 C 6.9 8.8 10.5 5.2 15.0 5.2 L 310.1 5.2 C 314.5 5.2 318.2 8.8 318.2 13.3 L 318.2 115.4 C 318.2 119.9 314.5 123.5 310.1 123.5 L 111.4 123.5 L 95.3 234.5 Z M 95.3 234.5 "></path></clipPath><g clip-path="url(#clip-698)"><path d="M 6.9 5.2 L 318.2 5.2 L 318.2 234.5 L 6.9 234.5 Z M 6.9 5.2 " fill="url(#3C28AAD8-1B8B-42E1-8065-312B5AFE7C01)"></path><path d="M 6.9 234.5 L 318.2 234.5 L 318.2 5.2 L 6.9 5.2 Z M 6.9 234.5 " fill="#00D026" fill-opacity="0.50"></path></g></g><g><clipPath id="clip-699"><path d="M 2.9 5.2 L 322.2 5.2 L 322.2 123.5 L 2.9 123.5 Z M 2.9 5.2 "></path></clipPath><g clip-path="url(#clip-699)"><text xml:space="preserve" font-family="Helvetica-Bold" font-weight="bold" font-size="32.0" fill="#FEFFFE" transform="matrix(1.00, 0.00, -0.00, -1.00, 42.0, 53.0)">U</text><text xml:space="preserve" font-family="Helvetica-Bold" font-weight="bold" font-size="32.0" fill="#FEFFFE" transform="matrix(1.00, 0.00, -0.00, -1.00, 65.1, 53.0)">s</text><text xml:space="preserve" font-family="Helvetica-Bold" font-weight="bold" font-size="32.0" fill="#FEFFFE" transform="matrix(1.00, 0.00, -0.00, -1.00, 82.9, 53.0)">e</text><text xml:space="preserve" font-family="Helvetica-Bold" font-weight="bold" font-size="32.0" fill="#FEFFFE" transform="matrix(1.00, 0.00, -0.00, -1.00, 100.7, 53.0)"> </text><text xml:space="preserve" font-family="Helvetica-Bold" font-weight="bold" font-size="32.0" fill="#FEFFFE" transform="matrix(1.00, 0.00, -0.00, -1.00, 109.6, 53.0)">p</text><text xml:space="preserve" font-family="Helvetica-Bold" font-weight="bold" font-size="32.0" fill="#FEFFFE" transform="matrix(1.00, 0.00, -0.00, -1.00, 129.1, 53.0)">a</text><text xml:space="preserve" font-family="Helvetica-Bold" font-weight="bold" font-size="32.0" fill="#FEFFFE" transform="matrix(1.00, 0.00, -0.00, -1.00, 147.0, 53.0)">r</text><text xml:space="preserve" font-family="Helvetica-Bold" font-weight="bold" font-size="32.0" fill="#FEFFFE" transform="matrix(1.00, 0.00, -0.00, -1.00, 159.4, 53.0)">a</text><text xml:space="preserve" font-family="Helvetica-Bold" font-weight="bold" font-size="32.0" fill="#FEFFFE" transform="matrix(1.00, 0.00, -0.00, -1.00, 177.2, 53.0)">m</text><text xml:space="preserve" font-family="Helvetica-Bold" font-weight="bold" font-size="32.0" fill="#FEFFFE" transform="matrix(1.00, 0.00, -0.00, -1.00, 205.7, 53.0)">e</text><text xml:space="preserve" font-family="Helvetica-Bold" font-weight="bold" font-size="32.0" fill="#FEFFFE" transform="matrix(1.00, 0.00, -0.00, -1.00, 223.5, 53.0)">t</text><text xml:space="preserve" font-family="Helvetica-Bold" font-weight="bold" font-size="32.0" fill="#FEFFFE" transform="matrix(1.00, 0.00, -0.00, -1.00, 234.1, 53.0)">e</text><text xml:space="preserve" font-family="Helvetica-Bold" font-weight="bold" font-size="32.0" fill="#FEFFFE" transform="matrix(1.00, 0.00, -0.00, -1.00, 251.9, 53.0)">r</text><text xml:space="preserve" font-family="Helvetica-Bold" font-weight="bold" font-size="32.0" fill="#FEFFFE" transform="matrix(1.00, 0.00, -0.00, -1.00, 264.4, 53.0)">s</text></g></g></g></svg>