<?xml version="1.0" encoding="UTF-8" standalone="no"?><svg xmlns="http://www.w3.org/2000/svg" xmlns:xlink="http://www.w3.org/1999/xlink" clip-rule="evenodd" stroke-miterlimit="4.00" viewBox="0 0 1244 600"><desc>SVG generated by Keynote</desc><defs></defs><g transform="matrix(1.00, 0.00, -0.00, -1.00, 0.0, 600.0)"><text xml:space="preserve" font-family="CourierNewPSMT" font-size="45.0" fill="#000000" transform="matrix(1.00, 0.00, -0.00, -1.00, 1.0, 569.0)">@</text><text xml:space="preserve" font-family="CourierNewPSMT" font-size="45.0" fill="#000000" transform="matrix(1.00, 0.00, -0.00, -1.00, 28.0, 569.0)">L</text><text xml:space="preserve" font-family="CourierNewPSMT" font-size="45.0" fill="#000000" transform="matrix(1.00, 0.00, -0.00, -1.00, 55.0, 569.0)">i</text><text xml:space="preserve" font-family="CourierNewPSMT" font-size="45.0" fill="#000000" transform="matrix(1.00, 0.00, -0.00, -1.00, 82.0, 569.0)">b</text><text xml:space="preserve" font-family="CourierNewPSMT" font-size="45.0" fill="#000000" transform="matrix(1.00, 0.00, -0.00, -1.00, 109.0, 569.0)">r</text><text xml:space="preserve" font-family="CourierNewPSMT" font-size="45.0" fill="#000000" transform="matrix(1.00, 0.00, -0.00, -1.00, 136.0, 569.0)">a</text><text xml:space="preserve" font-family="CourierNewPSMT" font-size="45.0" fill="#000000" transform="matrix(1.00, 0.00, -0.00, -1.00, 163.1, 569.0)">r</text><text xml:space="preserve" font-family="CourierNewPSMT" font-size="45.0" fill="#000000" transform="matrix(1.00, 0.00, -0.00, -1.00, 190.1, 569.0)">y</text><text xml:space="preserve" font-family="CourierNewPSMT" font-size="45.0" fill="#000000" transform="matrix(1.00, 0.00, -0.00, -1.00, 217.1, 569.0)">(</text><text xml:space="preserve" font-family="CourierNewPSMT" font-size="45.0" fill="#000000" transform="matrix(1.00, 0.00, -0.00, -1.00, 244.1, 569.0)">'</text><text xml:space="preserve" font-family="CourierNewPSMT" font-size="45.0" fill="#000000" transform="matrix(1.00, 0.00, -0.00, -1.00, 271.1, 569.0)">s</text><text xml:space="preserve" font-family="CourierNewPSMT" font-size="45.0" fill="#000000" transform="matrix(1.00, 0.00, -0.00, -1.00, 298.1, 569.0)">p</text><text xml:space="preserve" font-family="CourierNewPSMT" font-size="45.0" fill="#000000" transform="matrix(1.00, 0.00, -0.00, -1.00, 325.1, 569.0)">a</text><text xml:space="preserve" font-family="CourierNewPSMT" font-size="45.0" fill="#000000" transform="matrix(1.00, 0.00, -0.00, -1.00, 352.1, 569.0)">r</text><text xml:space="preserve" font-family="CourierNewPSMT" font-size="45.0" fill="#000000" transform="matrix(1.00, 0.00, -0.00, -1.00, 379.1, 569.0)">k</text><text xml:space="preserve" font-family="CourierNewPSMT" font-size="45.0" fill="#000000" transform="matrix(1.00, 0.00, -0.00, -1.00, 406.1, 569.0)">'</text><text xml:space="preserve" font-family="CourierNewPSMT" font-size="45.0" fill="#000000" transform="matrix(1.00, 0.00, -0.00, -1.00, 433.1, 569.0)">)</text><text xml:space="preserve" font-family="CourierNewPSMT" font-size="45.0" fill="#000000" transform="matrix(1.00, 0.00, -0.00, -1.00, 460.1, 569.0)"> </text><text xml:space="preserve" font-family="CourierNewPSMT" font-size="45.0" fill="#000000" transform="matrix(1.00, 0.00, -0.00, -1.00, 1.0, 518.0)">i</text><text xml:space="preserve" font-family="CourierNewPSMT" font-size="45.0" fill="#000000" transform="matrix(1.00, 0.00, -0.00, -1.00, 28.0, 518.0)">m</text><text xml:space="preserve" font-family="CourierNewPSMT" font-size="45.0" fill="#000000" transform="matrix(1.00, 0.00, -0.00, -1.00, 55.0, 518.0)">p</text><text xml:space="preserve" font-family="CourierNewPSMT" font-size="45.0" fill="#000000" transform="matrix(1.00, 0.00, -0.00, -1.00, 82.0, 518.0)">o</text><text xml:space="preserve" font-family="CourierNewPSMT" font-size="45.0" fill="#000000" transform="matrix(1.00, 0.00, -0.00, -1.00, 109.0, 518.0)">r</text><text xml:space="preserve" font-family="CourierNewPSMT" font-size="45.0" fill="#000000" transform="matrix(1.00, 0.00, -0.00, -1.00, 136.0, 518.0)">t</text><text xml:space="preserve" font-family="CourierNewPSMT" font-size="45.0" fill="#000000" transform="matrix(1.00, 0.00, -0.00, -1.00, 163.1, 518.0)"> </text><text xml:space="preserve" font-family="CourierNewPSMT" font-size="45.0" fill="#000000" transform="matrix(1.00, 0.00, -0.00, -1.00, 190.1, 518.0)">r</text><text xml:space="preserve" font-family="CourierNewPSMT" font-size="45.0" fill="#000000" transform="matrix(1.00, 0.00, -0.00, -1.00, 217.1, 518.0)">e</text><text xml:space="preserve" font-family="CourierNewPSMT" font-size="45.0" fill="#000000" transform="matrix(1.00, 0.00, -0.00, -1.00, 244.1, 518.0)">p</text><text xml:space="preserve" font-family="CourierNewPSMT" font-size="45.0" fill="#000000" transform="matrix(1.00, 0.00, -0.00, -1.00, 271.1, 518.0)">e</text><text xml:space="preserve" font-family="CourierNewPSMT" font-size="45.0" fill="#000000" transform="matrix(1.00, 0.00, -0.00, -1.00, 298.1, 518.0)">a</text><text xml:space="preserve" font-family="CourierNewPSMT" font-size="45.0" fill="#000000" transform="matrix(1.00, 0.00, -0.00, -1.00, 325.1, 518.0)">t</text><text xml:space="preserve" font-family="CourierNewPSMT" font-size="45.0" fill="#000000" transform="matrix(1.00, 0.00, -0.00, -1.00, 352.1, 518.0)">M</text><text xml:space="preserve" font-family="CourierNewPSMT" font-size="45.0" fill="#000000" transform="matrix(1.00, 0.00, -0.00, -1.00, 379.1, 518.0)">e</text><text xml:space="preserve" font-family="CourierNewPSMT" font-size="45.0" fill="#000000" transform="matrix(1.00, 0.00, -0.00, -1.00, 406.1, 518.0)">s</text><text xml:space="preserve" font-family="CourierNewPSMT" font-size="45.0" fill="#000000" transform="matrix(1.00, 0.00, -0.00, -1.00, 433.1, 518.0)">s</text><text xml:space="preserve" font-family="CourierNewPSMT" font-size="45.0" fill="#000000" transform="matrix(1.00, 0.00, -0.00, -1.00, 460.2, 518.0)">a</text><text xml:space="preserve" font-family="CourierNewPSMT" font-size="45.0" fill="#000000" transform="matrix(1.00, 0.00, -0.00, -1.00, 487.2, 518.0)">g</text><text xml:space="preserve" font-family="CourierNewPSMT" font-size="45.0" fill="#000000" transform="matrix(1.00, 0.00, -0.00, -1.00, 514.2, 518.0)">e</text><text xml:space="preserve" font-family="CourierNewPSMT" font-size="45.0" fill="#000000" transform="matrix(1.00, 0.00, -0.00, -1.00, 541.2, 518.0)"> </text><text xml:space="preserve" font-family="CourierNewPSMT" font-size="45.0" fill="#000000" transform="matrix(1.00, 0.00, -0.00, -1.00, 1.0, 467.0)">.</text><text xml:space="preserve" font-family="CourierNewPSMT" font-size="45.0" fill="#000000" transform="matrix(1.00, 0.00, -0.00, -1.00, 28.0, 467.0)"> </text><text xml:space="preserve" font-family="CourierNewPSMT" font-size="45.0" fill="#000000" transform="matrix(1.00, 0.00, -0.00, -1.00, 1.0, 416.0)">.</text><text xml:space="preserve" font-family="CourierNewPSMT" font-size="45.0" fill="#000000" transform="matrix(1.00, 0.00, -0.00, -1.00, 28.0, 416.0)"> </text><text xml:space="preserve" font-family="CourierNewPSMT" font-size="45.0" fill="#000000" transform="matrix(1.00, 0.00, -0.00, -1.00, 1.0, 365.0)">.</text><text xml:space="preserve" font-family="CourierNewPSMT" font-size="45.0" fill="#000000" transform="matrix(1.00, 0.00, -0.00, -1.00, 28.0, 365.0)"> </text><text xml:space="preserve" font-family="CourierNewPSMT" font-size="45.0" fill="#000000" transform="matrix(1.00, 0.00, -0.00, -1.00, 1.0, 314.0)"> </text><text xml:space="preserve" font-family="CourierNewPSMT" font-size="45.0" fill="#000000" transform="matrix(1.00, 0.00, -0.00, -1.00, 28.0, 314.0)"> </text><text xml:space="preserve" font-family="CourierNewPSMT" font-size="45.0" fill="#000000" transform="matrix(1.00, 0.00, -0.00, -1.00, 55.0, 314.0)">s</text><text xml:space="preserve" font-family="CourierNewPSMT" font-size="45.0" fill="#000000" transform="matrix(1.00, 0.00, -0.00, -1.00, 82.0, 314.0)">t</text><text xml:space="preserve" font-family="CourierNewPSMT" font-size="45.0" fill="#000000" transform="matrix(1.00, 0.00, -0.00, -1.00, 109.0, 314.0)">a</text><text xml:space="preserve" font-family="CourierNewPSMT" font-size="45.0" fill="#000000" transform="matrix(1.00, 0.00, -0.00, -1.00, 136.0, 314.0)">g</text><text xml:space="preserve" font-family="CourierNewPSMT" font-size="45.0" fill="#000000" transform="matrix(1.00, 0.00, -0.00, -1.00, 163.1, 314.0)">e</text><text xml:space="preserve" font-family="CourierNewPSMT" font-size="45.0" fill="#000000" transform="matrix(1.00, 0.00, -0.00, -1.00, 190.1, 314.0)">(</text><text xml:space="preserve" font-family="CourierNewPSMT" font-size="45.0" fill="#000000" transform="matrix(1.00, 0.00, -0.00, -1.00, 217.1, 314.0)">'</text><text xml:space="preserve" font-family="CourierNewPSMT" font-size="45.0" fill="#000000" transform="matrix(1.00, 0.00, -0.00, -1.00, 244.1, 314.0)">D</text><text xml:space="preserve" font-family="CourierNewPSMT" font-size="45.0" fill="#000000" transform="matrix(1.00, 0.00, -0.00, -1.00, 271.1, 314.0)">e</text><text xml:space="preserve" font-family="CourierNewPSMT" font-size="45.0" fill="#000000" transform="matrix(1.00, 0.00, -0.00, -1.00, 298.1, 314.0)">p</text><text xml:space="preserve" font-family="CourierNewPSMT" font-size="45.0" fill="#000000" transform="matrix(1.00, 0.00, -0.00, -1.00, 325.1, 314.0)">l</text><text xml:space="preserve" font-family="CourierNewPSMT" font-size="45.0" fill="#000000" transform="matrix(1.00, 0.00, -0.00, -1.00, 352.1, 314.0)">o</text><text xml:space="preserve" font-family="CourierNewPSMT" font-size="45.0" fill="#000000" transform="matrix(1.00, 0.00, -0.00, -1.00, 379.1, 314.0)">y</text><text xml:space="preserve" font-family="CourierNewPSMT" font-size="45.0" fill="#000000" transform="matrix(1.00, 0.00, -0.00, -1.00, 406.1, 314.0)">'</text><text xml:space="preserve" font-family="CourierNewPSMT" font-size="45.0" fill="#000000" transform="matrix(1.00, 0.00, -0.00, -1.00, 433.1, 314.0)">)</text><text xml:space="preserve" font-family="CourierNewPSMT" font-size="45.0" fill="#000000" transform="matrix(1.00, 0.00, -0.00, -1.00, 460.2, 314.0)"> </text><text xml:space="preserve" font-family="CourierNewPSMT" font-size="45.0" fill="#000000" transform="matrix(1.00, 0.00, -0.00, -1.00, 1.0, 263.0)"> </text><text xml:space="preserve" font-family="CourierNewPSMT" font-size="45.0" fill="#000000" transform="matrix(1.00, 0.00, -0.00, -1.00, 28.0, 263.0)"> </text><text xml:space="preserve" font-family="CourierNewPSMT" font-size="45.0" fill="#000000" transform="matrix(1.00, 0.00, -0.00, -1.00, 55.0, 263.0)">{</text><text xml:space="preserve" font-family="CourierNewPSMT" font-size="45.0" fill="#000000" transform="matrix(1.00, 0.00, -0.00, -1.00, 82.0, 263.0)"> </text><text xml:space="preserve" font-family="CourierNewPSMT" font-size="45.0" fill="#000000" transform="matrix(1.00, 0.00, -0.00, -1.00, 1.0, 212.0)"> </text><text xml:space="preserve" font-family="CourierNewPSMT" font-size="45.0" fill="#000000" transform="matrix(1.00, 0.00, -0.00, -1.00, 28.0, 212.0)"> </text><text xml:space="preserve" font-family="CourierNewPSMT" font-size="45.0" fill="#000000" transform="matrix(1.00, 0.00, -0.00, -1.00, 55.0, 212.0)"> </text><text xml:space="preserve" font-family="CourierNewPSMT" font-size="45.0" fill="#000000" transform="matrix(1.00, 0.00, -0.00, -1.00, 82.0, 212.0)">s</text><text xml:space="preserve" font-family="CourierNewPSMT" font-size="45.0" fill="#000000" transform="matrix(1.00, 0.00, -0.00, -1.00, 109.0, 212.0)">t</text><text xml:space="preserve" font-family="CourierNewPSMT" font-size="45.0" fill="#000000" transform="matrix(1.00, 0.00, -0.00, -1.00, 136.0, 212.0)">e</text><text xml:space="preserve" font-family="CourierNewPSMT" font-size="45.0" fill="#000000" transform="matrix(1.00, 0.00, -0.00, -1.00, 163.1, 212.0)">p</text><text xml:space="preserve" font-family="CourierNewPSMT" font-size="45.0" fill="#000000" transform="matrix(1.00, 0.00, -0.00, -1.00, 190.1, 212.0)">s</text><text xml:space="preserve" font-family="CourierNewPSMT" font-size="45.0" fill="#000000" transform="matrix(1.00, 0.00, -0.00, -1.00, 217.1, 212.0)"> </text><text xml:space="preserve" font-family="CourierNewPSMT" font-size="45.0" fill="#000000" transform="matrix(1.00, 0.00, -0.00, -1.00, 1.0, 161.0)"> </text><text xml:space="preserve" font-family="CourierNewPSMT" font-size="45.0" fill="#000000" transform="matrix(1.00, 0.00, -0.00, -1.00, 28.0, 161.0)"> </text><text xml:space="preserve" font-family="CourierNewPSMT" font-size="45.0" fill="#000000" transform="matrix(1.00, 0.00, -0.00, -1.00, 55.0, 161.0)"> </text><text xml:space="preserve" font-family="CourierNewPSMT" font-size="45.0" fill="#000000" transform="matrix(1.00, 0.00, -0.00, -1.00, 82.0, 161.0)">{</text><text xml:space="preserve" font-family="CourierNewPSMT" font-size="45.0" fill="#000000" transform="matrix(1.00, 0.00, -0.00, -1.00, 109.0, 161.0)"> </text><text xml:space="preserve" font-family="CourierNewPSMT" font-size="45.0" fill="#000000" transform="matrix(1.00, 0.00, -0.00, -1.00, 1.0, 110.0)"> </text><text xml:space="preserve" font-family="CourierNewPSMT" font-size="45.0" fill="#000000" transform="matrix(1.00, 0.00, -0.00, -1.00, 28.0, 110.0)"> </text><text xml:space="preserve" font-family="CourierNewPSMT" font-size="45.0" fill="#000000" transform="matrix(1.00, 0.00, -0.00, -1.00, 55.0, 110.0)"> </text><text xml:space="preserve" font-family="CourierNewPSMT" font-size="45.0" fill="#000000" transform="matrix(1.00, 0.00, -0.00, -1.00, 82.0, 110.0)"> </text><text xml:space="preserve" font-family="CourierNewPSMT" font-size="45.0" fill="#000000" transform="matrix(1.00, 0.00, -0.00, -1.00, 109.0, 110.0)">r</text><text xml:space="preserve" font-family="CourierNewPSMT" font-size="45.0" fill="#000000" transform="matrix(1.00, 0.00, -0.00, -1.00, 136.0, 110.0)">e</text><text xml:space="preserve" font-family="CourierNewPSMT" font-size="45.0" fill="#000000" transform="matrix(1.00, 0.00, -0.00, -1.00, 163.1, 110.0)">p</text><text xml:space="preserve" font-family="CourierNewPSMT" font-size="45.0" fill="#000000" transform="matrix(1.00, 0.00, -0.00, -1.00, 190.1, 110.0)">e</text><text xml:space="preserve" font-family="CourierNewPSMT" font-size="45.0" fill="#000000" transform="matrix(1.00, 0.00, -0.00, -1.00, 217.1, 110.0)">a</text><text xml:space="preserve" font-family="CourierNewPSMT" font-size="45.0" fill="#000000" transform="matrix(1.00, 0.00, -0.00, -1.00, 244.1, 110.0)">t</text><text xml:space="preserve" font-family="CourierNewPSMT" font-size="45.0" fill="#000000" transform="matrix(1.00, 0.00, -0.00, -1.00, 271.1, 110.0)">M</text><text xml:space="preserve" font-family="CourierNewPSMT" font-size="45.0" fill="#000000" transform="matrix(1.00, 0.00, -0.00, -1.00, 298.1, 110.0)">e</text><text xml:space="preserve" font-family="CourierNewPSMT" font-size="45.0" fill="#000000" transform="matrix(1.00, 0.00, -0.00, -1.00, 325.1, 110.0)">s</text><text xml:space="preserve" font-family="CourierNewPSMT" font-size="45.0" fill="#000000" transform="matrix(1.00, 0.00, -0.00, -1.00, 352.1, 110.0)">s</text><text xml:space="preserve" font-family="CourierNewPSMT" font-size="45.0" fill="#000000" transform="matrix(1.00, 0.00, -0.00, -1.00, 379.1, 110.0)">a</text><text xml:space="preserve" font-family="CourierNewPSMT" font-size="45.0" fill="#000000" transform="matrix(1.00, 0.00, -0.00, -1.00, 406.1, 110.0)">g</text><text xml:space="preserve" font-family="CourierNewPSMT" font-size="45.0" fill="#000000" transform="matrix(1.00, 0.00, -0.00, -1.00, 433.1, 110.0)">e</text><text xml:space="preserve" font-family="CourierNewPSMT" font-size="45.0" fill="#000000" transform="matrix(1.00, 0.00, -0.00, -1.00, 460.2, 110.0)"> </text><text xml:space="preserve" font-family="CourierNewPSMT" font-size="36.0" fill="#000000" transform="matrix(1.00, 0.00, -0.00, -1.00, 487.1, 110.0)">3</text><text xml:space="preserve" font-family="CourierNewPSMT" font-size="36.0" fill="#000000" transform="matrix(1.00, 0.00, -0.00, -1.00, 508.7, 110.0)">,</text><text xml:space="preserve" font-family="CourierNewPSMT" font-size="36.0" fill="#000000" transform="matrix(1.00, 0.00, -0.00, -1.00, 530.3, 110.0)"> </text><text xml:space="preserve" font-family="CourierNewPSMT" font-size="36.0" fill="#000000" transform="matrix(1.00, 0.00, -0.00, -1.00, 551.9, 110.0)">'</text><text xml:space="preserve" font-family="CourierNewPSMT" font-size="36.0" fill="#000000" transform="matrix(1.00, 0.00, -0.00, -1.00, 573.5, 110.0)">F</text><text xml:space="preserve" font-family="CourierNewPSMT" font-size="36.0" fill="#000000" transform="matrix(1.00, 0.00, -0.00, -1.00, 595.1, 110.0)">o</text><text xml:space="preserve" font-family="CourierNewPSMT" font-size="36.0" fill="#000000" transform="matrix(1.00, 0.00, -0.00, -1.00, 616.7, 110.0)">r</text><text xml:space="preserve" font-family="CourierNewPSMT" font-size="36.0" fill="#000000" transform="matrix(1.00, 0.00, -0.00, -1.00, 638.3, 110.0)"> </text><text xml:space="preserve" font-family="CourierNewPSMT" font-size="36.0" fill="#000000" transform="matrix(1.00, 0.00, -0.00, -1.00, 659.9, 110.0)">h</text><text xml:space="preserve" font-family="CourierNewPSMT" font-size="36.0" fill="#000000" transform="matrix(1.00, 0.00, -0.00, -1.00, 681.5, 110.0)">e</text><text xml:space="preserve" font-family="CourierNewPSMT" font-size="36.0" fill="#000000" transform="matrix(1.00, 0.00, -0.00, -1.00, 703.2, 110.0)">\</text><text xml:space="preserve" font-family="CourierNewPSMT" font-size="36.0" fill="#000000" transform="matrix(1.00, 0.00, -0.00, -1.00, 724.8, 110.0)">'</text><text xml:space="preserve" font-family="CourierNewPSMT" font-size="36.0" fill="#000000" transform="matrix(1.00, 0.00, -0.00, -1.00, 746.4, 110.0)">s</text><text xml:space="preserve" font-family="CourierNewPSMT" font-size="36.0" fill="#000000" transform="matrix(1.00, 0.00, -0.00, -1.00, 768.0, 110.0)"> </text><text xml:space="preserve" font-family="CourierNewPSMT" font-size="36.0" fill="#000000" transform="matrix(1.00, 0.00, -0.00, -1.00, 789.6, 110.0)">a</text><text xml:space="preserve" font-family="CourierNewPSMT" font-size="36.0" fill="#000000" transform="matrix(1.00, 0.00, -0.00, -1.00, 811.2, 110.0)"> </text><text xml:space="preserve" font-family="CourierNewPSMT" font-size="36.0" fill="#000000" transform="matrix(1.00, 0.00, -0.00, -1.00, 832.8, 110.0)">j</text><text xml:space="preserve" font-family="CourierNewPSMT" font-size="36.0" fill="#000000" transform="matrix(1.00, 0.00, -0.00, -1.00, 854.4, 110.0)">o</text><text xml:space="preserve" font-family="CourierNewPSMT" font-size="36.0" fill="#000000" transform="matrix(1.00, 0.00, -0.00, -1.00, 876.0, 110.0)">l</text><text xml:space="preserve" font-family="CourierNewPSMT" font-size="36.0" fill="#000000" transform="matrix(1.00, 0.00, -0.00, -1.00, 897.6, 110.0)">l</text><text xml:space="preserve" font-family="CourierNewPSMT" font-size="36.0" fill="#000000" transform="matrix(1.00, 0.00, -0.00, -1.00, 919.2, 110.0)">y</text><text xml:space="preserve" font-family="CourierNewPSMT" font-size="36.0" fill="#000000" transform="matrix(1.00, 0.00, -0.00, -1.00, 940.8, 110.0)"> </text><text xml:space="preserve" font-family="CourierNewPSMT" font-size="36.0" fill="#000000" transform="matrix(1.00, 0.00, -0.00, -1.00, 962.4, 110.0)">g</text><text xml:space="preserve" font-family="CourierNewPSMT" font-size="36.0" fill="#000000" transform="matrix(1.00, 0.00, -0.00, -1.00, 984.0, 110.0)">o</text><text xml:space="preserve" font-family="CourierNewPSMT" font-size="36.0" fill="#000000" transform="matrix(1.00, 0.00, -0.00, -1.00, 1005.6, 110.0)">o</text><text xml:space="preserve" font-family="CourierNewPSMT" font-size="36.0" fill="#000000" transform="matrix(1.00, 0.00, -0.00, -1.00, 1027.3, 110.0)">d</text><text xml:space="preserve" font-family="CourierNewPSMT" font-size="36.0" fill="#000000" transform="matrix(1.00, 0.00, -0.00, -1.00, 1048.9, 110.0)"> </text><text xml:space="preserve" font-family="CourierNewPSMT" font-size="36.0" fill="#000000" transform="matrix(1.00, 0.00, -0.00, -1.00, 1070.5, 110.0)">f</text><text xml:space="preserve" font-family="CourierNewPSMT" font-size="36.0" fill="#000000" transform="matrix(1.00, 0.00, -0.00, -1.00, 1092.1, 110.0)">e</text><text xml:space="preserve" font-family="CourierNewPSMT" font-size="36.0" fill="#000000" transform="matrix(1.00, 0.00, -0.00, -1.00, 1113.7, 110.0)">l</text><text xml:space="preserve" font-family="CourierNewPSMT" font-size="36.0" fill="#000000" transform="matrix(1.00, 0.00, -0.00, -1.00, 1135.3, 110.0)">l</text><text xml:space="preserve" font-family="CourierNewPSMT" font-size="36.0" fill="#000000" transform="matrix(1.00, 0.00, -0.00, -1.00, 1156.9, 110.0)">o</text><text xml:space="preserve" font-family="CourierNewPSMT" font-size="36.0" fill="#000000" transform="matrix(1.00, 0.00, -0.00, -1.00, 1178.5, 110.0)">w</text><text xml:space="preserve" font-family="CourierNewPSMT" font-size="36.0" fill="#000000" transform="matrix(1.00, 0.00, -0.00, -1.00, 1200.1, 110.0)">!</text><text xml:space="preserve" font-family="CourierNewPSMT" font-size="36.0" fill="#000000" transform="matrix(1.00, 0.00, -0.00, -1.00, 1221.7, 110.0)">'</text><text xml:space="preserve" font-family="CourierNewPSMT" font-size="45.0" fill="#000000" transform="matrix(1.00, 0.00, -0.00, -1.00, 1243.2, 110.0)"> </text><text xml:space="preserve" font-family="CourierNewPSMT" font-size="45.0" fill="#000000" transform="matrix(1.00, 0.00, -0.00, -1.00, 1.0, 59.0)"> </text><text xml:space="preserve" font-family="CourierNewPSMT" font-size="45.0" fill="#000000" transform="matrix(1.00, 0.00, -0.00, -1.00, 28.0, 59.0)"> </text><text xml:space="preserve" font-family="CourierNewPSMT" font-size="45.0" fill="#000000" transform="matrix(1.00, 0.00, -0.00, -1.00, 55.0, 59.0)"> </text><text xml:space="preserve" font-family="CourierNewPSMT" font-size="45.0" fill="#000000" transform="matrix(1.00, 0.00, -0.00, -1.00, 82.0, 59.0)">}</text><text xml:space="preserve" font-family="CourierNewPSMT" font-size="45.0" fill="#000000" transform="matrix(1.00, 0.00, -0.00, -1.00, 109.0, 59.0)"> </text><text xml:space="preserve" font-family="CourierNewPSMT" font-size="45.0" fill="#000000" transform="matrix(1.00, 0.00, -0.00, -1.00, 1.0, 8.0)"> </text><text xml:space="preserve" font-family="CourierNewPSMT" font-size="45.0" fill="#000000" transform="matrix(1.00, 0.00, -0.00, -1.00, 28.0, 8.0)"> </text><text xml:space="preserve" font-family="CourierNewPSMT" font-size="45.0" fill="#000000" transform="matrix(1.00, 0.00, -0.00, -1.00, 55.0, 8.0)">}</text></g></svg>