<?xml version="1.0" encoding="UTF-8" standalone="no"?><svg xmlns="http://www.w3.org/2000/svg" xmlns:xlink="http://www.w3.org/1999/xlink" clip-rule="evenodd" stroke-miterlimit="4.00" viewBox="0 0 421 172"><desc>SVG generated by Keynote</desc><defs><pattern id="76DEDC22-9D94-480C-BA32-D67F9B511D49" patternUnits="userSpaceOnUse" width="314" height="314" viewBox="0 0 314 314" patternTransform="matrix(0.955414, 0.000000, 0.000000, -0.955414, 6.581095, 166.254500)"><image xlink:href="../../161B0B54-7FD3-4E94-A586-B260162458D2/assets/D57DAEBAD5B9C4DEC467607E5B2312B7.jpeg" width="314.00" height="314.00"></image></pattern></defs><g transform="matrix(1.00, 0.00, -0.00, -1.00, 0.0, 172.0)"><image xlink:href="F15F5169893D0565A0A9C9E1E97BA963.png" width="415.00" height="169.00" transform="matrix(1.00, 0.00, -0.00, -1.00, 3.6, 170.3)" opacity="0.50"></image><g><clipPath id="clip-474"><path d="M 414.0 166.3 L 279.5 121.8 L 14.6 121.8 C 10.2 121.8 6.6 118.2 6.6 113.8 L 6.6 13.2 C 6.6 8.7 10.2 5.1 14.6 5.1 L 309.8 5.1 C 314.2 5.1 317.9 8.7 317.9 13.2 L 317.9 98.4 L 414.0 166.3 Z M 414.0 166.3 "></path></clipPath><g clip-path="url(#clip-474)"><path d="M 6.6 5.1 L 414.0 5.1 L 414.0 166.3 L 6.6 166.3 Z M 6.6 5.1 " fill="url(#76DEDC22-9D94-480C-BA32-D67F9B511D49)"></path><path d="M 6.6 166.3 L 414.0 166.3 L 414.0 5.1 L 6.6 5.1 Z M 6.6 166.3 " fill="#00D026" fill-opacity="0.50"></path></g></g><g><clipPath id="clip-475"><path d="M 2.6 5.1 L 321.9 5.1 L 321.9 121.8 L 2.6 121.8 Z M 2.6 5.1 "></path></clipPath><g clip-path="url(#clip-475)"><text xml:space="preserve" font-family="Helvetica-Bold" font-weight="bold" font-size="32.0" fill="#FEFFFE" transform="matrix(1.00, 0.00, -0.00, -1.00, 50.0, 51.0)">B</text><text xml:space="preserve" font-family="Helvetica-Bold" font-weight="bold" font-size="32.0" fill="#FEFFFE" transform="matrix(1.00, 0.00, -0.00, -1.00, 73.1, 51.0)">r</text><text xml:space="preserve" font-family="Helvetica-Bold" font-weight="bold" font-size="32.0" fill="#FEFFFE" transform="matrix(1.00, 0.00, -0.00, -1.00, 85.6, 51.0)">a</text><text xml:space="preserve" font-family="Helvetica-Bold" font-weight="bold" font-size="32.0" fill="#FEFFFE" transform="matrix(1.00, 0.00, -0.00, -1.00, 103.4, 51.0)">n</text><text xml:space="preserve" font-family="Helvetica-Bold" font-weight="bold" font-size="32.0" fill="#FEFFFE" transform="matrix(1.00, 0.00, -0.00, -1.00, 122.9, 51.0)">c</text><text xml:space="preserve" font-family="Helvetica-Bold" font-weight="bold" font-size="32.0" fill="#FEFFFE" transform="matrix(1.00, 0.00, -0.00, -1.00, 140.7, 51.0)">h</text><text xml:space="preserve" font-family="Helvetica-Bold" font-weight="bold" font-size="32.0" fill="#FEFFFE" transform="matrix(1.00, 0.00, -0.00, -1.00, 160.3, 51.0)">e</text><text xml:space="preserve" font-family="Helvetica-Bold" font-weight="bold" font-size="32.0" fill="#FEFFFE" transform="matrix(1.00, 0.00, -0.00, -1.00, 178.1, 51.0)">s</text><text xml:space="preserve" font-family="Helvetica-Bold" font-weight="bold" font-size="32.0" fill="#FEFFFE" transform="matrix(1.00, 0.00, -0.00, -1.00, 195.9, 51.0)"> </text><text xml:space="preserve" font-family="Helvetica-Bold" font-weight="bold" font-size="32.0" fill="#FEFFFE" transform="matrix(1.00, 0.00, -0.00, -1.00, 204.8, 51.0)">v</text><text xml:space="preserve" font-family="Helvetica-Bold" font-weight="bold" font-size="32.0" fill="#FEFFFE" transform="matrix(1.00, 0.00, -0.00, -1.00, 222.6, 51.0)">i</text><text xml:space="preserve" font-family="Helvetica-Bold" font-weight="bold" font-size="32.0" fill="#FEFFFE" transform="matrix(1.00, 0.00, -0.00, -1.00, 231.5, 51.0)">e</text><text xml:space="preserve" font-family="Helvetica-Bold" font-weight="bold" font-size="32.0" fill="#FEFFFE" transform="matrix(1.00, 0.00, -0.00, -1.00, 249.3, 51.0)">w</text></g></g></g></svg>