<?xml version="1.0" encoding="UTF-8" standalone="no"?><svg xmlns="http://www.w3.org/2000/svg" xmlns:xlink="http://www.w3.org/1999/xlink" clip-rule="evenodd" stroke-miterlimit="4.00" viewBox="0 0 357 185"><desc>SVG generated by Keynote</desc><defs><pattern id="8BBF5EB2-E48B-4452-87F7-62C7FCC5F69F" patternUnits="userSpaceOnUse" width="314" height="314" viewBox="0 0 314 314" patternTransform="matrix(0.955414, 0.000000, 0.000000, -0.955414, 6.809937, 179.422500)"><image xlink:href="../../161B0B54-7FD3-4E94-A586-B260162458D2/assets/D57DAEBAD5B9C4DEC467607E5B2312B7.jpeg" width="314.00" height="314.00"></image></pattern></defs><g transform="matrix(1.00, 0.00, -0.00, -1.00, 0.0, 185.0)"><image xlink:href="22D3D8D6A357FA011BD65827AEA3EC8E.png" width="351.00" height="182.00" transform="matrix(1.00, 0.00, -0.00, -1.00, 3.8, 183.4)" opacity="0.50"></image><g><clipPath id="clip-458"><path d="M 47.0 179.4 C 42.5 179.4 38.9 175.8 38.9 171.4 L 38.9 102.3 L 6.8 5.2 L 63.7 62.7 L 342.1 62.7 C 346.6 62.7 350.2 66.3 350.2 70.8 L 350.2 171.4 C 350.2 175.8 346.6 179.4 342.1 179.4 L 47.0 179.4 Z M 47.0 179.4 "></path></clipPath><g clip-path="url(#clip-458)"><path d="M 6.8 5.2 L 350.2 5.2 L 350.2 179.4 L 6.8 179.4 Z M 6.8 5.2 " fill="url(#8BBF5EB2-E48B-4452-87F7-62C7FCC5F69F)"></path><path d="M 6.8 179.4 L 350.2 179.4 L 350.2 5.2 L 6.8 5.2 Z M 6.8 179.4 " fill="#00D026" fill-opacity="0.50"></path></g></g><g><clipPath id="clip-459"><path d="M 34.9 62.7 L 354.2 62.7 L 354.2 179.4 L 34.9 179.4 Z M 34.9 62.7 "></path></clipPath><g clip-path="url(#clip-459)"><text xml:space="preserve" font-family="Helvetica-Bold" font-weight="bold" font-size="32.0" fill="#FEFFFE" transform="matrix(1.00, 0.00, -0.00, -1.00, 71.0, 109.0)">P</text><text xml:space="preserve" font-family="Helvetica-Bold" font-weight="bold" font-size="32.0" fill="#FEFFFE" transform="matrix(1.00, 0.00, -0.00, -1.00, 92.3, 109.0)">a</text><text xml:space="preserve" font-family="Helvetica-Bold" font-weight="bold" font-size="32.0" fill="#FEFFFE" transform="matrix(1.00, 0.00, -0.00, -1.00, 110.1, 109.0)">r</text><text xml:space="preserve" font-family="Helvetica-Bold" font-weight="bold" font-size="32.0" fill="#FEFFFE" transform="matrix(1.00, 0.00, -0.00, -1.00, 122.6, 109.0)">a</text><text xml:space="preserve" font-family="Helvetica-Bold" font-weight="bold" font-size="32.0" fill="#FEFFFE" transform="matrix(1.00, 0.00, -0.00, -1.00, 140.4, 109.0)">m</text><text xml:space="preserve" font-family="Helvetica-Bold" font-weight="bold" font-size="32.0" fill="#FEFFFE" transform="matrix(1.00, 0.00, -0.00, -1.00, 168.9, 109.0)">e</text><text xml:space="preserve" font-family="Helvetica-Bold" font-weight="bold" font-size="32.0" fill="#FEFFFE" transform="matrix(1.00, 0.00, -0.00, -1.00, 186.7, 109.0)">t</text><text xml:space="preserve" font-family="Helvetica-Bold" font-weight="bold" font-size="32.0" fill="#FEFFFE" transform="matrix(1.00, 0.00, -0.00, -1.00, 197.3, 109.0)">e</text><text xml:space="preserve" font-family="Helvetica-Bold" font-weight="bold" font-size="32.0" fill="#FEFFFE" transform="matrix(1.00, 0.00, -0.00, -1.00, 215.1, 109.0)">r</text><text xml:space="preserve" font-family="Helvetica-Bold" font-weight="bold" font-size="32.0" fill="#FEFFFE" transform="matrix(1.00, 0.00, -0.00, -1.00, 227.6, 109.0)"> </text><text xml:space="preserve" font-family="Helvetica-Bold" font-weight="bold" font-size="32.0" fill="#FEFFFE" transform="matrix(1.00, 0.00, -0.00, -1.00, 236.5, 109.0)">v</text><text xml:space="preserve" font-family="Helvetica-Bold" font-weight="bold" font-size="32.0" fill="#FEFFFE" transform="matrix(1.00, 0.00, -0.00, -1.00, 254.3, 109.0)">a</text><text xml:space="preserve" font-family="Helvetica-Bold" font-weight="bold" font-size="32.0" fill="#FEFFFE" transform="matrix(1.00, 0.00, -0.00, -1.00, 272.1, 109.0)">l</text><text xml:space="preserve" font-family="Helvetica-Bold" font-weight="bold" font-size="32.0" fill="#FEFFFE" transform="matrix(1.00, 0.00, -0.00, -1.00, 281.0, 109.0)">u</text><text xml:space="preserve" font-family="Helvetica-Bold" font-weight="bold" font-size="32.0" fill="#FEFFFE" transform="matrix(1.00, 0.00, -0.00, -1.00, 300.5, 109.0)">e</text></g></g></g></svg>