<?xml version="1.0" encoding="UTF-8" standalone="no"?><svg xmlns="http://www.w3.org/2000/svg" xmlns:xlink="http://www.w3.org/1999/xlink" clip-rule="evenodd" stroke-miterlimit="4.00" viewBox="0 0 533 160"><desc>SVG generated by Keynote</desc><defs><pattern id="C40D69B6-2698-4545-AB4F-0663EDAB4269" patternUnits="userSpaceOnUse" width="586" height="586" viewBox="0 0 586 586" patternTransform="matrix(0.511945, 0.000000, 0.000000, -0.511945, 6.065384, 154.290400)"><image xlink:href="../../D74EAB38-27DB-49C6-A2C6-F1376FF27CD1/assets/CD9ACC2DC88F7E21B59B79690EC2CD1C.jpeg" width="586.00" height="586.00"></image></pattern></defs><g transform="matrix(1.00, 0.00, -0.00, -1.00, 0.0, 160.0)"><image xlink:href="12CE26C3555268DC278193AC0483FC8F.png" width="529.00" height="157.00" transform="matrix(1.00, 0.00, -0.00, -1.00, 3.1, 158.3)" opacity="0.50"></image><g><clipPath id="clip-534"><path d="M 13.5 154.3 C 9.4 154.3 6.1 151.0 6.1 146.9 L 6.1 13.0 C 6.1 8.9 9.4 5.6 13.5 5.6 L 315.3 5.6 C 319.4 5.6 322.7 8.9 322.7 13.0 L 322.7 75.2 L 526.8 90.1 L 322.7 104.9 L 322.7 146.9 C 322.7 151.0 319.4 154.3 315.3 154.3 L 13.5 154.3 Z M 13.5 154.3 "></path></clipPath><g clip-path="url(#clip-534)"><path d="M 6.1 5.6 L 526.8 5.6 L 526.8 154.3 L 6.1 154.3 Z M 6.1 5.6 " fill="url(#C40D69B6-2698-4545-AB4F-0663EDAB4269)"></path><path d="M 6.1 154.3 L 526.8 154.3 L 526.8 5.6 L 6.1 5.6 Z M 6.1 154.3 " fill="#00D026" fill-opacity="0.50"></path></g></g><g><clipPath id="clip-535"><path d="M 2.1 5.6 L 326.7 5.6 L 326.7 154.3 L 2.1 154.3 Z M 2.1 5.6 "></path></clipPath><g clip-path="url(#clip-535)"><text xml:space="preserve" font-family="Helvetica-Bold" font-weight="bold" font-size="32.0" fill="#FEFFFE" transform="matrix(1.00, 0.00, -0.00, -1.00, 30.0, 87.0)">T</text><text xml:space="preserve" font-family="Helvetica-Bold" font-weight="bold" font-size="32.0" fill="#FEFFFE" transform="matrix(1.00, 0.00, -0.00, -1.00, 49.5, 87.0)">h</text><text xml:space="preserve" font-family="Helvetica-Bold" font-weight="bold" font-size="32.0" fill="#FEFFFE" transform="matrix(1.00, 0.00, -0.00, -1.00, 69.1, 87.0)">e</text><text xml:space="preserve" font-family="Helvetica-Bold" font-weight="bold" font-size="32.0" fill="#FEFFFE" transform="matrix(1.00, 0.00, -0.00, -1.00, 86.9, 87.0)"> </text><text xml:space="preserve" font-family="Helvetica-Bold" font-weight="bold" font-size="32.0" fill="#FEFFFE" transform="matrix(1.00, 0.00, -0.00, -1.00, 95.8, 87.0)">“</text><text xml:space="preserve" font-family="Helvetica-Bold" font-weight="bold" font-size="32.0" fill="#FEFFFE" transform="matrix(1.00, 0.00, -0.00, -1.00, 111.8, 87.0)">w</text><text xml:space="preserve" font-family="Helvetica-Bold" font-weight="bold" font-size="32.0" fill="#FEFFFE" transform="matrix(1.00, 0.00, -0.00, -1.00, 136.7, 87.0)">o</text><text xml:space="preserve" font-family="Helvetica-Bold" font-weight="bold" font-size="32.0" fill="#FEFFFE" transform="matrix(1.00, 0.00, -0.00, -1.00, 156.2, 87.0)">r</text><text xml:space="preserve" font-family="Helvetica-Bold" font-weight="bold" font-size="32.0" fill="#FEFFFE" transform="matrix(1.00, 0.00, -0.00, -1.00, 168.7, 87.0)">k</text><text xml:space="preserve" font-family="Helvetica-Bold" font-weight="bold" font-size="32.0" fill="#FEFFFE" transform="matrix(1.00, 0.00, -0.00, -1.00, 186.5, 87.0)">”</text><text xml:space="preserve" font-family="Helvetica-Bold" font-weight="bold" font-size="32.0" fill="#FEFFFE" transform="matrix(1.00, 0.00, -0.00, -1.00, 202.5, 87.0)"> </text><text xml:space="preserve" font-family="Helvetica-Bold" font-weight="bold" font-size="32.0" fill="#FEFFFE" transform="matrix(1.00, 0.00, -0.00, -1.00, 211.3, 87.0)">o</text><text xml:space="preserve" font-family="Helvetica-Bold" font-weight="bold" font-size="32.0" fill="#FEFFFE" transform="matrix(1.00, 0.00, -0.00, -1.00, 230.9, 87.0)">f</text><text xml:space="preserve" font-family="Helvetica-Bold" font-weight="bold" font-size="32.0" fill="#FEFFFE" transform="matrix(1.00, 0.00, -0.00, -1.00, 241.5, 87.0)"> </text><text xml:space="preserve" font-family="Helvetica-Bold" font-weight="bold" font-size="32.0" fill="#FEFFFE" transform="matrix(1.00, 0.00, -0.00, -1.00, 250.4, 87.0)">t</text><text xml:space="preserve" font-family="Helvetica-Bold" font-weight="bold" font-size="32.0" fill="#FEFFFE" transform="matrix(1.00, 0.00, -0.00, -1.00, 261.1, 87.0)">h</text><text xml:space="preserve" font-family="Helvetica-Bold" font-weight="bold" font-size="32.0" fill="#FEFFFE" transform="matrix(1.00, 0.00, -0.00, -1.00, 280.6, 87.0)">e</text><text xml:space="preserve" font-family="Helvetica-Bold" font-weight="bold" font-size="32.0" fill="#FEFFFE" transform="matrix(1.00, 0.00, -0.00, -1.00, 298.4, 87.0)"> </text><text xml:space="preserve" font-family="Helvetica-Bold" font-weight="bold" font-size="32.0" fill="#FEFFFE" transform="matrix(1.00, 0.00, -0.00, -1.00, 104.0, 49.0)">p</text><text xml:space="preserve" font-family="Helvetica-Bold" font-weight="bold" font-size="32.0" fill="#FEFFFE" transform="matrix(1.00, 0.00, -0.00, -1.00, 123.5, 49.0)">i</text><text xml:space="preserve" font-family="Helvetica-Bold" font-weight="bold" font-size="32.0" fill="#FEFFFE" transform="matrix(1.00, 0.00, -0.00, -1.00, 132.4, 49.0)">p</text><text xml:space="preserve" font-family="Helvetica-Bold" font-weight="bold" font-size="32.0" fill="#FEFFFE" transform="matrix(1.00, 0.00, -0.00, -1.00, 152.0, 49.0)">e</text><text xml:space="preserve" font-family="Helvetica-Bold" font-weight="bold" font-size="32.0" fill="#FEFFFE" transform="matrix(1.00, 0.00, -0.00, -1.00, 169.8, 49.0)">l</text><text xml:space="preserve" font-family="Helvetica-Bold" font-weight="bold" font-size="32.0" fill="#FEFFFE" transform="matrix(1.00, 0.00, -0.00, -1.00, 178.6, 49.0)">i</text><text xml:space="preserve" font-family="Helvetica-Bold" font-weight="bold" font-size="32.0" fill="#FEFFFE" transform="matrix(1.00, 0.00, -0.00, -1.00, 187.5, 49.0)">n</text><text xml:space="preserve" font-family="Helvetica-Bold" font-weight="bold" font-size="32.0" fill="#FEFFFE" transform="matrix(1.00, 0.00, -0.00, -1.00, 207.1, 49.0)">e</text></g></g></g></svg>