<?xml version="1.0" encoding="UTF-8" standalone="no"?><svg xmlns="http://www.w3.org/2000/svg" xmlns:xlink="http://www.w3.org/1999/xlink" clip-rule="evenodd" stroke-miterlimit="4.00" viewBox="0 0 432 173"><desc>SVG generated by Keynote</desc><defs><pattern id="23CC985A-804A-4C72-8924-9F81C62C0029" patternUnits="userSpaceOnUse" width="586" height="586" viewBox="0 0 586 586" patternTransform="matrix(0.511945, 0.000000, 0.000000, -0.511945, 6.289062, 167.252300)"><image xlink:href="../../D74EAB38-27DB-49C6-A2C6-F1376FF27CD1/assets/CD9ACC2DC88F7E21B59B79690EC2CD1C.jpeg" width="586.00" height="586.00"></image></pattern></defs><g transform="matrix(1.00, 0.00, -0.00, -1.00, 0.0, 173.0)"><image xlink:href="F4DBBDE183C1D1ED2F601A0504FC6F83.png" width="427.00" height="170.00" transform="matrix(1.00, 0.00, -0.00, -1.00, 3.3, 171.3)" opacity="0.50"></image><g><clipPath id="clip-540"><path d="M 122.2 167.3 C 117.7 167.3 114.1 163.6 114.1 159.2 L 114.1 94.9 L 6.3 78.8 L 114.1 62.7 L 114.1 13.8 C 114.1 9.4 117.7 5.8 122.2 5.8 L 417.3 5.8 C 421.7 5.8 425.4 9.4 425.4 13.8 L 425.4 159.2 C 425.4 163.6 421.7 167.3 417.3 167.3 L 122.2 167.3 Z M 122.2 167.3 "></path></clipPath><g clip-path="url(#clip-540)"><path d="M 6.3 5.8 L 425.4 5.8 L 425.4 167.3 L 6.3 167.3 Z M 6.3 5.8 " fill="url(#23CC985A-804A-4C72-8924-9F81C62C0029)"></path><path d="M 6.3 167.3 L 425.4 167.3 L 425.4 5.8 L 6.3 5.8 Z M 6.3 167.3 " fill="#00D026" fill-opacity="0.50"></path></g></g><g><clipPath id="clip-541"><path d="M 110.1 5.8 L 429.4 5.8 L 429.4 167.3 L 110.1 167.3 Z M 110.1 5.8 "></path></clipPath><g clip-path="url(#clip-541)"><text xml:space="preserve" font-family="Helvetica-Bold" font-weight="bold" font-size="32.0" fill="#FEFFFE" transform="matrix(1.00, 0.00, -0.00, -1.00, 132.0, 75.0)">A</text><text xml:space="preserve" font-family="Helvetica-Bold" font-weight="bold" font-size="32.0" fill="#FEFFFE" transform="matrix(1.00, 0.00, -0.00, -1.00, 155.1, 75.0)">n</text><text xml:space="preserve" font-family="Helvetica-Bold" font-weight="bold" font-size="32.0" fill="#FEFFFE" transform="matrix(1.00, 0.00, -0.00, -1.00, 174.7, 75.0)"> </text><text xml:space="preserve" font-family="Helvetica-Bold" font-weight="bold" font-size="32.0" fill="#FEFFFE" transform="matrix(1.00, 0.00, -0.00, -1.00, 183.5, 75.0)">i</text><text xml:space="preserve" font-family="Helvetica-Bold" font-weight="bold" font-size="32.0" fill="#FEFFFE" transform="matrix(1.00, 0.00, -0.00, -1.00, 192.4, 75.0)">n</text><text xml:space="preserve" font-family="Helvetica-Bold" font-weight="bold" font-size="32.0" fill="#FEFFFE" transform="matrix(1.00, 0.00, -0.00, -1.00, 212.0, 75.0)">d</text><text xml:space="preserve" font-family="Helvetica-Bold" font-weight="bold" font-size="32.0" fill="#FEFFFE" transform="matrix(1.00, 0.00, -0.00, -1.00, 231.5, 75.0)">i</text><text xml:space="preserve" font-family="Helvetica-Bold" font-weight="bold" font-size="32.0" fill="#FEFFFE" transform="matrix(1.00, 0.00, -0.00, -1.00, 240.4, 75.0)">v</text><text xml:space="preserve" font-family="Helvetica-Bold" font-weight="bold" font-size="32.0" fill="#FEFFFE" transform="matrix(1.00, 0.00, -0.00, -1.00, 258.2, 75.0)">i</text><text xml:space="preserve" font-family="Helvetica-Bold" font-weight="bold" font-size="32.0" fill="#FEFFFE" transform="matrix(1.00, 0.00, -0.00, -1.00, 267.1, 75.0)">d</text><text xml:space="preserve" font-family="Helvetica-Bold" font-weight="bold" font-size="32.0" fill="#FEFFFE" transform="matrix(1.00, 0.00, -0.00, -1.00, 286.6, 75.0)">u</text><text xml:space="preserve" font-family="Helvetica-Bold" font-weight="bold" font-size="32.0" fill="#FEFFFE" transform="matrix(1.00, 0.00, -0.00, -1.00, 306.2, 75.0)">a</text><text xml:space="preserve" font-family="Helvetica-Bold" font-weight="bold" font-size="32.0" fill="#FEFFFE" transform="matrix(1.00, 0.00, -0.00, -1.00, 324.0, 75.0)">l</text><text xml:space="preserve" font-family="Helvetica-Bold" font-weight="bold" font-size="32.0" fill="#FEFFFE" transform="matrix(1.00, 0.00, -0.00, -1.00, 332.8, 75.0)"> </text><text xml:space="preserve" font-family="Helvetica-Bold" font-weight="bold" font-size="32.0" fill="#FEFFFE" transform="matrix(1.00, 0.00, -0.00, -1.00, 341.7, 75.0)">s</text><text xml:space="preserve" font-family="Helvetica-Bold" font-weight="bold" font-size="32.0" fill="#FEFFFE" transform="matrix(1.00, 0.00, -0.00, -1.00, 359.5, 75.0)">t</text><text xml:space="preserve" font-family="Helvetica-Bold" font-weight="bold" font-size="32.0" fill="#FEFFFE" transform="matrix(1.00, 0.00, -0.00, -1.00, 370.2, 75.0)">e</text><text xml:space="preserve" font-family="Helvetica-Bold" font-weight="bold" font-size="32.0" fill="#FEFFFE" transform="matrix(1.00, 0.00, -0.00, -1.00, 388.0, 75.0)">p</text></g></g></g></svg>