<?xml version="1.0" encoding="UTF-8" standalone="no"?><svg xmlns="http://www.w3.org/2000/svg" xmlns:xlink="http://www.w3.org/1999/xlink" clip-rule="evenodd" stroke-miterlimit="4.00" viewBox="0 0 182 50"><desc>SVG generated by Keynote</desc><defs></defs><g transform="matrix(1.00, 0.00, -0.00, -1.00, 0.0, 50.0)"><text xml:space="preserve" font-family="Helvetica" font-size="49.0" fill="#000000" transform="matrix(1.00, 0.00, -0.00, -1.00, 0.4, 12.0)">s</text><text xml:space="preserve" font-family="Helvetica" font-size="49.0" fill="#000000" transform="matrix(1.00, 0.00, -0.00, -1.00, 24.9, 12.0)">c</text><text xml:space="preserve" font-family="Helvetica" font-size="49.0" fill="#000000" transform="matrix(1.00, 0.00, -0.00, -1.00, 49.4, 12.0)">r</text><text xml:space="preserve" font-family="Helvetica" font-size="49.0" fill="#000000" transform="matrix(1.00, 0.00, -0.00, -1.00, 65.7, 12.0)">i</text><text xml:space="preserve" font-family="Helvetica" font-size="49.0" fill="#000000" transform="matrix(1.00, 0.00, -0.00, -1.00, 76.6, 12.0)">p</text><text xml:space="preserve" font-family="Helvetica" font-size="49.0" fill="#000000" transform="matrix(1.00, 0.00, -0.00, -1.00, 103.8, 12.0)">t</text><text xml:space="preserve" font-family="Helvetica" font-size="49.0" fill="#000000" transform="matrix(1.00, 0.00, -0.00, -1.00, 117.4, 12.0)">i</text><text xml:space="preserve" font-family="Helvetica" font-size="49.0" fill="#000000" transform="matrix(1.00, 0.00, -0.00, -1.00, 128.3, 12.0)">n</text><text xml:space="preserve" font-family="Helvetica" font-size="49.0" fill="#000000" transform="matrix(1.00, 0.00, -0.00, -1.00, 155.6, 12.0)">g</text></g></svg>