<?xml version="1.0" encoding="UTF-8" standalone="no"?><svg xmlns="http://www.w3.org/2000/svg" xmlns:xlink="http://www.w3.org/1999/xlink" clip-rule="evenodd" stroke-miterlimit="4.00" viewBox="0 0 398 172"><desc>SVG generated by Keynote</desc><defs><pattern id="741F5C80-6E55-41A2-B302-BB958761F4F9" patternUnits="userSpaceOnUse" width="314" height="314" viewBox="0 0 314 314" patternTransform="matrix(0.955414, 0.000000, 0.000000, -0.955414, 6.100159, 166.704300)"><image xlink:href="../../161B0B54-7FD3-4E94-A586-B260162458D2/assets/D57DAEBAD5B9C4DEC467607E5B2312B7.jpeg" width="314.00" height="314.00"></image></pattern></defs><g transform="matrix(1.00, 0.00, -0.00, -1.00, 0.0, 172.0)"><image xlink:href="3B3FE4097233542516D5FA987B54D257.png" width="393.00" height="170.00" transform="matrix(1.00, 0.00, -0.00, -1.00, 3.1, 170.7)" opacity="0.50"></image><g><clipPath id="clip-674"><path d="M 88.3 166.7 C 83.8 166.7 80.2 163.1 80.2 158.6 L 80.2 89.9 L 6.1 73.7 L 80.2 57.5 L 80.2 13.3 C 80.2 8.8 83.8 5.2 88.3 5.2 L 383.4 5.2 C 387.8 5.2 391.5 8.8 391.5 13.3 L 391.5 158.6 C 391.5 163.1 387.8 166.7 383.4 166.7 L 88.3 166.7 Z M 88.3 166.7 "></path></clipPath><g clip-path="url(#clip-674)"><path d="M 6.1 5.2 L 391.5 5.2 L 391.5 166.7 L 6.1 166.7 Z M 6.1 5.2 " fill="url(#741F5C80-6E55-41A2-B302-BB958761F4F9)"></path><path d="M 6.1 166.7 L 391.5 166.7 L 391.5 5.2 L 6.1 5.2 Z M 6.1 166.7 " fill="#00D026" fill-opacity="0.50"></path></g></g><g><clipPath id="clip-675"><path d="M 76.2 5.2 L 395.5 5.2 L 395.5 166.7 L 76.2 166.7 Z M 76.2 5.2 "></path></clipPath><g clip-path="url(#clip-675)"><text xml:space="preserve" font-family="Helvetica-Bold" font-weight="bold" font-size="32.0" fill="#FEFFFE" transform="matrix(1.00, 0.00, -0.00, -1.00, 93.0, 111.0)">R</text><text xml:space="preserve" font-family="Helvetica-Bold" font-weight="bold" font-size="32.0" fill="#FEFFFE" transform="matrix(1.00, 0.00, -0.00, -1.00, 116.1, 111.0)">e</text><text xml:space="preserve" font-family="Helvetica-Bold" font-weight="bold" font-size="32.0" fill="#FEFFFE" transform="matrix(1.00, 0.00, -0.00, -1.00, 133.9, 111.0)">f</text><text xml:space="preserve" font-family="Helvetica-Bold" font-weight="bold" font-size="32.0" fill="#FEFFFE" transform="matrix(1.00, 0.00, -0.00, -1.00, 144.6, 111.0)">e</text><text xml:space="preserve" font-family="Helvetica-Bold" font-weight="bold" font-size="32.0" fill="#FEFFFE" transform="matrix(1.00, 0.00, -0.00, -1.00, 162.4, 111.0)">r</text><text xml:space="preserve" font-family="Helvetica-Bold" font-weight="bold" font-size="32.0" fill="#FEFFFE" transform="matrix(1.00, 0.00, -0.00, -1.00, 174.8, 111.0)">e</text><text xml:space="preserve" font-family="Helvetica-Bold" font-weight="bold" font-size="32.0" fill="#FEFFFE" transform="matrix(1.00, 0.00, -0.00, -1.00, 192.6, 111.0)">n</text><text xml:space="preserve" font-family="Helvetica-Bold" font-weight="bold" font-size="32.0" fill="#FEFFFE" transform="matrix(1.00, 0.00, -0.00, -1.00, 212.2, 111.0)">c</text><text xml:space="preserve" font-family="Helvetica-Bold" font-weight="bold" font-size="32.0" fill="#FEFFFE" transform="matrix(1.00, 0.00, -0.00, -1.00, 230.0, 111.0)">e</text><text xml:space="preserve" font-family="Helvetica-Bold" font-weight="bold" font-size="32.0" fill="#FEFFFE" transform="matrix(1.00, 0.00, -0.00, -1.00, 247.8, 111.0)">s</text><text xml:space="preserve" font-family="Helvetica-Bold" font-weight="bold" font-size="32.0" fill="#FEFFFE" transform="matrix(1.00, 0.00, -0.00, -1.00, 265.6, 111.0)"> </text><text xml:space="preserve" font-family="Helvetica-Bold" font-weight="bold" font-size="32.0" fill="#FEFFFE" transform="matrix(1.00, 0.00, -0.00, -1.00, 274.5, 111.0)">s</text><text xml:space="preserve" font-family="Helvetica-Bold" font-weight="bold" font-size="32.0" fill="#FEFFFE" transform="matrix(1.00, 0.00, -0.00, -1.00, 292.3, 111.0)">h</text><text xml:space="preserve" font-family="Helvetica-Bold" font-weight="bold" font-size="32.0" fill="#FEFFFE" transform="matrix(1.00, 0.00, -0.00, -1.00, 311.8, 111.0)">a</text><text xml:space="preserve" font-family="Helvetica-Bold" font-weight="bold" font-size="32.0" fill="#FEFFFE" transform="matrix(1.00, 0.00, -0.00, -1.00, 329.6, 111.0)">r</text><text xml:space="preserve" font-family="Helvetica-Bold" font-weight="bold" font-size="32.0" fill="#FEFFFE" transform="matrix(1.00, 0.00, -0.00, -1.00, 342.1, 111.0)">e</text><text xml:space="preserve" font-family="Helvetica-Bold" font-weight="bold" font-size="32.0" fill="#FEFFFE" transform="matrix(1.00, 0.00, -0.00, -1.00, 359.9, 111.0)">d</text><text xml:space="preserve" font-family="Helvetica-Bold" font-weight="bold" font-size="32.0" fill="#FEFFFE" transform="matrix(1.00, 0.00, -0.00, -1.00, 379.4, 111.0)"> </text><text xml:space="preserve" font-family="Helvetica-Bold" font-weight="bold" font-size="32.0" fill="#FEFFFE" transform="matrix(1.00, 0.00, -0.00, -1.00, 118.0, 73.0)">l</text><text xml:space="preserve" font-family="Helvetica-Bold" font-weight="bold" font-size="32.0" fill="#FEFFFE" transform="matrix(1.00, 0.00, -0.00, -1.00, 126.9, 73.0)">i</text><text xml:space="preserve" font-family="Helvetica-Bold" font-weight="bold" font-size="32.0" fill="#FEFFFE" transform="matrix(1.00, 0.00, -0.00, -1.00, 135.8, 73.0)">b</text><text xml:space="preserve" font-family="Helvetica-Bold" font-weight="bold" font-size="32.0" fill="#FEFFFE" transform="matrix(1.00, 0.00, -0.00, -1.00, 155.3, 73.0)">r</text><text xml:space="preserve" font-family="Helvetica-Bold" font-weight="bold" font-size="32.0" fill="#FEFFFE" transform="matrix(1.00, 0.00, -0.00, -1.00, 167.8, 73.0)">a</text><text xml:space="preserve" font-family="Helvetica-Bold" font-weight="bold" font-size="32.0" fill="#FEFFFE" transform="matrix(1.00, 0.00, -0.00, -1.00, 185.5, 73.0)">r</text><text xml:space="preserve" font-family="Helvetica-Bold" font-weight="bold" font-size="32.0" fill="#FEFFFE" transform="matrix(1.00, 0.00, -0.00, -1.00, 198.0, 73.0)">y</text><text xml:space="preserve" font-family="Helvetica-Bold" font-weight="bold" font-size="32.0" fill="#FEFFFE" transform="matrix(1.00, 0.00, -0.00, -1.00, 215.8, 73.0)"> </text><text xml:space="preserve" font-family="Helvetica-Bold" font-weight="bold" font-size="32.0" fill="#FEFFFE" transform="matrix(1.00, 0.00, -0.00, -1.00, 224.7, 73.0)">b</text><text xml:space="preserve" font-family="Helvetica-Bold" font-weight="bold" font-size="32.0" fill="#FEFFFE" transform="matrix(1.00, 0.00, -0.00, -1.00, 244.2, 73.0)">y</text><text xml:space="preserve" font-family="Helvetica-Bold" font-weight="bold" font-size="32.0" fill="#FEFFFE" transform="matrix(1.00, 0.00, -0.00, -1.00, 262.0, 73.0)"> </text><text xml:space="preserve" font-family="Helvetica-Bold" font-weight="bold" font-size="32.0" fill="#FEFFFE" transform="matrix(1.00, 0.00, -0.00, -1.00, 270.9, 73.0)">n</text><text xml:space="preserve" font-family="Helvetica-Bold" font-weight="bold" font-size="32.0" fill="#FEFFFE" transform="matrix(1.00, 0.00, -0.00, -1.00, 290.4, 73.0)">a</text><text xml:space="preserve" font-family="Helvetica-Bold" font-weight="bold" font-size="32.0" fill="#FEFFFE" transform="matrix(1.00, 0.00, -0.00, -1.00, 308.2, 73.0)">m</text><text xml:space="preserve" font-family="Helvetica-Bold" font-weight="bold" font-size="32.0" fill="#FEFFFE" transform="matrix(1.00, 0.00, -0.00, -1.00, 336.7, 73.0)">e</text><text xml:space="preserve" font-family="Helvetica-Bold" font-weight="bold" font-size="32.0" fill="#FEFFFE" transform="matrix(1.00, 0.00, -0.00, -1.00, 354.5, 73.0)"> </text><text xml:space="preserve" font-family="Helvetica-Bold" font-weight="bold" font-size="28.0" fill="#FEFFFE" transform="matrix(1.00, 0.00, -0.00, -1.00, 86.0, 38.0)">(</text><text xml:space="preserve" font-family="Helvetica-Bold" font-weight="bold" font-size="28.0" fill="#FEFFFE" transform="matrix(1.00, 0.00, -0.00, -1.00, 95.3, 38.0)">u</text><text xml:space="preserve" font-family="Helvetica-Bold" font-weight="bold" font-size="28.0" fill="#FEFFFE" transform="matrix(1.00, 0.00, -0.00, -1.00, 112.4, 38.0)">s</text><text xml:space="preserve" font-family="Helvetica-Bold" font-weight="bold" font-size="28.0" fill="#FEFFFE" transform="matrix(1.00, 0.00, -0.00, -1.00, 128.0, 38.0)">i</text><text xml:space="preserve" font-family="Helvetica-Bold" font-weight="bold" font-size="28.0" fill="#FEFFFE" transform="matrix(1.00, 0.00, -0.00, -1.00, 135.8, 38.0)">n</text><text xml:space="preserve" font-family="Helvetica-Bold" font-weight="bold" font-size="28.0" fill="#FEFFFE" transform="matrix(1.00, 0.00, -0.00, -1.00, 152.9, 38.0)">g</text><text xml:space="preserve" font-family="Helvetica-Bold" font-weight="bold" font-size="28.0" fill="#FEFFFE" transform="matrix(1.00, 0.00, -0.00, -1.00, 170.0, 38.0)"> </text><text xml:space="preserve" font-family="Helvetica-Bold" font-weight="bold" font-size="28.0" fill="#FEFFFE" transform="matrix(1.00, 0.00, -0.00, -1.00, 177.7, 38.0)">d</text><text xml:space="preserve" font-family="Helvetica-Bold" font-weight="bold" font-size="28.0" fill="#FEFFFE" transform="matrix(1.00, 0.00, -0.00, -1.00, 194.8, 38.0)">e</text><text xml:space="preserve" font-family="Helvetica-Bold" font-weight="bold" font-size="28.0" fill="#FEFFFE" transform="matrix(1.00, 0.00, -0.00, -1.00, 210.4, 38.0)">f</text><text xml:space="preserve" font-family="Helvetica-Bold" font-weight="bold" font-size="28.0" fill="#FEFFFE" transform="matrix(1.00, 0.00, -0.00, -1.00, 219.7, 38.0)">a</text><text xml:space="preserve" font-family="Helvetica-Bold" font-weight="bold" font-size="28.0" fill="#FEFFFE" transform="matrix(1.00, 0.00, -0.00, -1.00, 235.3, 38.0)">u</text><text xml:space="preserve" font-family="Helvetica-Bold" font-weight="bold" font-size="28.0" fill="#FEFFFE" transform="matrix(1.00, 0.00, -0.00, -1.00, 252.4, 38.0)">l</text><text xml:space="preserve" font-family="Helvetica-Bold" font-weight="bold" font-size="28.0" fill="#FEFFFE" transform="matrix(1.00, 0.00, -0.00, -1.00, 260.2, 38.0)">t</text><text xml:space="preserve" font-family="Helvetica-Bold" font-weight="bold" font-size="28.0" fill="#FEFFFE" transform="matrix(1.00, 0.00, -0.00, -1.00, 269.5, 38.0)"> </text><text xml:space="preserve" font-family="Helvetica-Bold" font-weight="bold" font-size="28.0" fill="#FEFFFE" transform="matrix(1.00, 0.00, -0.00, -1.00, 277.3, 38.0)">v</text><text xml:space="preserve" font-family="Helvetica-Bold" font-weight="bold" font-size="28.0" fill="#FEFFFE" transform="matrix(1.00, 0.00, -0.00, -1.00, 292.9, 38.0)">e</text><text xml:space="preserve" font-family="Helvetica-Bold" font-weight="bold" font-size="28.0" fill="#FEFFFE" transform="matrix(1.00, 0.00, -0.00, -1.00, 308.4, 38.0)">r</text><text xml:space="preserve" font-family="Helvetica-Bold" font-weight="bold" font-size="28.0" fill="#FEFFFE" transform="matrix(1.00, 0.00, -0.00, -1.00, 319.3, 38.0)">s</text><text xml:space="preserve" font-family="Helvetica-Bold" font-weight="bold" font-size="28.0" fill="#FEFFFE" transform="matrix(1.00, 0.00, -0.00, -1.00, 334.9, 38.0)">i</text><text xml:space="preserve" font-family="Helvetica-Bold" font-weight="bold" font-size="28.0" fill="#FEFFFE" transform="matrix(1.00, 0.00, -0.00, -1.00, 342.7, 38.0)">o</text><text xml:space="preserve" font-family="Helvetica-Bold" font-weight="bold" font-size="28.0" fill="#FEFFFE" transform="matrix(1.00, 0.00, -0.00, -1.00, 359.8, 38.0)">n</text><text xml:space="preserve" font-family="Helvetica-Bold" font-weight="bold" font-size="28.0" fill="#FEFFFE" transform="matrix(1.00, 0.00, -0.00, -1.00, 376.9, 38.0)">)</text></g></g></g></svg>