<?xml version="1.0" encoding="UTF-8" standalone="no"?><svg xmlns="http://www.w3.org/2000/svg" xmlns:xlink="http://www.w3.org/1999/xlink" clip-rule="evenodd" stroke-miterlimit="4.00" viewBox="0 0 1920 1080"><desc>SVG generated by Keynote</desc><defs></defs><g transform="matrix(1.00, 0.00, -0.00, -1.00, 0.0, 1080.0)"><path d="M 0.0 1080.0 L 1920.0 1080.0 L 1920.0 0.0 L 0.0 0.0 Z M 0.0 1080.0 " fill="#FEFFFF"></path><text xml:space="preserve" font-family="Helvetica-Light" font-size="112.0" fill="#000000" transform="matrix(1.00, 0.00, -0.00, -1.00, 543.0, 874.0)">W</text><text xml:space="preserve" font-family="Helvetica-Light" font-size="112.0" fill="#000000" transform="matrix(1.00, 0.00, -0.00, -1.00, 642.6, 874.0)">h</text><text xml:space="preserve" font-family="Helvetica-Light" font-size="112.0" fill="#000000" transform="matrix(1.00, 0.00, -0.00, -1.00, 704.8, 874.0)">a</text><text xml:space="preserve" font-family="Helvetica-Light" font-size="112.0" fill="#000000" transform="matrix(1.00, 0.00, -0.00, -1.00, 767.1, 874.0)">t</text><text xml:space="preserve" font-family="Helvetica-Light" font-size="112.0" fill="#000000" transform="matrix(1.00, 0.00, -0.00, -1.00, 798.2, 874.0)"> </text><text xml:space="preserve" font-family="Helvetica-Light" font-size="112.0" fill="#000000" transform="matrix(1.00, 0.00, -0.00, -1.00, 829.4, 874.0)">i</text><text xml:space="preserve" font-family="Helvetica-Light" font-size="112.0" fill="#000000" transform="matrix(1.00, 0.00, -0.00, -1.00, 854.2, 874.0)">s</text><text xml:space="preserve" font-family="Helvetica-Light" font-size="112.0" fill="#000000" transform="matrix(1.00, 0.00, -0.00, -1.00, 910.2, 874.0)"> </text><text xml:space="preserve" font-family="Helvetica-Light" font-size="112.0" fill="#000000" transform="matrix(1.00, 0.00, -0.00, -1.00, 941.4, 874.0)">J</text><text xml:space="preserve" font-family="Helvetica-Light" font-size="112.0" fill="#000000" transform="matrix(1.00, 0.00, -0.00, -1.00, 997.4, 874.0)">e</text><text xml:space="preserve" font-family="Helvetica-Light" font-size="112.0" fill="#000000" transform="matrix(1.00, 0.00, -0.00, -1.00, 1059.7, 874.0)">n</text><text xml:space="preserve" font-family="Helvetica-Light" font-size="112.0" fill="#000000" transform="matrix(1.00, 0.00, -0.00, -1.00, 1121.9, 874.0)">k</text><text xml:space="preserve" font-family="Helvetica-Light" font-size="112.0" fill="#000000" transform="matrix(1.00, 0.00, -0.00, -1.00, 1177.9, 874.0)">i</text><text xml:space="preserve" font-family="Helvetica-Light" font-size="112.0" fill="#000000" transform="matrix(1.00, 0.00, -0.00, -1.00, 1202.8, 874.0)">n</text><text xml:space="preserve" font-family="Helvetica-Light" font-size="112.0" fill="#000000" transform="matrix(1.00, 0.00, -0.00, -1.00, 1265.1, 874.0)">s</text><text xml:space="preserve" font-family="Helvetica-Light" font-size="112.0" fill="#000000" transform="matrix(1.00, 0.00, -0.00, -1.00, 1321.1, 874.0)">?</text><image xlink:href="../../49B0041F-D2B6-45AE-B257-4A439451C92F/assets/D579C3DB68D78C8E94182A254E70CABA.jpeg" width="690.00" height="479.00" transform="matrix(1.00, 0.00, -0.00, -1.00, 119.0, 702.0)"></image><image xlink:href="../../49B0041F-D2B6-45AE-B257-4A439451C92F/assets/1D0C13606E5F0FC60BF747C3EFB7243C.jpeg" width="728.00" height="478.00" transform="matrix(1.00, 0.00, -0.00, -1.00, 1054.0, 689.0)"></image><text xml:space="preserve" font-family="Helvetica-Light" font-size="55.0" fill="#000000" transform="matrix(1.00, 0.00, -0.00, -1.00, 124.0, 743.0)">U</text><text xml:space="preserve" font-family="Helvetica-Light" font-size="55.0" fill="#000000" transform="matrix(1.00, 0.00, -0.00, -1.00, 163.7, 743.0)">s</text><text xml:space="preserve" font-family="Helvetica-Light" font-size="55.0" fill="#000000" transform="matrix(1.00, 0.00, -0.00, -1.00, 191.2, 743.0)">e</text><text xml:space="preserve" font-family="Helvetica-Light" font-size="55.0" fill="#000000" transform="matrix(1.00, 0.00, -0.00, -1.00, 221.8, 743.0)">d</text><text xml:space="preserve" font-family="Helvetica-Light" font-size="55.0" fill="#000000" transform="matrix(1.00, 0.00, -0.00, -1.00, 255.4, 743.0)"> </text><text xml:space="preserve" font-family="Helvetica-Light" font-size="55.0" fill="#000000" transform="matrix(1.00, 0.00, -0.00, -1.00, 270.7, 743.0)">t</text><text xml:space="preserve" font-family="Helvetica-Light" font-size="55.0" fill="#000000" transform="matrix(1.00, 0.00, -0.00, -1.00, 286.0, 743.0)">o</text><text xml:space="preserve" font-family="Helvetica-Light" font-size="55.0" fill="#000000" transform="matrix(1.00, 0.00, -0.00, -1.00, 316.6, 743.0)"> </text><text xml:space="preserve" font-family="Helvetica-Light" font-size="55.0" fill="#000000" transform="matrix(1.00, 0.00, -0.00, -1.00, 331.8, 743.0)">b</text><text xml:space="preserve" font-family="Helvetica-Light" font-size="55.0" fill="#000000" transform="matrix(1.00, 0.00, -0.00, -1.00, 365.4, 743.0)">e</text><text xml:space="preserve" font-family="Helvetica-Light" font-size="55.0" fill="#000000" transform="matrix(1.00, 0.00, -0.00, -1.00, 396.0, 743.0)">…</text><text xml:space="preserve" font-family="Helvetica-Light" font-size="55.0" fill="#000000" transform="matrix(1.00, 0.00, -0.00, -1.00, 1059.0, 743.0)">H</text><text xml:space="preserve" font-family="Helvetica-Light" font-size="55.0" fill="#000000" transform="matrix(1.00, 0.00, -0.00, -1.00, 1098.7, 743.0)">a</text><text xml:space="preserve" font-family="Helvetica-Light" font-size="55.0" fill="#000000" transform="matrix(1.00, 0.00, -0.00, -1.00, 1129.3, 743.0)">s</text><text xml:space="preserve" font-family="Helvetica-Light" font-size="55.0" fill="#000000" transform="matrix(1.00, 0.00, -0.00, -1.00, 1156.8, 743.0)"> </text><text xml:space="preserve" font-family="Helvetica-Light" font-size="55.0" fill="#000000" transform="matrix(1.00, 0.00, -0.00, -1.00, 1172.1, 743.0)">b</text><text xml:space="preserve" font-family="Helvetica-Light" font-size="55.0" fill="#000000" transform="matrix(1.00, 0.00, -0.00, -1.00, 1205.7, 743.0)">e</text><text xml:space="preserve" font-family="Helvetica-Light" font-size="55.0" fill="#000000" transform="matrix(1.00, 0.00, -0.00, -1.00, 1236.3, 743.0)">c</text><text xml:space="preserve" font-family="Helvetica-Light" font-size="55.0" fill="#000000" transform="matrix(1.00, 0.00, -0.00, -1.00, 1266.8, 743.0)">o</text><text xml:space="preserve" font-family="Helvetica-Light" font-size="55.0" fill="#000000" transform="matrix(1.00, 0.00, -0.00, -1.00, 1297.4, 743.0)">m</text><text xml:space="preserve" font-family="Helvetica-Light" font-size="55.0" fill="#000000" transform="matrix(1.00, 0.00, -0.00, -1.00, 1343.2, 743.0)">e</text><text xml:space="preserve" font-family="Helvetica-Light" font-size="55.0" fill="#000000" transform="matrix(1.00, 0.00, -0.00, -1.00, 1373.8, 743.0)">…</text><text xml:space="preserve" font-family="Helvetica-Light" font-size="60.0" fill="#000000" transform="matrix(1.00, 0.00, -0.00, -1.00, 268.0, 95.0)">a</text><text xml:space="preserve" font-family="Helvetica-Light" font-size="60.0" fill="#000000" transform="matrix(1.00, 0.00, -0.00, -1.00, 301.4, 95.0)"> </text><text xml:space="preserve" font-family="Helvetica-Bold" font-weight="bold" font-size="60.0" fill="#000000" transform="matrix(1.00, 0.00, -0.00, -1.00, 318.0, 95.0)">b</text><text xml:space="preserve" font-family="Helvetica-Bold" font-weight="bold" font-size="60.0" fill="#000000" transform="matrix(1.00, 0.00, -0.00, -1.00, 354.7, 95.0)">u</text><text xml:space="preserve" font-family="Helvetica-Bold" font-weight="bold" font-size="60.0" fill="#000000" transform="matrix(1.00, 0.00, -0.00, -1.00, 391.3, 95.0)">i</text><text xml:space="preserve" font-family="Helvetica-Bold" font-weight="bold" font-size="60.0" fill="#000000" transform="matrix(1.00, 0.00, -0.00, -1.00, 408.0, 95.0)">l</text><text xml:space="preserve" font-family="Helvetica-Bold" font-weight="bold" font-size="60.0" fill="#000000" transform="matrix(1.00, 0.00, -0.00, -1.00, 424.6, 95.0)">d</text><text xml:space="preserve" font-family="Helvetica-Bold" font-weight="bold" font-size="60.0" fill="#000000" transform="matrix(1.00, 0.00, -0.00, -1.00, 461.3, 95.0)"> </text><text xml:space="preserve" font-family="Helvetica-Bold" font-weight="bold" font-size="60.0" fill="#000000" transform="matrix(1.00, 0.00, -0.00, -1.00, 477.9, 95.0)">s</text><text xml:space="preserve" font-family="Helvetica-Bold" font-weight="bold" font-size="60.0" fill="#000000" transform="matrix(1.00, 0.00, -0.00, -1.00, 511.3, 95.0)">e</text><text xml:space="preserve" font-family="Helvetica-Bold" font-weight="bold" font-size="60.0" fill="#000000" transform="matrix(1.00, 0.00, -0.00, -1.00, 544.6, 95.0)">r</text><text xml:space="preserve" font-family="Helvetica-Bold" font-weight="bold" font-size="60.0" fill="#000000" transform="matrix(1.00, 0.00, -0.00, -1.00, 568.0, 95.0)">v</text><text xml:space="preserve" font-family="Helvetica-Bold" font-weight="bold" font-size="60.0" fill="#000000" transform="matrix(1.00, 0.00, -0.00, -1.00, 601.3, 95.0)">e</text><text xml:space="preserve" font-family="Helvetica-Bold" font-weight="bold" font-size="60.0" fill="#000000" transform="matrix(1.00, 0.00, -0.00, -1.00, 634.7, 95.0)">r</text><text xml:space="preserve" font-family="Helvetica-Light" font-size="60.0" fill="#000000" transform="matrix(1.00, 0.00, -0.00, -1.00, 1116.0, 95.0)">a</text><text xml:space="preserve" font-family="Helvetica-Light" font-size="60.0" fill="#000000" transform="matrix(1.00, 0.00, -0.00, -1.00, 1149.4, 95.0)">n</text><text xml:space="preserve" font-family="Helvetica-Light" font-size="60.0" fill="#000000" transform="matrix(1.00, 0.00, -0.00, -1.00, 1182.7, 95.0)"> </text><text xml:space="preserve" font-family="Helvetica-Bold" font-weight="bold" font-size="60.0" fill="#000000" transform="matrix(1.00, 0.00, -0.00, -1.00, 1199.4, 95.0)">a</text><text xml:space="preserve" font-family="Helvetica-Bold" font-weight="bold" font-size="60.0" fill="#000000" transform="matrix(1.00, 0.00, -0.00, -1.00, 1232.8, 95.0)">u</text><text xml:space="preserve" font-family="Helvetica-Bold" font-weight="bold" font-size="60.0" fill="#000000" transform="matrix(1.00, 0.00, -0.00, -1.00, 1269.4, 95.0)">t</text><text xml:space="preserve" font-family="Helvetica-Bold" font-weight="bold" font-size="60.0" fill="#000000" transform="matrix(1.00, 0.00, -0.00, -1.00, 1289.4, 95.0)">o</text><text xml:space="preserve" font-family="Helvetica-Bold" font-weight="bold" font-size="60.0" fill="#000000" transform="matrix(1.00, 0.00, -0.00, -1.00, 1326.0, 95.0)">m</text><text xml:space="preserve" font-family="Helvetica-Bold" font-weight="bold" font-size="60.0" fill="#000000" transform="matrix(1.00, 0.00, -0.00, -1.00, 1379.4, 95.0)">a</text><text xml:space="preserve" font-family="Helvetica-Bold" font-weight="bold" font-size="60.0" fill="#000000" transform="matrix(1.00, 0.00, -0.00, -1.00, 1412.8, 95.0)">t</text><text xml:space="preserve" font-family="Helvetica-Bold" font-weight="bold" font-size="60.0" fill="#000000" transform="matrix(1.00, 0.00, -0.00, -1.00, 1432.8, 95.0)">i</text><text xml:space="preserve" font-family="Helvetica-Bold" font-weight="bold" font-size="60.0" fill="#000000" transform="matrix(1.00, 0.00, -0.00, -1.00, 1449.4, 95.0)">o</text><text xml:space="preserve" font-family="Helvetica-Bold" font-weight="bold" font-size="60.0" fill="#000000" transform="matrix(1.00, 0.00, -0.00, -1.00, 1486.1, 95.0)">n</text><text xml:space="preserve" font-family="Helvetica-Bold" font-weight="bold" font-size="60.0" fill="#000000" transform="matrix(1.00, 0.00, -0.00, -1.00, 1522.7, 95.0)"> </text><text xml:space="preserve" font-family="Helvetica-Bold" font-weight="bold" font-size="60.0" fill="#000000" transform="matrix(1.00, 0.00, -0.00, -1.00, 1539.4, 95.0)">s</text><text xml:space="preserve" font-family="Helvetica-Bold" font-weight="bold" font-size="60.0" fill="#000000" transform="matrix(1.00, 0.00, -0.00, -1.00, 1572.7, 95.0)">e</text><text xml:space="preserve" font-family="Helvetica-Bold" font-weight="bold" font-size="60.0" fill="#000000" transform="matrix(1.00, 0.00, -0.00, -1.00, 1606.1, 95.0)">r</text><text xml:space="preserve" font-family="Helvetica-Bold" font-weight="bold" font-size="60.0" fill="#000000" transform="matrix(1.00, 0.00, -0.00, -1.00, 1629.5, 95.0)">v</text><text xml:space="preserve" font-family="Helvetica-Bold" font-weight="bold" font-size="60.0" fill="#000000" transform="matrix(1.00, 0.00, -0.00, -1.00, 1662.9, 95.0)">e</text><text xml:space="preserve" font-family="Helvetica-Bold" font-weight="bold" font-size="60.0" fill="#000000" transform="matrix(1.00, 0.00, -0.00, -1.00, 1696.2, 95.0)">r</text></g></svg>