<?xml version="1.0" encoding="UTF-8" standalone="no"?><svg xmlns="http://www.w3.org/2000/svg" xmlns:xlink="http://www.w3.org/1999/xlink" clip-rule="evenodd" stroke-miterlimit="4.00" viewBox="0 0 1920 1080"><desc>SVG generated by Keynote</desc><defs><pattern id="C0115435-D7A6-47BA-A275-D59287664009" patternUnits="userSpaceOnUse" width="586" height="586" viewBox="0 0 586 586" patternTransform="matrix(0.511945, 0.000000, 0.000000, -0.511945, 309.244600, 758.659100)"><image xlink:href="../../D74EAB38-27DB-49C6-A2C6-F1376FF27CD1/assets/CD9ACC2DC88F7E21B59B79690EC2CD1C.jpeg" width="586.00" height="586.00"></image></pattern><pattern id="F74D4A4B-EA52-4355-9738-66A03EDAF3CB" patternUnits="userSpaceOnUse" width="586" height="586" viewBox="0 0 586 586" patternTransform="matrix(0.511945, 0.000000, 0.000000, -0.511945, 101.819700, 467.274400)"><image xlink:href="../../D74EAB38-27DB-49C6-A2C6-F1376FF27CD1/assets/CD9ACC2DC88F7E21B59B79690EC2CD1C.jpeg" width="586.00" height="586.00"></image></pattern><pattern id="EA7D7A75-60EB-4029-91D2-2B01041F8668" patternUnits="userSpaceOnUse" width="586" height="586" viewBox="0 0 586 586" patternTransform="matrix(0.511945, 0.000000, 0.000000, -0.511945, 1451.400000, 651.434400)"><image xlink:href="../../D74EAB38-27DB-49C6-A2C6-F1376FF27CD1/assets/CD9ACC2DC88F7E21B59B79690EC2CD1C.jpeg" width="586.00" height="586.00"></image></pattern><pattern id="45ACDAF5-226B-4F09-AD7B-E3D8BA65C40D" patternUnits="userSpaceOnUse" width="586" height="586" viewBox="0 0 586 586" patternTransform="matrix(0.511945, 0.000000, 0.000000, -0.511945, 710.509300, 292.632500)"><image xlink:href="../../D74EAB38-27DB-49C6-A2C6-F1376FF27CD1/assets/CD9ACC2DC88F7E21B59B79690EC2CD1C.jpeg" width="586.00" height="586.00"></image></pattern></defs><g transform="matrix(1.00, 0.00, -0.00, -1.00, 0.0, 1080.0)"><path d="M 0.0 1080.0 L 1920.0 1080.0 L 1920.0 0.0 L 0.0 0.0 Z M 0.0 1080.0 " fill="#FEFFFF"></path><image xlink:href="../../19993A25-0C36-4516-BD14-3B72FB54D23A/assets/6D1247A2B7ECB461894C24C7C2B83FB1.png" width="650.00" height="758.00" transform="matrix(1.00, 0.00, -0.00, -1.00, 1020.0, 813.0)"></image><image xlink:href="../../19993A25-0C36-4516-BD14-3B72FB54D23A/assets/D73FA004BCFF29AE64A795EAC6A5548F.png" width="728.00" height="768.00" transform="matrix(1.02, 0.00, -0.00, -1.02, -5.0, 868.0)"></image><text xml:space="preserve" font-family="Helvetica-Light" font-size="112.0" fill="#000000" transform="matrix(1.00, 0.00, -0.00, -1.00, 423.0, 874.0)">C</text><text xml:space="preserve" font-family="Helvetica-Light" font-size="112.0" fill="#000000" transform="matrix(1.00, 0.00, -0.00, -1.00, 503.9, 874.0)">r</text><text xml:space="preserve" font-family="Helvetica-Light" font-size="112.0" fill="#000000" transform="matrix(1.00, 0.00, -0.00, -1.00, 539.1, 874.0)">e</text><text xml:space="preserve" font-family="Helvetica-Light" font-size="112.0" fill="#000000" transform="matrix(1.00, 0.00, -0.00, -1.00, 601.4, 874.0)">a</text><text xml:space="preserve" font-family="Helvetica-Light" font-size="112.0" fill="#000000" transform="matrix(1.00, 0.00, -0.00, -1.00, 663.7, 874.0)">t</text><text xml:space="preserve" font-family="Helvetica-Light" font-size="112.0" fill="#000000" transform="matrix(1.00, 0.00, -0.00, -1.00, 694.8, 874.0)">e</text><text xml:space="preserve" font-family="Helvetica-Light" font-size="112.0" fill="#000000" transform="matrix(1.00, 0.00, -0.00, -1.00, 757.1, 874.0)"> </text><text xml:space="preserve" font-family="Helvetica-Light" font-size="112.0" fill="#000000" transform="matrix(1.00, 0.00, -0.00, -1.00, 788.2, 874.0)">a</text><text xml:space="preserve" font-family="Helvetica-Light" font-size="112.0" fill="#000000" transform="matrix(1.00, 0.00, -0.00, -1.00, 850.5, 874.0)"> </text><text xml:space="preserve" font-family="Helvetica-Light" font-size="112.0" fill="#000000" transform="matrix(1.00, 0.00, -0.00, -1.00, 881.6, 874.0)">P</text><text xml:space="preserve" font-family="Helvetica-Light" font-size="112.0" fill="#000000" transform="matrix(1.00, 0.00, -0.00, -1.00, 950.1, 874.0)">i</text><text xml:space="preserve" font-family="Helvetica-Light" font-size="112.0" fill="#000000" transform="matrix(1.00, 0.00, -0.00, -1.00, 974.9, 874.0)">p</text><text xml:space="preserve" font-family="Helvetica-Light" font-size="112.0" fill="#000000" transform="matrix(1.00, 0.00, -0.00, -1.00, 1043.4, 874.0)">e</text><text xml:space="preserve" font-family="Helvetica-Light" font-size="112.0" fill="#000000" transform="matrix(1.00, 0.00, -0.00, -1.00, 1105.6, 874.0)">l</text><text xml:space="preserve" font-family="Helvetica-Light" font-size="112.0" fill="#000000" transform="matrix(1.00, 0.00, -0.00, -1.00, 1130.5, 874.0)">i</text><text xml:space="preserve" font-family="Helvetica-Light" font-size="112.0" fill="#000000" transform="matrix(1.00, 0.00, -0.00, -1.00, 1155.4, 874.0)">n</text><text xml:space="preserve" font-family="Helvetica-Light" font-size="112.0" fill="#000000" transform="matrix(1.00, 0.00, -0.00, -1.00, 1217.6, 874.0)">e</text><text xml:space="preserve" font-family="Helvetica-Light" font-size="112.0" fill="#000000" transform="matrix(1.00, 0.00, -0.00, -1.00, 1279.9, 874.0)"> </text><text xml:space="preserve" font-family="Helvetica-Light" font-size="112.0" fill="#000000" transform="matrix(1.00, 0.00, -0.00, -1.00, 1311.0, 874.0)">J</text><text xml:space="preserve" font-family="Helvetica-Light" font-size="112.0" fill="#000000" transform="matrix(1.00, 0.00, -0.00, -1.00, 1367.0, 874.0)">o</text><text xml:space="preserve" font-family="Helvetica-Light" font-size="112.0" fill="#000000" transform="matrix(1.00, 0.00, -0.00, -1.00, 1429.3, 874.0)">b</text><image xlink:href="../../D74EAB38-27DB-49C6-A2C6-F1376FF27CD1/assets/5C785E38C23C9A1A031665D6B2F6DFAE.png" width="594.00" height="157.00" transform="matrix(1.00, 0.00, -0.00, -1.00, 306.2, 762.7)" opacity="0.50"></image><g><clipPath id="clip-24"><path d="M 661.7 758.7 C 657.6 758.7 654.3 755.3 654.3 751.2 L 654.3 696.3 L 309.2 681.4 L 654.3 666.6 L 654.3 617.4 C 654.3 613.3 657.6 610.0 661.7 610.0 L 887.4 610.0 C 891.5 610.0 894.9 613.3 894.9 617.4 L 894.9 751.2 C 894.9 755.3 891.5 758.7 887.4 758.7 L 661.7 758.7 Z M 661.7 758.7 "></path></clipPath><g clip-path="url(#clip-24)"><path d="M 309.2 610.0 L 894.9 610.0 L 894.9 758.7 L 309.2 758.7 Z M 309.2 610.0 " fill="url(#C0115435-D7A6-47BA-A275-D59287664009)"></path><path d="M 309.2 758.7 L 894.9 758.7 L 894.9 610.0 L 309.2 610.0 Z M 309.2 758.7 " fill="#00D026" fill-opacity="0.50"></path></g></g><g><clipPath id="clip-25"><path d="M 650.3 610.0 L 898.9 610.0 L 898.9 758.7 L 650.3 758.7 Z M 650.3 610.0 "></path></clipPath><g clip-path="url(#clip-25)"><text xml:space="preserve" font-family="Helvetica-Bold" font-weight="bold" font-size="32.0" fill="#FEFFFE" transform="matrix(1.00, 0.00, -0.00, -1.00, 659.0, 692.0)">C</text><text xml:space="preserve" font-family="Helvetica-Bold" font-weight="bold" font-size="32.0" fill="#FEFFFE" transform="matrix(1.00, 0.00, -0.00, -1.00, 682.1, 692.0)">h</text><text xml:space="preserve" font-family="Helvetica-Bold" font-weight="bold" font-size="32.0" fill="#FEFFFE" transform="matrix(1.00, 0.00, -0.00, -1.00, 701.7, 692.0)">o</text><text xml:space="preserve" font-family="Helvetica-Bold" font-weight="bold" font-size="32.0" fill="#FEFFFE" transform="matrix(1.00, 0.00, -0.00, -1.00, 721.2, 692.0)">o</text><text xml:space="preserve" font-family="Helvetica-Bold" font-weight="bold" font-size="32.0" fill="#FEFFFE" transform="matrix(1.00, 0.00, -0.00, -1.00, 740.7, 692.0)">s</text><text xml:space="preserve" font-family="Helvetica-Bold" font-weight="bold" font-size="32.0" fill="#FEFFFE" transform="matrix(1.00, 0.00, -0.00, -1.00, 758.5, 692.0)">e</text><text xml:space="preserve" font-family="Helvetica-Bold" font-weight="bold" font-size="32.0" fill="#FEFFFE" transform="matrix(1.00, 0.00, -0.00, -1.00, 776.3, 692.0)"> </text><text xml:space="preserve" font-family="Helvetica-Bold" font-weight="bold" font-size="32.0" fill="#FEFFFE" transform="matrix(1.00, 0.00, -0.00, -1.00, 785.2, 692.0)">t</text><text xml:space="preserve" font-family="Helvetica-Bold" font-weight="bold" font-size="32.0" fill="#FEFFFE" transform="matrix(1.00, 0.00, -0.00, -1.00, 795.9, 692.0)">y</text><text xml:space="preserve" font-family="Helvetica-Bold" font-weight="bold" font-size="32.0" fill="#FEFFFE" transform="matrix(1.00, 0.00, -0.00, -1.00, 813.7, 692.0)">p</text><text xml:space="preserve" font-family="Helvetica-Bold" font-weight="bold" font-size="32.0" fill="#FEFFFE" transform="matrix(1.00, 0.00, -0.00, -1.00, 833.2, 692.0)">e</text><text xml:space="preserve" font-family="Helvetica-Bold" font-weight="bold" font-size="32.0" fill="#FEFFFE" transform="matrix(1.00, 0.00, -0.00, -1.00, 851.0, 692.0)"> </text><text xml:space="preserve" font-family="Helvetica-Bold" font-weight="bold" font-size="32.0" fill="#FEFFFE" transform="matrix(1.00, 0.00, -0.00, -1.00, 859.9, 692.0)">o</text><text xml:space="preserve" font-family="Helvetica-Bold" font-weight="bold" font-size="32.0" fill="#FEFFFE" transform="matrix(1.00, 0.00, -0.00, -1.00, 879.5, 692.0)">f</text><text xml:space="preserve" font-family="Helvetica-Bold" font-weight="bold" font-size="32.0" fill="#FEFFFE" transform="matrix(1.00, 0.00, -0.00, -1.00, 890.1, 692.0)"> </text><text xml:space="preserve" font-family="Helvetica-Bold" font-weight="bold" font-size="32.0" fill="#FEFFFE" transform="matrix(1.00, 0.00, -0.00, -1.00, 663.0, 654.0)">s</text><text xml:space="preserve" font-family="Helvetica-Bold" font-weight="bold" font-size="32.0" fill="#FEFFFE" transform="matrix(1.00, 0.00, -0.00, -1.00, 680.8, 654.0)">o</text><text xml:space="preserve" font-family="Helvetica-Bold" font-weight="bold" font-size="32.0" fill="#FEFFFE" transform="matrix(1.00, 0.00, -0.00, -1.00, 700.3, 654.0)">u</text><text xml:space="preserve" font-family="Helvetica-Bold" font-weight="bold" font-size="32.0" fill="#FEFFFE" transform="matrix(1.00, 0.00, -0.00, -1.00, 719.9, 654.0)">r</text><text xml:space="preserve" font-family="Helvetica-Bold" font-weight="bold" font-size="32.0" fill="#FEFFFE" transform="matrix(1.00, 0.00, -0.00, -1.00, 732.3, 654.0)">c</text><text xml:space="preserve" font-family="Helvetica-Bold" font-weight="bold" font-size="32.0" fill="#FEFFFE" transform="matrix(1.00, 0.00, -0.00, -1.00, 750.1, 654.0)">e</text><text xml:space="preserve" font-family="Helvetica-Bold" font-weight="bold" font-size="32.0" fill="#FEFFFE" transform="matrix(1.00, 0.00, -0.00, -1.00, 768.0, 654.0)"> </text><text xml:space="preserve" font-family="Helvetica-Bold" font-weight="bold" font-size="32.0" fill="#FEFFFE" transform="matrix(1.00, 0.00, -0.00, -1.00, 776.8, 654.0)">c</text><text xml:space="preserve" font-family="Helvetica-Bold" font-weight="bold" font-size="32.0" fill="#FEFFFE" transform="matrix(1.00, 0.00, -0.00, -1.00, 794.6, 654.0)">o</text><text xml:space="preserve" font-family="Helvetica-Bold" font-weight="bold" font-size="32.0" fill="#FEFFFE" transform="matrix(1.00, 0.00, -0.00, -1.00, 814.2, 654.0)">n</text><text xml:space="preserve" font-family="Helvetica-Bold" font-weight="bold" font-size="32.0" fill="#FEFFFE" transform="matrix(1.00, 0.00, -0.00, -1.00, 833.7, 654.0)">t</text><text xml:space="preserve" font-family="Helvetica-Bold" font-weight="bold" font-size="32.0" fill="#FEFFFE" transform="matrix(1.00, 0.00, -0.00, -1.00, 844.4, 654.0)">r</text><text xml:space="preserve" font-family="Helvetica-Bold" font-weight="bold" font-size="32.0" fill="#FEFFFE" transform="matrix(1.00, 0.00, -0.00, -1.00, 856.8, 654.0)">o</text><text xml:space="preserve" font-family="Helvetica-Bold" font-weight="bold" font-size="32.0" fill="#FEFFFE" transform="matrix(1.00, 0.00, -0.00, -1.00, 876.4, 654.0)">l</text></g></g><image xlink:href="../../D74EAB38-27DB-49C6-A2C6-F1376FF27CD1/assets/DD73288F2A88034AA37CC9B9B650C535.png" width="333.00" height="321.00" transform="matrix(1.00, 0.00, -0.00, -1.00, 98.8, 471.3)" opacity="0.50"></image><g><clipPath id="clip-26"><path d="M 109.3 467.3 C 105.2 467.3 101.8 463.9 101.8 459.8 L 101.8 326.0 C 101.8 321.9 105.2 318.6 109.3 318.6 L 321.4 318.6 L 426.4 154.4 L 342.4 347.6 L 342.4 459.8 C 342.4 463.9 339.1 467.3 335.0 467.3 L 109.3 467.3 Z M 109.3 467.3 "></path></clipPath><g clip-path="url(#clip-26)"><path d="M 101.8 154.4 L 426.4 154.4 L 426.4 467.3 L 101.8 467.3 Z M 101.8 154.4 " fill="url(#F74D4A4B-EA52-4355-9738-66A03EDAF3CB)"></path><path d="M 101.8 467.3 L 426.4 467.3 L 426.4 154.4 L 101.8 154.4 Z M 101.8 467.3 " fill="#00D026" fill-opacity="0.50"></path></g></g><g><clipPath id="clip-27"><path d="M 97.8 318.6 L 346.4 318.6 L 346.4 467.3 L 97.8 467.3 Z M 97.8 318.6 "></path></clipPath><g clip-path="url(#clip-27)"><text xml:space="preserve" font-family="Helvetica-Bold" font-weight="bold" font-size="32.0" fill="#FEFFFE" transform="matrix(1.00, 0.00, -0.00, -1.00, 131.0, 400.0)">P</text><text xml:space="preserve" font-family="Helvetica-Bold" font-weight="bold" font-size="32.0" fill="#FEFFFE" transform="matrix(1.00, 0.00, -0.00, -1.00, 152.3, 400.0)">i</text><text xml:space="preserve" font-family="Helvetica-Bold" font-weight="bold" font-size="32.0" fill="#FEFFFE" transform="matrix(1.00, 0.00, -0.00, -1.00, 161.2, 400.0)">c</text><text xml:space="preserve" font-family="Helvetica-Bold" font-weight="bold" font-size="32.0" fill="#FEFFFE" transform="matrix(1.00, 0.00, -0.00, -1.00, 179.0, 400.0)">k</text><text xml:space="preserve" font-family="Helvetica-Bold" font-weight="bold" font-size="32.0" fill="#FEFFFE" transform="matrix(1.00, 0.00, -0.00, -1.00, 196.8, 400.0)"> </text><text xml:space="preserve" font-family="Helvetica-Bold" font-weight="bold" font-size="32.0" fill="#FEFFFE" transform="matrix(1.00, 0.00, -0.00, -1.00, 205.7, 400.0)">G</text><text xml:space="preserve" font-family="Helvetica-Bold" font-weight="bold" font-size="32.0" fill="#FEFFFE" transform="matrix(1.00, 0.00, -0.00, -1.00, 230.6, 400.0)">i</text><text xml:space="preserve" font-family="Helvetica-Bold" font-weight="bold" font-size="32.0" fill="#FEFFFE" transform="matrix(1.00, 0.00, -0.00, -1.00, 239.5, 400.0)">t</text><text xml:space="preserve" font-family="Helvetica-Bold" font-weight="bold" font-size="32.0" fill="#FEFFFE" transform="matrix(1.00, 0.00, -0.00, -1.00, 250.1, 400.0)">H</text><text xml:space="preserve" font-family="Helvetica-Bold" font-weight="bold" font-size="32.0" fill="#FEFFFE" transform="matrix(1.00, 0.00, -0.00, -1.00, 273.3, 400.0)">u</text><text xml:space="preserve" font-family="Helvetica-Bold" font-weight="bold" font-size="32.0" fill="#FEFFFE" transform="matrix(1.00, 0.00, -0.00, -1.00, 292.8, 400.0)">b</text><text xml:space="preserve" font-family="Helvetica-Bold" font-weight="bold" font-size="32.0" fill="#FEFFFE" transform="matrix(1.00, 0.00, -0.00, -1.00, 312.3, 400.0)"> </text><text xml:space="preserve" font-family="Helvetica-Bold" font-weight="bold" font-size="32.0" fill="#FEFFFE" transform="matrix(1.00, 0.00, -0.00, -1.00, 127.0, 362.0)">o</text><text xml:space="preserve" font-family="Helvetica-Bold" font-weight="bold" font-size="32.0" fill="#FEFFFE" transform="matrix(1.00, 0.00, -0.00, -1.00, 146.5, 362.0)">r</text><text xml:space="preserve" font-family="Helvetica-Bold" font-weight="bold" font-size="32.0" fill="#FEFFFE" transform="matrix(1.00, 0.00, -0.00, -1.00, 159.0, 362.0)">g</text><text xml:space="preserve" font-family="Helvetica-Bold" font-weight="bold" font-size="32.0" fill="#FEFFFE" transform="matrix(1.00, 0.00, -0.00, -1.00, 178.5, 362.0)">a</text><text xml:space="preserve" font-family="Helvetica-Bold" font-weight="bold" font-size="32.0" fill="#FEFFFE" transform="matrix(1.00, 0.00, -0.00, -1.00, 196.3, 362.0)">n</text><text xml:space="preserve" font-family="Helvetica-Bold" font-weight="bold" font-size="32.0" fill="#FEFFFE" transform="matrix(1.00, 0.00, -0.00, -1.00, 215.9, 362.0)">i</text><text xml:space="preserve" font-family="Helvetica-Bold" font-weight="bold" font-size="32.0" fill="#FEFFFE" transform="matrix(1.00, 0.00, -0.00, -1.00, 224.8, 362.0)">z</text><text xml:space="preserve" font-family="Helvetica-Bold" font-weight="bold" font-size="32.0" fill="#FEFFFE" transform="matrix(1.00, 0.00, -0.00, -1.00, 240.8, 362.0)">a</text><text xml:space="preserve" font-family="Helvetica-Bold" font-weight="bold" font-size="32.0" fill="#FEFFFE" transform="matrix(1.00, 0.00, -0.00, -1.00, 258.6, 362.0)">t</text><text xml:space="preserve" font-family="Helvetica-Bold" font-weight="bold" font-size="32.0" fill="#FEFFFE" transform="matrix(1.00, 0.00, -0.00, -1.00, 269.2, 362.0)">i</text><text xml:space="preserve" font-family="Helvetica-Bold" font-weight="bold" font-size="32.0" fill="#FEFFFE" transform="matrix(1.00, 0.00, -0.00, -1.00, 278.1, 362.0)">o</text><text xml:space="preserve" font-family="Helvetica-Bold" font-weight="bold" font-size="32.0" fill="#FEFFFE" transform="matrix(1.00, 0.00, -0.00, -1.00, 297.7, 362.0)">n</text></g></g><image xlink:href="../../D74EAB38-27DB-49C6-A2C6-F1376FF27CD1/assets/B03679A35A7907F7FC40E57A8316DEB5.png" width="425.00" height="266.00" transform="matrix(1.00, 0.00, -0.00, -1.00, 1448.4, 655.4)" opacity="0.50"></image><g><clipPath id="clip-28"><path d="M 1451.4 651.4 L 1606.8 579.0 L 1606.8 401.7 C 1606.8 397.2 1610.5 393.6 1614.9 393.6 L 1860.5 393.6 C 1865.0 393.6 1868.6 397.2 1868.6 401.7 L 1868.6 593.9 C 1868.6 598.3 1865.0 602.0 1860.5 602.0 L 1652.7 602.0 L 1451.4 651.4 Z M 1451.4 651.4 "></path></clipPath><g clip-path="url(#clip-28)"><path d="M 1451.4 393.6 L 1868.6 393.6 L 1868.6 651.4 L 1451.4 651.4 Z M 1451.4 393.6 " fill="url(#EA7D7A75-60EB-4029-91D2-2B01041F8668)"></path><path d="M 1451.4 651.4 L 1868.6 651.4 L 1868.6 393.6 L 1451.4 393.6 Z M 1451.4 651.4 " fill="#00D026" fill-opacity="0.50"></path></g></g><g><clipPath id="clip-29"><path d="M 1602.8 393.6 L 1872.6 393.6 L 1872.6 602.0 L 1602.8 602.0 Z M 1602.8 393.6 "></path></clipPath><g clip-path="url(#clip-29)"><text xml:space="preserve" font-family="Helvetica-Bold" font-weight="bold" font-size="32.0" fill="#FEFFFE" transform="matrix(1.00, 0.00, -0.00, -1.00, 1624.0, 543.0)">C</text><text xml:space="preserve" font-family="Helvetica-Bold" font-weight="bold" font-size="32.0" fill="#FEFFFE" transform="matrix(1.00, 0.00, -0.00, -1.00, 1647.1, 543.0)">r</text><text xml:space="preserve" font-family="Helvetica-Bold" font-weight="bold" font-size="32.0" fill="#FEFFFE" transform="matrix(1.00, 0.00, -0.00, -1.00, 1659.6, 543.0)">e</text><text xml:space="preserve" font-family="Helvetica-Bold" font-weight="bold" font-size="32.0" fill="#FEFFFE" transform="matrix(1.00, 0.00, -0.00, -1.00, 1677.4, 543.0)">a</text><text xml:space="preserve" font-family="Helvetica-Bold" font-weight="bold" font-size="32.0" fill="#FEFFFE" transform="matrix(1.00, 0.00, -0.00, -1.00, 1695.2, 543.0)">t</text><text xml:space="preserve" font-family="Helvetica-Bold" font-weight="bold" font-size="32.0" fill="#FEFFFE" transform="matrix(1.00, 0.00, -0.00, -1.00, 1705.8, 543.0)">e</text><text xml:space="preserve" font-family="Helvetica-Bold" font-weight="bold" font-size="32.0" fill="#FEFFFE" transform="matrix(1.00, 0.00, -0.00, -1.00, 1723.6, 543.0)"> </text><text xml:space="preserve" font-family="Helvetica-Bold" font-weight="bold" font-size="32.0" fill="#FEFFFE" transform="matrix(1.00, 0.00, -0.00, -1.00, 1732.5, 543.0)">a</text><text xml:space="preserve" font-family="Helvetica-Bold" font-weight="bold" font-size="32.0" fill="#FEFFFE" transform="matrix(1.00, 0.00, -0.00, -1.00, 1750.3, 543.0)"> </text><text xml:space="preserve" font-family="Helvetica-Bold" font-weight="bold" font-size="32.0" fill="#FEFFFE" transform="matrix(1.00, 0.00, -0.00, -1.00, 1759.2, 543.0)">s</text><text xml:space="preserve" font-family="Helvetica-Bold" font-weight="bold" font-size="32.0" fill="#FEFFFE" transform="matrix(1.00, 0.00, -0.00, -1.00, 1777.0, 543.0)">i</text><text xml:space="preserve" font-family="Helvetica-Bold" font-weight="bold" font-size="32.0" fill="#FEFFFE" transform="matrix(1.00, 0.00, -0.00, -1.00, 1785.9, 543.0)">n</text><text xml:space="preserve" font-family="Helvetica-Bold" font-weight="bold" font-size="32.0" fill="#FEFFFE" transform="matrix(1.00, 0.00, -0.00, -1.00, 1805.4, 543.0)">g</text><text xml:space="preserve" font-family="Helvetica-Bold" font-weight="bold" font-size="32.0" fill="#FEFFFE" transform="matrix(1.00, 0.00, -0.00, -1.00, 1825.0, 543.0)">l</text><text xml:space="preserve" font-family="Helvetica-Bold" font-weight="bold" font-size="32.0" fill="#FEFFFE" transform="matrix(1.00, 0.00, -0.00, -1.00, 1833.9, 543.0)">e</text><text xml:space="preserve" font-family="Helvetica-Bold" font-weight="bold" font-size="32.0" fill="#FEFFFE" transform="matrix(1.00, 0.00, -0.00, -1.00, 1851.7, 543.0)"> </text><text xml:space="preserve" font-family="Helvetica-Bold" font-weight="bold" font-size="32.0" fill="#FEFFFE" transform="matrix(1.00, 0.00, -0.00, -1.00, 1638.0, 505.0)">p</text><text xml:space="preserve" font-family="Helvetica-Bold" font-weight="bold" font-size="32.0" fill="#FEFFFE" transform="matrix(1.00, 0.00, -0.00, -1.00, 1657.5, 505.0)">i</text><text xml:space="preserve" font-family="Helvetica-Bold" font-weight="bold" font-size="32.0" fill="#FEFFFE" transform="matrix(1.00, 0.00, -0.00, -1.00, 1666.4, 505.0)">p</text><text xml:space="preserve" font-family="Helvetica-Bold" font-weight="bold" font-size="32.0" fill="#FEFFFE" transform="matrix(1.00, 0.00, -0.00, -1.00, 1686.0, 505.0)">e</text><text xml:space="preserve" font-family="Helvetica-Bold" font-weight="bold" font-size="32.0" fill="#FEFFFE" transform="matrix(1.00, 0.00, -0.00, -1.00, 1703.8, 505.0)">l</text><text xml:space="preserve" font-family="Helvetica-Bold" font-weight="bold" font-size="32.0" fill="#FEFFFE" transform="matrix(1.00, 0.00, -0.00, -1.00, 1712.7, 505.0)">i</text><text xml:space="preserve" font-family="Helvetica-Bold" font-weight="bold" font-size="32.0" fill="#FEFFFE" transform="matrix(1.00, 0.00, -0.00, -1.00, 1721.5, 505.0)">n</text><text xml:space="preserve" font-family="Helvetica-Bold" font-weight="bold" font-size="32.0" fill="#FEFFFE" transform="matrix(1.00, 0.00, -0.00, -1.00, 1741.1, 505.0)">e</text><text xml:space="preserve" font-family="Helvetica-Bold" font-weight="bold" font-size="32.0" fill="#FEFFFE" transform="matrix(1.00, 0.00, -0.00, -1.00, 1758.9, 505.0)"> </text><text xml:space="preserve" font-family="Helvetica-Bold" font-weight="bold" font-size="32.0" fill="#FEFFFE" transform="matrix(1.00, 0.00, -0.00, -1.00, 1767.8, 505.0)">f</text><text xml:space="preserve" font-family="Helvetica-Bold" font-weight="bold" font-size="32.0" fill="#FEFFFE" transform="matrix(1.00, 0.00, -0.00, -1.00, 1778.4, 505.0)">o</text><text xml:space="preserve" font-family="Helvetica-Bold" font-weight="bold" font-size="32.0" fill="#FEFFFE" transform="matrix(1.00, 0.00, -0.00, -1.00, 1798.0, 505.0)">r</text><text xml:space="preserve" font-family="Helvetica-Bold" font-weight="bold" font-size="32.0" fill="#FEFFFE" transform="matrix(1.00, 0.00, -0.00, -1.00, 1810.4, 505.0)"> </text><text xml:space="preserve" font-family="Helvetica-Bold" font-weight="bold" font-size="32.0" fill="#FEFFFE" transform="matrix(1.00, 0.00, -0.00, -1.00, 1819.3, 505.0)">a</text><text xml:space="preserve" font-family="Helvetica-Bold" font-weight="bold" font-size="32.0" fill="#FEFFFE" transform="matrix(1.00, 0.00, -0.00, -1.00, 1837.1, 505.0)"> </text><text xml:space="preserve" font-family="Helvetica-Bold" font-weight="bold" font-size="32.0" fill="#FEFFFE" transform="matrix(1.00, 0.00, -0.00, -1.00, 1678.0, 467.0)">s</text><text xml:space="preserve" font-family="Helvetica-Bold" font-weight="bold" font-size="32.0" fill="#FEFFFE" transform="matrix(1.00, 0.00, -0.00, -1.00, 1695.8, 467.0)">p</text><text xml:space="preserve" font-family="Helvetica-Bold" font-weight="bold" font-size="32.0" fill="#FEFFFE" transform="matrix(1.00, 0.00, -0.00, -1.00, 1715.4, 467.0)">e</text><text xml:space="preserve" font-family="Helvetica-Bold" font-weight="bold" font-size="32.0" fill="#FEFFFE" transform="matrix(1.00, 0.00, -0.00, -1.00, 1733.2, 467.0)">c</text><text xml:space="preserve" font-family="Helvetica-Bold" font-weight="bold" font-size="32.0" fill="#FEFFFE" transform="matrix(1.00, 0.00, -0.00, -1.00, 1751.0, 467.0)">i</text><text xml:space="preserve" font-family="Helvetica-Bold" font-weight="bold" font-size="32.0" fill="#FEFFFE" transform="matrix(1.00, 0.00, -0.00, -1.00, 1759.9, 467.0)">ï¬</text><text xml:space="preserve" font-family="Helvetica-Bold" font-weight="bold" font-size="32.0" fill="#FEFFFE" transform="matrix(1.00, 0.00, -0.00, -1.00, 1779.4, 467.0)">c</text><text xml:space="preserve" font-family="Helvetica-Bold" font-weight="bold" font-size="32.0" fill="#FEFFFE" transform="matrix(1.00, 0.00, -0.00, -1.00, 1797.2, 467.0)"> </text><text xml:space="preserve" font-family="Helvetica-Bold" font-weight="bold" font-size="32.0" fill="#FEFFFE" transform="matrix(1.00, 0.00, -0.00, -1.00, 1659.0, 429.0)">r</text><text xml:space="preserve" font-family="Helvetica-Bold" font-weight="bold" font-size="32.0" fill="#FEFFFE" transform="matrix(1.00, 0.00, -0.00, -1.00, 1671.5, 429.0)">e</text><text xml:space="preserve" font-family="Helvetica-Bold" font-weight="bold" font-size="32.0" fill="#FEFFFE" transform="matrix(1.00, 0.00, -0.00, -1.00, 1689.3, 429.0)">p</text><text xml:space="preserve" font-family="Helvetica-Bold" font-weight="bold" font-size="32.0" fill="#FEFFFE" transform="matrix(1.00, 0.00, -0.00, -1.00, 1708.8, 429.0)">o</text><text xml:space="preserve" font-family="Helvetica-Bold" font-weight="bold" font-size="32.0" fill="#FEFFFE" transform="matrix(1.00, 0.00, -0.00, -1.00, 1728.3, 429.0)">s</text><text xml:space="preserve" font-family="Helvetica-Bold" font-weight="bold" font-size="32.0" fill="#FEFFFE" transform="matrix(1.00, 0.00, -0.00, -1.00, 1746.1, 429.0)">i</text><text xml:space="preserve" font-family="Helvetica-Bold" font-weight="bold" font-size="32.0" fill="#FEFFFE" transform="matrix(1.00, 0.00, -0.00, -1.00, 1755.0, 429.0)">t</text><text xml:space="preserve" font-family="Helvetica-Bold" font-weight="bold" font-size="32.0" fill="#FEFFFE" transform="matrix(1.00, 0.00, -0.00, -1.00, 1765.7, 429.0)">o</text><text xml:space="preserve" font-family="Helvetica-Bold" font-weight="bold" font-size="32.0" fill="#FEFFFE" transform="matrix(1.00, 0.00, -0.00, -1.00, 1785.2, 429.0)">r</text><text xml:space="preserve" font-family="Helvetica-Bold" font-weight="bold" font-size="32.0" fill="#FEFFFE" transform="matrix(1.00, 0.00, -0.00, -1.00, 1797.7, 429.0)">y</text></g></g><image xlink:href="../../D74EAB38-27DB-49C6-A2C6-F1376FF27CD1/assets/1F073547EA81D196765EA2674FA46C97.png" width="424.00" height="158.00" transform="matrix(1.00, 0.00, -0.00, -1.00, 707.5, 296.6)" opacity="0.50"></image><g><clipPath id="clip-30"><path d="M 718.6 292.6 C 714.1 292.6 710.5 289.0 710.5 284.5 L 710.5 150.7 C 710.5 146.3 714.1 142.6 718.6 142.6 L 964.2 142.6 C 968.6 142.6 972.3 146.3 972.3 150.7 L 972.3 201.2 L 1126.6 217.4 L 972.3 233.6 L 972.3 284.5 C 972.3 289.0 968.6 292.6 964.2 292.6 L 718.6 292.6 Z M 718.6 292.6 "></path></clipPath><g clip-path="url(#clip-30)"><path d="M 710.5 142.6 L 1126.6 142.6 L 1126.6 292.6 L 710.5 292.6 Z M 710.5 142.6 " fill="url(#45ACDAF5-226B-4F09-AD7B-E3D8BA65C40D)"></path><path d="M 710.5 292.6 L 1126.6 292.6 L 1126.6 142.6 L 710.5 142.6 Z M 710.5 292.6 " fill="#00D026" fill-opacity="0.50"></path></g></g><g><clipPath id="clip-31"><path d="M 706.5 142.6 L 976.3 142.6 L 976.3 292.6 L 706.5 292.6 Z M 706.5 142.6 "></path></clipPath><g clip-path="url(#clip-31)"><text xml:space="preserve" font-family="Helvetica-Bold" font-weight="bold" font-size="32.0" fill="#FEFFFE" transform="matrix(1.00, 0.00, -0.00, -1.00, 766.0, 244.0)">S</text><text xml:space="preserve" font-family="Helvetica-Bold" font-weight="bold" font-size="32.0" fill="#FEFFFE" transform="matrix(1.00, 0.00, -0.00, -1.00, 787.3, 244.0)">e</text><text xml:space="preserve" font-family="Helvetica-Bold" font-weight="bold" font-size="32.0" fill="#FEFFFE" transform="matrix(1.00, 0.00, -0.00, -1.00, 805.1, 244.0)">l</text><text xml:space="preserve" font-family="Helvetica-Bold" font-weight="bold" font-size="32.0" fill="#FEFFFE" transform="matrix(1.00, 0.00, -0.00, -1.00, 814.0, 244.0)">e</text><text xml:space="preserve" font-family="Helvetica-Bold" font-weight="bold" font-size="32.0" fill="#FEFFFE" transform="matrix(1.00, 0.00, -0.00, -1.00, 831.8, 244.0)">c</text><text xml:space="preserve" font-family="Helvetica-Bold" font-weight="bold" font-size="32.0" fill="#FEFFFE" transform="matrix(1.00, 0.00, -0.00, -1.00, 849.6, 244.0)">t</text><text xml:space="preserve" font-family="Helvetica-Bold" font-weight="bold" font-size="32.0" fill="#FEFFFE" transform="matrix(1.00, 0.00, -0.00, -1.00, 860.3, 244.0)"> </text><text xml:space="preserve" font-family="Helvetica-Bold" font-weight="bold" font-size="32.0" fill="#FEFFFE" transform="matrix(1.00, 0.00, -0.00, -1.00, 869.2, 244.0)">t</text><text xml:space="preserve" font-family="Helvetica-Bold" font-weight="bold" font-size="32.0" fill="#FEFFFE" transform="matrix(1.00, 0.00, -0.00, -1.00, 879.8, 244.0)">h</text><text xml:space="preserve" font-family="Helvetica-Bold" font-weight="bold" font-size="32.0" fill="#FEFFFE" transform="matrix(1.00, 0.00, -0.00, -1.00, 899.4, 244.0)">e</text><text xml:space="preserve" font-family="Helvetica-Bold" font-weight="bold" font-size="32.0" fill="#FEFFFE" transform="matrix(1.00, 0.00, -0.00, -1.00, 917.2, 244.0)"> </text><text xml:space="preserve" font-family="Helvetica-Bold" font-weight="bold" font-size="32.0" fill="#FEFFFE" transform="matrix(1.00, 0.00, -0.00, -1.00, 784.0, 206.0)">d</text><text xml:space="preserve" font-family="Helvetica-Bold" font-weight="bold" font-size="32.0" fill="#FEFFFE" transform="matrix(1.00, 0.00, -0.00, -1.00, 803.5, 206.0)">e</text><text xml:space="preserve" font-family="Helvetica-Bold" font-weight="bold" font-size="32.0" fill="#FEFFFE" transform="matrix(1.00, 0.00, -0.00, -1.00, 821.3, 206.0)">s</text><text xml:space="preserve" font-family="Helvetica-Bold" font-weight="bold" font-size="32.0" fill="#FEFFFE" transform="matrix(1.00, 0.00, -0.00, -1.00, 839.1, 206.0)">i</text><text xml:space="preserve" font-family="Helvetica-Bold" font-weight="bold" font-size="32.0" fill="#FEFFFE" transform="matrix(1.00, 0.00, -0.00, -1.00, 848.0, 206.0)">r</text><text xml:space="preserve" font-family="Helvetica-Bold" font-weight="bold" font-size="32.0" fill="#FEFFFE" transform="matrix(1.00, 0.00, -0.00, -1.00, 860.5, 206.0)">e</text><text xml:space="preserve" font-family="Helvetica-Bold" font-weight="bold" font-size="32.0" fill="#FEFFFE" transform="matrix(1.00, 0.00, -0.00, -1.00, 878.2, 206.0)">d</text><text xml:space="preserve" font-family="Helvetica-Bold" font-weight="bold" font-size="32.0" fill="#FEFFFE" transform="matrix(1.00, 0.00, -0.00, -1.00, 897.8, 206.0)"> </text><text xml:space="preserve" font-family="Helvetica-Bold" font-weight="bold" font-size="32.0" fill="#FEFFFE" transform="matrix(1.00, 0.00, -0.00, -1.00, 763.0, 168.0)">r</text><text xml:space="preserve" font-family="Helvetica-Bold" font-weight="bold" font-size="32.0" fill="#FEFFFE" transform="matrix(1.00, 0.00, -0.00, -1.00, 775.5, 168.0)">e</text><text xml:space="preserve" font-family="Helvetica-Bold" font-weight="bold" font-size="32.0" fill="#FEFFFE" transform="matrix(1.00, 0.00, -0.00, -1.00, 793.3, 168.0)">p</text><text xml:space="preserve" font-family="Helvetica-Bold" font-weight="bold" font-size="32.0" fill="#FEFFFE" transform="matrix(1.00, 0.00, -0.00, -1.00, 812.8, 168.0)">o</text><text xml:space="preserve" font-family="Helvetica-Bold" font-weight="bold" font-size="32.0" fill="#FEFFFE" transform="matrix(1.00, 0.00, -0.00, -1.00, 832.3, 168.0)">s</text><text xml:space="preserve" font-family="Helvetica-Bold" font-weight="bold" font-size="32.0" fill="#FEFFFE" transform="matrix(1.00, 0.00, -0.00, -1.00, 850.1, 168.0)">i</text><text xml:space="preserve" font-family="Helvetica-Bold" font-weight="bold" font-size="32.0" fill="#FEFFFE" transform="matrix(1.00, 0.00, -0.00, -1.00, 859.0, 168.0)">t</text><text xml:space="preserve" font-family="Helvetica-Bold" font-weight="bold" font-size="32.0" fill="#FEFFFE" transform="matrix(1.00, 0.00, -0.00, -1.00, 869.7, 168.0)">o</text><text xml:space="preserve" font-family="Helvetica-Bold" font-weight="bold" font-size="32.0" fill="#FEFFFE" transform="matrix(1.00, 0.00, -0.00, -1.00, 889.2, 168.0)">r</text><text xml:space="preserve" font-family="Helvetica-Bold" font-weight="bold" font-size="32.0" fill="#FEFFFE" transform="matrix(1.00, 0.00, -0.00, -1.00, 901.7, 168.0)">y</text></g></g></g></svg>